<?xml version="1.0" encoding="UTF-8" standalone="no"?>
<!DOCTYPE svg PUBLIC "-//W3C//DTD SVG 1.1//EN" "http://www.w3.org/Graphics/SVG/1.1/DTD/svg11.dtd">
<svg xmlns="http://www.w3.org/2000/svg" version="1.1" viewBox="0.00 0.00 677.00 369.00">
<g fill="#162a3f">
<path d="
  M 355.56 57.46
  Q 354.78 60.07 355.45 63.03
  A 0.24 0.24 0.0 0 0 355.89 63.10
  Q 355.94 63.02 355.92 62.84
  A 0.69 0.68 87.3 0 1 356.60 62.09
  L 360.16 62.09
  A 0.85 0.84 3.9 0 0 361.00 61.36
  Q 361.36 58.72 360.15 57.57
  Q 361.59 57.49 365.75 55.82
  Q 366.32 55.59 373.84 54.18
  A 7.92 7.76 42.8 0 1 376.36 54.11
  Q 381.51 54.83 383.44 55.60
  Q 384.20 55.91 388.11 56.84
  Q 393.54 58.15 395.98 63.51
  Q 396.33 64.28 397.83 65.50
  A 1.43 1.41 -77.4 0 1 398.33 66.30
  Q 398.55 67.35 398.58 71.20
  Q 398.71 89.24 398.61 90.41
  Q 398.48 92.12 398.71 96.58
  Q 398.93 100.69 398.16 105.17
  A 1.03 1.02 65.2 0 1 398.02 105.56
  L 388.21 121.74
  A 9.29 9.24 64.4 0 0 386.95 125.35
  L 386.46 129.10
  A 5.57 5.41 63.6 0 1 385.86 130.98
  Q 385.77 131.14 385.03 132.04
  Q 383.56 133.83 383.70 135.88
  Q 385.74 165.10 386.78 177.06
  Q 387.02 179.78 387.02 181.95
  C 387.02 184.31 387.56 186.53 387.75 188.86
  Q 389.47 209.96 389.52 210.75
  Q 389.95 217.57 390.85 224.46
  A 1.68 1.62 -70.5 0 0 391.23 225.30
  L 398.04 233.20
  A 3.45 3.39 21.7 0 1 398.85 235.04
  Q 399.68 242.52 398.54 248.44
  A 1.85 1.85 0.0 0 0 398.64 249.47
  Q 399.72 252.10 400.48 253.26
  Q 401.91 255.43 408.57 265.20
  Q 411.39 269.35 413.75 274.35
  A 8.68 8.65 29.3 0 1 414.50 277.01
  L 415.39 284.89
  A 6.57 6.49 -64.5 0 0 416.31 287.54
  L 419.29 292.35
  A 1.87 1.58 27.7 0 1 419.50 292.87
  Q 421.41 300.82 419.62 308.52
  A 2.66 2.63 -20.7 0 1 419.20 309.44
  Q 418.09 311.03 416.21 311.97
  C 410.32 314.96 405.14 318.18 399.82 320.86
  Q 390.30 325.64 381.97 330.37
  A 11.00 10.94 28.7 0 1 377.11 331.78
  Q 369.28 332.15 363.88 332.05
  Q 354.89 331.88 350.62 331.92
  Q 328.33 332.17 305.75 331.99
  Q 300.24 331.95 296.75 330.85
  C 293.95 329.97 290.05 328.32 287.60 326.84
  Q 274.71 319.09 259.61 311.94
  C 255.90 310.19 256.59 307.55 255.91 304.28
  A 4.64 4.28 -47.9 0 1 255.90 303.29
  L 256.81 293.36
  A 1.68 1.63 -25.7 0 1 257.10 292.57
  L 260.23 287.96
  A 2.20 1.94 -23.0 0 0 260.45 287.50
  C 261.05 285.51 261.67 282.40 262.14 279.31
  Q 262.88 274.47 264.43 271.92
  Q 267.85 266.31 278.35 249.87
  A 2.21 2.20 -35.9 0 0 278.63 248.13
  Q 277.23 242.65 278.02 235.80
  Q 278.26 233.70 281.62 230.63
  A 5.37 5.24 83.8 0 0 282.71 229.24
  Q 283.93 227.02 285.97 225.56
  A 1.28 1.25 -16.3 0 0 286.50 224.62
  C 286.90 219.40 287.59 214.58 287.58 209.14
  C 287.57 205.75 288.31 203.05 288.27 200.19
  C 288.14 192.12 289.52 183.76 290.35 174.53
  Q 291.01 167.23 291.03 167.00
  Q 291.69 160.55 291.71 159.46
  Q 291.81 152.25 293.00 137.25
  C 293.13 135.62 292.88 134.06 291.96 132.34
  Q 290.32 129.28 290.04 125.38
  A 2.95 2.94 -58.2 0 0 289.81 124.40
  L 288.03 120.05
  A 2.02 1.88 -76.6 0 0 287.77 119.59
  Q 282.58 112.82 280.39 106.84
  Q 279.21 103.62 279.25 98.25
  Q 279.44 71.72 279.27 68.99
  Q 279.14 66.78 280.56 65.38
  Q 281.63 64.32 281.89 63.38
  Q 283.70 56.86 291.17 56.44
  A 2.65 2.54 30.3 0 0 292.01 56.24
  Q 302.81 51.53 312.81 56.64
  Q 313.50 57.00 315.40 59.58
  Q 317.55 62.48 321.35 61.72
  A 0.67 0.67 0.0 0 0 321.89 61.06
  L 321.89 54.79
  A 3.00 2.99 -5.5 0 1 324.32 51.85
  Q 325.41 51.63 328.25 51.47
  Q 330.42 51.34 348.80 51.38
  Q 351.15 51.39 353.79 52.50
  A 0.78 0.76 11.5 0 1 354.26 53.19
  Q 354.31 55.66 355.56 57.46
  Z
  M 325.62 55.36
  L 325.48 68.19
  A 0.37 0.36 -3.6 0 1 325.16 68.55
  L 314.65 69.96
  A 1.12 1.12 0.0 0 0 313.68 71.01
  L 313.59 72.63
  A 0.53 0.53 0.0 0 0 314.19 73.18
  L 328.52 71.26
  A 0.38 0.38 0.0 0 0 328.86 70.88
  L 328.86 58.01
  L 336.45 58.08
  Q 337.78 58.66 338.38 59.90
  A 0.78 0.69 34.6 0 1 338.46 60.23
  L 338.81 71.62
  A 0.39 0.39 0.0 0 0 339.21 72.00
  L 347.86 71.73
  A 0.27 0.27 0.0 0 0 348.13 71.46
  L 348.20 57.89
  Q 349.72 56.94 350.32 55.52
  A 0.37 0.36 11.2 0 0 349.98 55.02
  L 339.36 55.03
  Q 332.54 54.46 325.62 55.36
  Z
  M 285.96 62.03
  L 286.40 64.36
  A 0.67 0.66 83.0 0 0 287.08 64.90
  Q 291.45 64.71 295.76 64.57
  Q 296.98 64.52 297.47 62.53
  L 308.19 58.90
  A 0.31 0.31 0.0 0 0 308.14 58.30
  L 301.37 57.38
  A 1.73 1.64 38.4 0 0 300.69 57.44
  L 285.96 62.03
  Z
  M 367.59 58.42
  L 367.14 69.91
  A 0.26 0.26 0.0 0 0 367.50 70.16
  L 379.20 64.92
  A 1.38 1.36 -87.7 0 0 379.84 64.32
  Q 380.32 63.45 380.16 62.69
  L 390.74 62.07
  A 0.35 0.35 0.0 0 0 390.82 61.38
  L 377.20 57.44
  A 3.90 3.81 -40.2 0 0 375.67 57.33
  L 367.59 58.42
  Z
  M 316.0010 62.8114
  A 0.70 0.70 0.0 0 0 315.3348 62.0792
  L 314.6156 62.0453
  A 0.70 0.70 0.0 0 0 313.8834 62.7115
  L 313.7590 65.3486
  A 0.70 0.70 0.0 0 0 314.4252 66.0808
  L 315.1444 66.1147
  A 0.70 0.70 0.0 0 0 315.8766 65.4485
  L 316.0010 62.8114
  Z
  M 361.29 66.07
  L 363.25 66.09
  A 0.57 0.57 0.0 0 0 363.83 65.53
  L 363.84 65.21
  A 3.23 1.04 -89.3 0 0 362.84 61.97
  L 361.82 61.95
  A 3.23 1.04 -89.3 0 0 360.74 65.17
  L 360.73 65.49
  A 0.57 0.57 0.0 0 0 361.29 66.07
  Z
  M 283.02 104.31
  Q 282.98 105.00 283.57 105.71
  Q 284.06 108.00 285.51 109.09
  L 291.76 118.88
  A 1.77 1.70 -3.8 0 0 292.52 119.52
  L 301.02 123.31
  Q 302.71 124.29 303.47 124.32
  L 317.49 129.12
  L 337.88 129.29
  A 0.69 0.68 -0.8 0 0 338.57 128.59
  L 338.27 118.80
  A 1.00 1.00 0.0 0 1 339.27 117.77
  L 362.65 117.77
  A 5.58 5.34 33.9 0 0 364.50 117.45
  L 378.92 112.29
  A 0.84 0.82 -7.4 0 0 379.47 111.59
  C 380.15 104.92 379.40 98.62 379.40 91.98
  Q 379.58 91.47 379.79 91.28
  L 391.50 101.45
  Q 392.16 103.30 393.37 103.84
  A 0.95 0.95 0.0 0 0 394.71 102.96
  L 394.26 69.01
  L 381.91 67.92
  A 3.98 3.92 36.1 0 0 380.10 68.19
  L 374.99 70.25
  Q 373.29 70.70 371.69 71.47
  Q 370.54 72.03 370.86 72.86
  L 370.65 82.97
  L 370.44 87.91
  L 358.77 90.19
  L 355.67 90.46
  A 0.78 0.78 0.0 0 0 354.95 91.26
  L 355.05 94.60
  A 0.78 0.78 0.0 0 0 355.86 95.35
  L 364.46 94.97
  L 366.17 95.35
  A 0.35 0.34 24.1 0 1 366.38 95.89
  Q 365.00 97.72 365.02 100.04
  Q 365.10 108.98 364.86 114.82
  A 0.40 0.40 0.0 0 1 364.14 115.05
  Q 356.63 105.31 351.53 95.02
  L 351.48 80.79
  Q 350.51 78.00 348.37 75.60
  A 1.34 1.34 0.0 0 0 347.37 75.15
  L 329.88 75.15
  A 1.57 1.54 -70.9 0 0 328.65 75.76
  L 326.01 79.16
  A 1.61 1.55 -27.1 0 0 325.68 80.12
  L 325.69 95.02
  Q 325.33 96.98 322.14 95.46
  L 322.05 90.95
  A 0.61 0.61 0.0 0 0 321.50 90.35
  L 318.69 90.10
  L 308.59 87.95
  A 1.69 1.67 -49.2 0 0 307.61 88.03
  L 299.05 91.36
  L 298.21 91.46
  Q 297.52 91.61 297.24 90.20
  L 297.26 87.55
  Q 301.65 88.34 305.50 85.64
  A 1.58 1.56 -16.2 0 0 306.17 84.44
  Q 306.53 78.48 305.24 72.57
  L 305.93 72.05
  A 0.33 0.32 36.4 0 0 305.84 71.49
  L 296.68 68.04
  A 2.17 2.05 52.3 0 0 295.78 67.90
  L 283.07 68.55
  A 0.46 0.46 0.0 0 0 282.63 69.02
  L 283.02 104.31
  Z
  M 350.23 71.57
  Q 351.58 73.80 352.78 75.86
  C 354.99 79.65 355.44 82.77 355.34 87.08
  A 0.57 0.57 0.0 0 0 356.03 87.65
  L 366.54 85.54
  A 1.19 1.19 0.0 0 0 367.49 84.35
  L 367.31 74.17
  A 1.31 1.31 0.0 0 0 365.11 73.24
  Q 365.09 73.25 364.51 73.41
  Q 364.09 73.53 363.89 72.95
  Q 364.10 71.75 363.86 70.68
  A 0.82 0.80 -2.0 0 0 363.18 70.06
  L 353.38 68.74
  A 1.22 1.18 -54.6 0 0 352.62 68.88
  Q 350.35 70.15 350.23 71.57
  Z
  M 392.69 106.15
  L 374.66 122.72
  A 0.50 0.50 0.0 0 0 375.17 123.55
  L 383.81 120.46
  A 4.37 4.37 0.0 0 0 386.11 118.54
  L 393.08 106.47
  A 0.26 0.25 83.9 0 0 392.69 106.15
  Z
  M 297.00 131.09
  L 317.17 138.63
  L 359.19 138.78
  L 382.22 130.35
  A 2.40 2.40 0.0 0 0 383.79 128.10
  L 383.79 125.92
  A 1.08 1.08 0.0 0 0 382.35 124.90
  L 359.27 132.97
  L 318.07 133.08
  L 296.98 125.71
  Q 295.56 124.89 293.92 124.72
  A 0.55 0.55 0.0 0 0 293.31 125.31
  L 293.59 129.12
  A 0.88 0.87 -80.6 0 0 294.11 129.86
  L 297.00 131.09
  Z
  M 297.11 138.65
  L 295.25 160.59
  A 0.75 0.75 0.0 0 0 295.71 161.34
  L 297.74 162.18
  L 301.73 163.61
  Q 302.33 165.71 301.53 165.83
  L 295.35 163.51
  A 0.28 0.27 -77.4 0 0 294.98 163.75
  L 292.65 191.66
  A 0.84 0.84 0.0 0 0 293.05 192.44
  Q 294.20 193.14 295.99 193.40
  L 316.14 201.33
  A 0.27 0.27 0.0 0 0 316.36 201.33
  Q 316.41 201.30 316.47 201.28
  Q 317.24 201.96 317.96 201.75
  Q 327.07 202.63 336.07 201.74
  A 0.84 0.84 0.0 0 0 336.78 201.19
  Q 337.01 200.54 336.89 199.52
  Q 337.41 196.28 339.21 200.90
  A 1.04 1.04 0.0 0 0 339.88 201.50
  Q 342.41 202.20 345.05 202.19
  Q 352.23 202.14 359.52 201.91
  Q 359.37 201.78 360.00 201.48
  L 382.46 193.07
  Q 384.60 192.90 384.39 190.50
  Q 383.28 177.37 382.22 164.20
  A 0.71 0.71 0.0 0 0 381.66 163.57
  Q 380.37 163.28 379.00 164.53
  Q 377.71 164.33 377.98 163.59
  Q 378.16 163.06 379.35 162.09
  Q 380.29 162.22 381.01 162.06
  A 1.23 1.23 0.0 0 0 381.98 160.79
  Q 381.32 150.36 380.24 141.02
  Q 379.99 138.91 379.21 136.64
  Q 378.15 136.10 377.53 136.76
  A 0.63 0.58 69.4 0 0 377.37 137.15
  L 377.20 144.26
  A 0.93 0.91 69.2 0 1 376.92 144.90
  L 370.54 151.12
  A 1.47 1.46 -29.9 0 0 370.15 152.54
  Q 372.52 161.38 372.58 166.88
  Q 372.65 173.63 373.16 178.40
  A 12.15 12.02 31.7 0 0 373.89 181.41
  L 376.02 186.89
  Q 374.22 185.27 372.58 184.78
  A 1.31 1.28 -45.7 0 0 371.78 184.80
  L 366.67 186.63
  Q 365.37 178.37 365.54 170.31
  A 0.78 0.77 -10.0 0 0 364.48 169.57
  Q 355.43 173.18 345.72 171.73
  Q 344.39 171.49 343.61 171.63
  A 0.50 0.50 0.0 0 0 343.21 172.12
  L 343.39 189.57
  Q 343.35 189.65 343.43 190.12
  L 334.17 190.62
  L 333.65 164.36
  L 337.96 158.71
  L 339.60 159.63
  L 340.74 161.03
  L 342.86 164.72
  A 2.48 2.46 30.0 0 1 343.20 165.97
  L 343.20 169.71
  A 0.64 0.63 -5.6 0 0 343.96 170.33
  L 345.74 169.96
  Q 349.38 169.70 353.00 170.26
  Q 353.90 170.40 355.58 169.92
  A 0.65 0.64 80.9 0 0 356.04 169.27
  L 355.04 146.57
  L 354.82 144.43
  A 1.44 1.43 -2.4 0 0 353.40 143.13
  L 324.00 142.91
  A 1.14 0.99 -14.9 0 0 323.84 142.92
  Q 321.37 143.33 318.99 143.31
  Q 316.38 141.88 315.04 141.47
  Q 307.47 139.16 299.94 136.57
  L 298.02 136.05
  A 0.47 0.46 -77.9 0 0 297.44 136.43
  L 297.11 138.65
  Z
  M 357.89 147.30
  L 358.52 168.28
  A 1.03 1.02 81.5 0 0 359.81 169.24
  L 364.31 168.01
  A 1.45 1.45 0.0 0 0 365.38 166.55
  Q 365.07 159.38 368.63 152.86
  A 1.40 1.39 26.8 0 0 367.99 150.93
  L 358.84 146.67
  A 0.67 0.67 0.0 0 0 357.89 147.30
  Z
  M 373.89 210.14
  A 0.18 0.18 0.0 0 0 374.07 210.31
  L 374.63 210.31
  A 0.18 0.18 0.0 0 0 374.81 210.13
  L 374.81 200.34
  A 0.18 0.18 0.0 0 1 374.92 200.17
  L 381.70 197.14
  A 0.18 0.18 0.0 0 1 381.95 197.30
  L 383.09 212.95
  A 0.18 0.18 0.0 0 0 383.33 213.11
  L 385.81 212.23
  A 0.18 0.18 0.0 0 0 385.93 212.04
  L 384.68 194.87
  A 0.18 0.18 0.0 0 0 384.44 194.71
  L 373.19 198.73
  A 0.18 0.18 0.0 0 0 373.07 198.92
  L 373.89 210.14
  Z
  M 294.01 212.94
  L 302.27 216.54
  A 0.46 0.45 18.8 0 0 302.89 216.24
  Q 303.22 215.03 302.90 213.73
  L 303.83 199.46
  A 0.69 0.69 0.0 0 0 303.37 198.77
  L 295.44 196.02
  Q 294.37 195.09 293.00 194.85
  A 0.46 0.46 0.0 0 0 292.45 195.27
  L 291.12 211.24
  A 0.95 0.93 -68.1 0 0 291.45 212.04
  Q 292.51 212.92 294.01 212.94
  Z
  M 304.96 217.69
  Q 309.51 219.83 314.44 221.61
  Q 315.61 222.03 317.02 221.62
  Q 317.27 222.61 318.00 222.42
  Q 328.97 223.20 339.64 222.38
  L 358.03 222.48
  A 0.92 0.91 88.3 0 0 358.95 221.50
  L 357.94 205.72
  Q 358.10 204.33 357.25 204.32
  Q 347.00 204.19 338.09 204.33
  Q 335.34 203.93 334.21 204.53
  L 318.72 204.56
  A 2.54 2.47 55.2 0 1 317.79 204.38
  L 306.41 199.85
  A 0.44 0.44 0.0 0 0 305.81 200.24
  L 304.96 217.69
  Z
  M 291.70 231.67
  L 314.14 241.32
  L 315.53 242.06
  L 344.89 242.23
  A 0.57 0.57 0.0 0 0 345.46 241.67
  Q 345.47 237.89 345.24 236.06
  C 344.89 233.16 345.76 229.25 345.20 225.87
  Q 345.09 225.16 344.44 225.09
  Q 343.85 224.67 343.00 224.67
  Q 329.48 224.64 316.37 224.74
  L 303.43 219.31
  L 301.95 218.92
  L 291.67 214.52
  A 0.43 0.43 0.0 0 0 291.07 214.88
  L 289.84 229.73
  A 1.11 1.10 25.9 0 0 290.15 230.61
  Q 290.73 231.22 291.70 231.67
  Z
  M 383.09 215.77
  L 360.25 224.80
  L 347.94 224.72
  A 0.72 0.71 -0.7 0 0 347.21 225.46
  L 347.69 241.42
  A 0.51 0.50 88.8 0 0 348.19 241.91
  L 349.03 241.90
  L 361.19 241.89
  A 1.23 1.23 0.0 0 0 362.42 240.57
  L 361.44 227.17
  A 0.48 0.47 -17.5 0 1 361.67 226.73
  C 366.91 223.62 373.63 221.20 381.76 218.59
  Q 383.28 218.10 383.79 220.48
  L 385.28 230.66
  A 0.56 0.56 0.0 0 0 385.87 231.13
  L 386.15 231.11
  A 1.16 1.16 0.0 0 0 387.22 229.86
  L 386.13 214.96
  A 0.64 0.64 0.0 0 0 385.15 214.47
  L 383.09 215.77
  Z
  M 281.76 236.79
  Q 280.09 245.45 284.06 245.73
  L 295.24 250.76
  L 311.99 258.02
  L 364.50 258.04
  A 0.62 0.62 0.0 0 0 365.12 257.42
  L 365.12 250.66
  A 0.73 0.69 -65.3 0 0 364.97 250.22
  Q 364.85 250.08 364.78 249.92
  L 364.97 249.80
  L 391.79 238.46
  L 392.15 244.95
  A 0.90 0.90 0.0 0 0 393.53 245.66
  L 394.65 244.96
  A 2.03 2.01 -17.6 0 0 395.59 243.17
  L 395.36 236.71
  Q 394.28 234.06 392.35 232.19
  A 0.46 0.46 0.0 0 0 391.65 232.26
  Q 391.36 232.68 391.19 233.33
  L 362.35 245.68
  L 314.17 245.54
  Q 300.24 239.47 286.53 233.74
  Q 285.67 233.38 285.45 232.22
  A 0.28 0.27 -25.0 0 0 285.00 232.06
  Q 282.54 234.20 281.76 236.79
  Z
  M 267.03 288.33
  C 271.80 291.59 276.81 293.58 282.57 296.59
  C 285.64 298.20 291.01 300.30 294.92 302.86
  Q 296.99 304.22 302.43 306.15
  L 340.96 306.29
  L 373.83 305.97
  A 0.95 0.95 0.0 0 0 374.77 305.01
  L 374.59 293.62
  Q 379.53 281.71 385.60 270.72
  A 1.16 1.15 -61.6 0 0 385.13 269.13
  Q 375.46 264.02 365.29 262.68
  L 363.36 262.79
  L 338.45 262.56
  Q 326.34 261.82 313.99 262.81
  L 284.75 250.70
  Q 284.66 250.68 284.52 250.52
  Q 283.75 249.70 282.82 250.08
  A 1.19 1.16 -85.6 0 0 282.26 250.57
  Q 278.86 256.44 275.57 261.12
  C 272.69 265.23 270.74 269.54 267.50 273.75
  Q 266.44 275.13 266.40 277.25
  Q 266.28 282.89 267.03 288.33
  Z
  M 392.03 251.47
  L 386.23 267.31
  A 0.86 0.86 0.0 0 0 386.73 268.41
  Q 395.96 271.90 405.72 274.08
  Q 406.61 275.09 407.77 275.63
  A 0.46 0.46 0.0 0 1 407.80 276.45
  L 381.97 290.39
  A 0.14 0.14 0.0 0 0 381.95 290.63
  Q 382.10 290.74 382.26 290.66
  Q 387.64 288.18 393.12 286.02
  C 398.35 283.96 402.58 281.53 407.65 279.67
  A 0.67 0.66 79.7 0 1 408.55 280.30
  L 408.55 288.06
  A 0.62 0.62 0.0 0 0 409.57 288.54
  L 409.81 288.34
  A 2.80 2.80 0.0 0 0 410.84 286.17
  L 410.84 276.86
  A 3.23 3.20 29.1 0 0 410.34 275.14
  L 394.97 250.87
  A 0.98 0.93 -88.6 0 0 394.78 250.66
  Q 392.86 249.18 392.03 251.47
  Z
  M 260.68 295.23
  Q 260.35 301.10 260.60 306.89
  C 260.67 308.64 261.43 309.12 263.07 309.22
  L 277.71 317.33
  L 298.60 328.54
  L 338.01 328.62
  L 377.19 328.33
  A 0.59 0.58 -86.1 0 0 377.77 327.82
  Q 378.58 321.57 377.72 315.06
  L 415.11 295.94
  A 1.64 1.63 62.7 0 0 415.81 293.73
  Q 415.05 292.27 413.98 291.61
  A 1.08 1.04 49.9 0 0 413.05 291.51
  C 407.99 293.33 402.92 296.57 398.08 298.91
  Q 386.12 304.67 376.14 310.13
  Q 375.62 310.41 374.57 310.33
  L 337.96 310.32
  L 300.98 310.35
  L 263.94 291.34
  A 0.76 0.75 -51.6 0 0 263.12 291.44
  Q 261.34 292.98 260.68 295.23
  Z"
/>
<path d="
  M 308.31 152.50
  Q 312.62 159.92 312.19 167.00
  Q 312.15 167.66 312.55 167.64
  Q 312.45 168.92 312.02 169.63
  Q 311.60 170.97 311.75 172.48
  L 310.97 187.24
  Q 306.66 184.39 303.41 185.25
  L 304.91 159.25
  A 2.16 2.14 61.4 0 1 305.17 158.35
  L 308.31 152.50
  Z"
/>
</g>
<g fill="#a09063">
<path d="
  M 328.86 58.01
  L 328.86 70.88
  A 0.38 0.38 0.0 0 1 328.52 71.26
  L 314.19 73.18
  A 0.53 0.53 0.0 0 1 313.59 72.63
  L 313.68 71.01
  A 1.12 1.12 0.0 0 1 314.65 69.96
  L 325.16 68.55
  A 0.37 0.36 -3.6 0 0 325.48 68.19
  L 325.62 55.36
  L 328.86 58.01
  Z"
/>
<path d="
  M 379.15 75.16
  Q 379.74 75.20 379.89 75.47
  L 379.79 91.28
  Q 379.58 91.47 379.40 91.98
  Q 379.34 91.88 379.28 91.77
  Q 379.31 91.34 377.79 90.73
  Q 378.24 90.78 378.46 90.54
  Q 378.81 90.17 378.41 89.84
  Q 374.56 86.64 370.65 82.97
  L 370.86 72.86
  L 379.15 75.16
  Z"
/>
<path d="
  M 338.41 80.92
  L 338.51 115.76
  A 0.66 0.65 -60.0 0 1 337.29 116.09
  L 325.98 96.51
  A 0.40 0.40 0.0 0 0 325.29 96.49
  Q 320.95 103.28 318.55 106.95
  Q 318.27 107.38 315.57 112.07
  Q 314.05 114.69 311.98 116.80
  L 311.90 95.34
  A 0.72 0.71 7.4 0 0 311.36 94.65
  L 299.05 91.36
  L 307.61 88.03
  A 1.69 1.67 -49.2 0 1 308.59 87.95
  L 318.69 90.10
  L 313.41 94.03
  A 0.28 0.28 0.0 0 0 313.55 94.53
  L 322.14 95.46
  Q 325.33 96.98 325.69 95.02
  L 328.28 81.46
  A 0.76 0.75 -84.4 0 1 329.02 80.85
  L 338.41 80.92
  Z"
/>
<path d="
  M 298.21 91.46
  Q 297.23 92.54 298.09 93.68
  Q 302.14 99.03 305.10 105.76
  A 7.88 7.83 15.4 0 0 305.94 107.23
  C 307.68 109.67 310.89 113.69 310.83 116.77
  L 297.44 112.16
  L 297.38 93.04
  A 0.68 0.66 -85.3 0 0 296.84 92.39
  Q 296.65 92.35 296.41 92.34
  Q 297.03 91.49 297.24 90.20
  Q 297.52 91.61 298.21 91.46
  Z"
/>
<path d="
  M 359.27 132.97
  L 359.19 138.78
  L 317.17 138.63
  L 318.07 133.08
  L 359.27 132.97
  Z"
/>
<path d="
  M 319.19 147.57
  L 318.76 169.11
  A 0.38 0.38 0.0 0 1 318.27 169.46
  L 312.55 167.64
  Q 312.15 167.66 312.19 167.00
  Q 312.62 159.92 308.31 152.50
  Q 312.55 148.98 319.19 147.57
  Z"
/>
<path d="
  M 345.74 169.96
  L 343.96 170.33
  A 0.64 0.63 -5.6 0 1 343.20 169.71
  L 343.20 165.97
  A 2.48 2.46 30.0 0 0 342.86 164.72
  L 340.74 161.03
  Q 340.87 160.50 341.21 160.59
  A 0.68 0.65 -12.4 0 1 341.47 160.75
  L 345.18 164.61
  A 2.13 2.10 17.1 0 1 345.71 165.59
  Q 346.20 167.76 345.74 169.96
  Z"
/>
<path d="
  M 301.82 166.28
  Q 301.87 166.69 301.95 167.10
  Q 302.03 167.53 301.99 167.92
  Q 300.82 177.64 301.07 186.00
  Q 301.09 186.62 301.77 186.57
  L 301.65 186.90
  A 0.56 0.56 0.0 0 0 302.01 187.63
  L 310.47 190.07
  A 0.38 0.37 89.1 0 0 310.93 189.59
  Q 310.38 187.95 310.97 187.24
  L 311.75 172.48
  Q 314.29 171.77 317.22 173.55
  A 1.00 1.00 0.0 0 1 317.69 174.45
  L 316.47 201.28
  Q 316.41 201.30 316.36 201.33
  A 0.27 0.27 0.0 0 1 316.14 201.33
  L 295.99 193.40
  Q 295.64 189.67 296.07 186.10
  Q 296.85 179.59 296.86 179.51
  Q 297.41 171.29 297.70 166.69
  A 0.50 0.50 0.0 0 1 298.36 166.25
  Q 299.70 166.67 301.12 167.11
  Q 301.53 167.24 301.75 166.94
  Q 301.94 166.69 301.82 166.28
  Z"
/>
<path d="
  M 345.72 171.73
  L 346.09 180.43
  Q 345.88 180.08 345.68 179.73
  L 343.39 189.57
  L 343.21 172.12
  A 0.50 0.50 0.0 0 1 343.61 171.63
  Q 344.39 171.49 345.72 171.73
  Z"
/>
<path d="
  M 343.43 190.12
  Q 344.52 191.62 345.10 193.71
  L 336.52 194.00
  Q 334.61 193.66 332.73 194.05
  Q 332.11 194.17 332.02 193.53
  Q 333.54 192.52 334.17 190.62
  L 343.43 190.12
  Z"
/>
<path d="
  M 311.47 249.40
  Q 312.14 249.68 312.07 249.94
  L 311.99 258.02
  L 295.24 250.76
  L 295.42 242.54
  L 311.47 249.40
  Z"
/>
<path d="
  M 339.27 272.65
  L 372.79 293.13
  A 0.35 0.35 0.0 0 1 372.75 293.75
  Q 372.43 293.89 371.72 293.85
  C 355.73 294.04 339.32 294.97 323.80 294.95
  Q 313.68 294.94 303.40 294.91
  Q 303.95 294.85 303.78 294.44
  A 0.24 0.22 -87.4 0 0 303.68 294.32
  Q 302.79 293.78 303.18 293.33
  Q 303.29 294.63 305.09 293.43
  L 337.85 293.34
  A 0.55 0.54 90.0 0 0 338.39 292.79
  L 338.37 273.28
  L 339.27 272.65
  Z"
/>
<path d="
  M 262.43 295.94
  L 263.07 309.22
  C 261.43 309.12 260.67 308.64 260.60 306.89
  Q 260.35 301.10 260.68 295.23
  L 262.43 295.94
  Z"
/>
<path d="
  M 374.57 310.33
  Q 376.81 311.35 376.88 314.91
  L 338.01 314.91
  Q 338.01 315.19 337.78 314.91
  Q 338.25 312.63 337.96 310.32
  L 374.57 310.33
  Z"
/>
</g>
<g fill="#466369">
<path d="
  M 367.59 58.42
  Q 373.80 61.49 380.16 62.69
  Q 380.32 63.45 379.84 64.32
  A 1.38 1.36 -87.7 0 1 379.20 64.92
  L 367.50 70.16
  A 0.26 0.26 0.0 0 1 367.14 69.91
  L 367.59 58.42
  Z"
/>
<path d="
  M 297.47 62.53
  Q 296.98 64.52 295.76 64.57
  Q 291.45 64.71 287.08 64.90
  A 0.67 0.66 83.0 0 1 286.40 64.36
  L 285.96 62.03
  L 297.47 62.53
  Z"
/>
<path d="
  M 391.50 101.45
  L 391.92 70.07
  Q 393.57 69.75 394.26 69.01
  L 394.71 102.96
  A 0.95 0.95 0.0 0 1 393.37 103.84
  Q 392.16 103.30 391.50 101.45
  Z"
/>
<path d="
  M 351.48 80.79
  L 351.53 95.02
  L 338.90 117.11
  A 1.18 1.18 0.0 0 1 337.87 117.71
  L 312.92 117.71
  A 0.58 0.58 0.0 0 0 312.40 118.55
  L 317.49 129.12
  L 303.47 124.32
  Q 306.88 121.37 310.23 119.25
  Q 311.40 118.52 311.22 117.25
  Q 312.02 117.25 311.98 116.80
  Q 314.05 114.69 315.57 112.07
  Q 318.27 107.38 318.55 106.95
  Q 320.95 103.28 325.29 96.49
  A 0.40 0.40 0.0 0 1 325.98 96.51
  L 337.29 116.09
  A 0.66 0.65 -60.0 0 0 338.51 115.76
  L 338.41 80.92
  L 351.48 80.79
  Z"
/>
<path d="
  M 379.21 136.64
  Q 379.99 138.91 380.24 141.02
  Q 381.32 150.36 381.98 160.79
  A 1.23 1.23 0.0 0 1 381.01 162.06
  Q 380.29 162.22 379.35 162.09
  Q 378.68 161.63 378.61 160.75
  Q 377.91 151.14 377.49 141.51
  Q 377.27 136.58 379.21 136.64
  Z"
/>
<path d="
  M 337.96 158.71
  L 333.65 164.36
  Q 331.62 165.97 331.16 168.96
  A 0.72 0.71 2.0 0 1 330.50 169.57
  L 321.66 170.22
  A 1.16 1.16 0.0 0 1 320.41 168.99
  L 321.51 148.71
  A 0.70 0.69 -88.2 0 1 322.20 148.05
  L 337.77 148.05
  A 0.93 0.92 -87.7 0 1 338.69 149.05
  L 337.96 158.71
  Z"
/>
<path d="
  M 382.46 193.07
  Q 382.02 193.24 381.67 193.13
  Q 381.34 193.02 381.30 192.53
  Q 380.07 178.56 379.00 164.53
  Q 380.37 163.28 381.66 163.57
  A 0.71 0.71 0.0 0 1 382.22 164.20
  Q 383.28 177.37 384.39 190.50
  Q 384.60 192.90 382.46 193.07
  Z"
/>
<path d="
  M 360.00 201.48
  Q 359.37 201.78 359.52 201.91
  L 345.81 194.13
  Q 346.57 187.57 345.68 179.73
  Q 345.88 180.08 346.09 180.43
  Q 345.67 183.05 348.17 178.93
  A 2.89 2.84 -88.3 0 1 349.20 177.94
  L 357.69 173.03
  A 0.77 0.77 0.0 0 1 358.84 173.66
  L 360.00 201.48
  Z"
/>
<path d="
  M 331.15 173.71
  Q 331.53 174.33 331.48 175.26
  Q 331.06 184.03 331.40 192.79
  Q 331.42 193.33 332.02 193.53
  Q 332.11 194.17 332.73 194.05
  Q 334.61 193.66 336.52 194.00
  L 336.89 199.52
  Q 337.01 200.54 336.78 201.19
  A 0.84 0.84 0.0 0 1 336.07 201.74
  Q 327.07 202.63 317.96 201.75
  L 319.11 174.35
  A 0.58 0.58 0.0 0 1 319.69 173.79
  L 331.15 173.71
  Z"
/>
<path d="
  M 373.89 210.14
  L 373.07 198.92
  A 0.18 0.18 0.0 0 1 373.19 198.73
  L 384.44 194.71
  A 0.18 0.18 0.0 0 1 384.68 194.87
  L 385.93 212.04
  A 0.18 0.18 0.0 0 1 385.81 212.23
  L 383.33 213.11
  A 0.18 0.18 0.0 0 1 383.09 212.95
  L 381.95 197.30
  A 0.18 0.18 0.0 0 0 381.70 197.14
  L 374.92 200.17
  A 0.18 0.18 0.0 0 0 374.81 200.34
  L 374.81 210.13
  A 0.18 0.18 0.0 0 1 374.63 210.31
  L 374.07 210.31
  A 0.18 0.18 0.0 0 1 373.89 210.14
  Z"
/>
<path d="
  M 302.90 213.73
  Q 303.22 215.03 302.89 216.24
  A 0.46 0.45 18.8 0 1 302.27 216.54
  L 294.01 212.94
  L 295.13 199.15
  Q 297.27 200.62 298.01 203.12
  Q 299.86 209.40 302.90 213.73
  Z"
/>
<path d="
  M 317.02 221.62
  Q 315.61 222.03 314.44 221.61
  Q 309.51 219.83 304.96 217.69
  Q 306.92 210.66 307.22 204.12
  A 1.02 1.01 9.5 0 1 308.52 203.20
  L 315.81 205.30
  A 1.93 1.93 0.0 0 1 317.20 207.18
  L 317.02 221.62
  Z"
/>
<path d="
  M 383.79 220.48
  L 383.09 215.77
  L 385.15 214.47
  A 0.64 0.64 0.0 0 1 386.13 214.96
  L 387.22 229.86
  A 1.16 1.16 0.0 0 1 386.15 231.11
  L 385.87 231.13
  A 0.56 0.56 0.0 0 1 385.28 230.66
  L 383.79 220.48
  Z"
/>
<path d="
  M 301.95 218.92
  L 303.43 219.31
  Q 303.48 221.61 304.80 223.71
  Q 310.03 232.02 314.14 241.32
  L 291.70 231.67
  L 292.44 228.31
  L 295.12 225.01
  A 6.24 6.18 0.3 0 1 296.11 224.04
  Q 298.42 222.21 300.25 220.01
  Q 301.42 219.87 301.95 218.92
  Z"
/>
<path d="
  M 344.44 225.09
  Q 344.87 226.57 343.75 226.59
  Q 337.29 226.65 336.65 226.69
  A 6.25 6.22 24.1 0 0 333.12 228.03
  C 327.23 232.73 321.88 237.50 316.17 240.37
  L 316.37 224.74
  Q 329.48 224.64 343.00 224.67
  Q 343.85 224.67 344.44 225.09
  Z"
/>
<path d="
  M 285.37 238.24
  L 295.42 242.54
  L 295.24 250.76
  L 284.06 245.73
  Q 284.10 241.64 285.37 238.24
  Z"
/>
<path d="
  M 405.72 274.08
  L 392.03 251.47
  Q 392.86 249.18 394.78 250.66
  A 0.98 0.93 -88.6 0 1 394.97 250.87
  L 410.34 275.14
  A 3.23 3.20 29.1 0 1 410.84 276.86
  L 410.84 286.17
  A 2.80 2.80 0.0 0 1 409.81 288.34
  L 409.57 288.54
  A 0.62 0.62 0.0 0 1 408.55 288.06
  L 408.55 280.30
  A 0.67 0.66 79.7 0 0 407.65 279.67
  C 402.58 281.53 398.35 283.96 393.12 286.02
  Q 387.64 288.18 382.26 290.66
  Q 382.10 290.74 381.95 290.63
  A 0.14 0.14 0.0 0 1 381.97 290.39
  L 407.80 276.45
  A 0.46 0.46 0.0 0 0 407.77 275.63
  Q 406.61 275.09 405.72 274.08
  Z"
/>
<path d="
  M 293.17 290.00
  Q 296.77 292.99 301.51 292.54
  L 301.78 303.98
  A 0.35 0.35 0.0 0 0 302.05 304.31
  Q 302.32 304.36 302.44 304.24
  Q 302.82 305.09 302.43 306.15
  Q 296.99 304.22 294.92 302.86
  C 291.01 300.30 285.64 298.20 282.57 296.59
  C 276.81 293.58 271.80 291.59 267.03 288.33
  L 267.62 279.74
  A 0.68 0.68 0.0 0 1 268.58 279.16
  L 293.17 290.00
  Z"
/>
</g>
<g fill="#edd693">
<path d="
  M 339.36 55.03
  Q 339.46 58.07 338.00 57.98
  L 336.45 58.08
  L 328.86 58.01
  L 325.62 55.36
  Q 332.54 54.46 339.36 55.03
  Z"
/>
<path d="
  M 297.47 62.53
  L 285.96 62.03
  L 300.69 57.44
  A 1.73 1.64 38.4 0 1 301.37 57.38
  L 308.14 58.30
  A 0.31 0.31 0.0 0 1 308.19 58.90
  L 297.47 62.53
  Z"
/>
<path d="
  M 305.24 72.57
  Q 300.76 73.56 297.05 76.01
  L 286.18 71.79
  A 0.41 0.41 0.0 0 0 285.63 72.17
  L 285.54 101.90
  Q 284.48 103.33 283.02 104.31
  L 282.63 69.02
  A 0.46 0.46 0.0 0 1 283.07 68.55
  L 295.78 67.90
  A 2.17 2.05 52.3 0 1 296.68 68.04
  L 305.84 71.49
  A 0.33 0.32 36.4 0 1 305.93 72.05
  L 305.24 72.57
  Z"
/>
<path d="
  M 374.99 70.25
  Q 376.65 72.67 379.58 73.57
  A 0.91 0.91 0.0 0 1 380.01 75.02
  Q 379.97 75.07 379.15 75.16
  L 370.86 72.86
  Q 370.54 72.03 371.69 71.47
  Q 373.29 70.70 374.99 70.25
  Z"
/>
<path d="
  M 351.48 80.79
  L 338.41 80.92
  L 329.02 80.85
  A 0.76 0.75 -84.4 0 0 328.28 81.46
  L 325.69 95.02
  L 325.68 80.12
  A 1.61 1.55 -27.1 0 1 326.01 79.16
  L 328.65 75.76
  A 1.57 1.54 -70.9 0 1 329.88 75.15
  L 347.37 75.15
  A 1.34 1.34 0.0 0 1 348.37 75.60
  Q 350.51 78.00 351.48 80.79
  Z"
/>
<path d="
  M 322.14 95.46
  L 313.55 94.53
  A 0.28 0.28 0.0 0 1 313.41 94.03
  L 318.69 90.10
  L 321.50 90.35
  A 0.61 0.61 0.0 0 1 322.05 90.95
  L 322.14 95.46
  Z"
/>
<path d="
  M 299.05 91.36
  L 311.36 94.65
  A 0.72 0.71 7.4 0 1 311.90 95.34
  L 311.98 116.80
  Q 312.02 117.25 311.22 117.25
  Q 310.91 117.00 310.83 116.77
  C 310.89 113.69 307.68 109.67 305.94 107.23
  A 7.88 7.83 15.4 0 1 305.10 105.76
  Q 302.14 99.03 298.09 93.68
  Q 297.23 92.54 298.21 91.46
  L 299.05 91.36
  Z"
/>
<path d="
  M 296.98 125.71
  Q 296.19 128.08 296.60 128.97
  Q 297.09 130.07 297.00 131.09
  L 294.11 129.86
  A 0.88 0.87 -80.6 0 1 293.59 129.12
  L 293.31 125.31
  A 0.55 0.55 0.0 0 1 293.92 124.72
  Q 295.56 124.89 296.98 125.71
  Z"
/>
<path d="
  M 297.74 162.18
  L 295.71 161.34
  A 0.75 0.75 0.0 0 1 295.25 160.59
  L 297.11 138.65
  Q 299.77 141.05 299.78 142.99
  Q 299.80 149.02 297.74 162.18
  Z"
/>
<path d="
  M 301.53 165.83
  L 301.82 166.28
  Q 301.94 166.69 301.75 166.94
  Q 301.53 167.24 301.12 167.11
  Q 299.70 166.67 298.36 166.25
  A 0.50 0.50 0.0 0 0 297.70 166.69
  Q 297.41 171.29 296.86 179.51
  Q 296.85 179.59 296.07 186.10
  Q 295.64 189.67 295.99 193.40
  Q 294.20 193.14 293.05 192.44
  A 0.84 0.84 0.0 0 1 292.65 191.66
  L 294.98 163.75
  A 0.28 0.27 -77.4 0 1 295.35 163.51
  L 301.53 165.83
  Z"
/>
<path d="
  M 312.02 169.63
  L 318.90 171.93
  A 3.71 3.69 54.1 0 0 320.07 172.12
  L 330.43 172.12
  A 0.75 0.74 1.1 0 1 331.18 172.89
  L 331.15 173.71
  L 319.69 173.79
  A 0.58 0.58 0.0 0 0 319.11 174.35
  L 317.96 201.75
  Q 317.24 201.96 316.47 201.28
  L 317.69 174.45
  A 1.00 1.00 0.0 0 0 317.22 173.55
  Q 314.29 171.77 311.75 172.48
  Q 311.60 170.97 312.02 169.63
  Z"
/>
<path d="
  M 345.68 179.73
  Q 346.57 187.57 345.81 194.13
  L 345.10 193.71
  Q 344.52 191.62 343.43 190.12
  Q 343.35 189.65 343.39 189.57
  L 345.68 179.73
  Z"
/>
<path d="
  M 310.97 187.24
  Q 310.38 187.95 310.93 189.59
  A 0.38 0.37 89.1 0 1 310.47 190.07
  L 302.01 187.63
  A 0.56 0.56 0.0 0 1 301.65 186.90
  L 301.77 186.57
  Q 303.11 185.92 303.41 185.25
  Q 306.66 184.39 310.97 187.24
  Z"
/>
<path d="
  M 295.44 196.02
  Q 294.91 198.54 295.13 199.15
  L 294.01 212.94
  Q 292.51 212.92 291.45 212.04
  A 0.95 0.93 -68.1 0 1 291.12 211.24
  L 292.45 195.27
  A 0.46 0.46 0.0 0 1 293.00 194.85
  Q 294.37 195.09 295.44 196.02
  Z"
/>
<path d="
  M 334.21 204.53
  L 334.58 205.13
  A 0.44 0.44 0.0 0 1 334.22 205.81
  L 319.13 206.31
  L 318.00 222.42
  Q 317.27 222.61 317.02 221.62
  L 317.20 207.18
  A 1.93 1.93 0.0 0 0 315.81 205.30
  L 308.52 203.20
  A 1.02 1.01 9.5 0 0 307.22 204.12
  Q 306.92 210.66 304.96 217.69
  L 305.81 200.24
  A 0.44 0.44 0.0 0 1 306.41 199.85
  L 317.79 204.38
  A 2.54 2.47 55.2 0 0 318.72 204.56
  L 334.21 204.53
  Z"
/>
<path d="
  M 301.95 218.92
  Q 301.42 219.87 300.25 220.01
  L 293.78 217.92
  A 0.43 0.43 0.0 0 0 293.22 218.30
  L 292.44 228.31
  L 291.70 231.67
  Q 290.73 231.22 290.15 230.61
  A 1.11 1.10 25.9 0 1 289.84 229.73
  L 291.07 214.88
  A 0.43 0.43 0.0 0 1 291.67 214.52
  L 301.95 218.92
  Z"
/>
<path d="
  M 314.17 245.54
  Q 313.45 248.12 311.47 249.40
  L 295.42 242.54
  L 285.37 238.24
  Q 284.21 237.29 281.76 236.79
  Q 282.54 234.20 285.00 232.06
  A 0.28 0.27 -25.0 0 1 285.45 232.22
  Q 285.67 233.38 286.53 233.74
  Q 300.24 239.47 314.17 245.54
  Z"
/>
<path d="
  M 284.52 250.52
  Q 284.72 251.79 284.08 252.41
  A 1.75 0.36 -38.9 0 0 283.47 253.15
  L 278.15 264.59
  A 3.90 3.80 -12.3 0 1 277.49 265.59
  C 275.11 268.23 272.65 270.27 273.66 273.39
  L 268.82 275.37
  A 0.77 0.77 0.0 0 0 268.75 276.76
  Q 279.23 282.34 289.83 287.66
  Q 291.60 288.54 293.17 290.00
  L 268.58 279.16
  A 0.68 0.68 0.0 0 0 267.62 279.74
  L 267.03 288.33
  Q 266.28 282.89 266.40 277.25
  Q 266.44 275.13 267.50 273.75
  C 270.74 269.54 272.69 265.23 275.57 261.12
  Q 278.86 256.44 282.26 250.57
  A 1.19 1.16 -85.6 0 1 282.82 250.08
  Q 283.75 249.70 284.52 250.52
  Z"
/>
<path d="
  M 303.18 293.33
  Q 302.79 293.78 303.68 294.32
  A 0.24 0.22 -87.4 0 1 303.78 294.44
  Q 303.95 294.85 303.40 294.91
  L 302.44 304.24
  Q 302.32 304.36 302.05 304.31
  A 0.35 0.35 0.0 0 1 301.78 303.98
  L 301.51 292.54
  L 291.07 269.26
  A 1.17 1.17 0.0 0 1 291.83 267.65
  L 310.26 262.64
  A 0.85 0.85 0.0 0 1 311.31 263.69
  L 303.18 293.33
  Z"
/>
<path d="
  M 300.98 310.35
  Q 300.32 312.70 298.28 314.33
  L 278.61 304.33
  L 262.43 295.94
  L 260.68 295.23
  Q 261.34 292.98 263.12 291.44
  A 0.76 0.75 -51.6 0 1 263.94 291.34
  L 300.98 310.35
  Z"
/>
</g>
<g fill="#738173">
<rect x="-1.06" y="-2.02" transform="translate(314.88,64.08) rotate(2.7)" width="2.12" height="4.04" rx="0.70"/>
<path d="
  M 361.29 66.07
  A 0.57 0.57 0.0 0 1 360.73 65.49
  L 360.74 65.17
  A 3.23 1.04 -89.3 0 1 361.82 61.95
  L 362.84 61.97
  A 3.23 1.04 -89.3 0 1 363.84 65.21
  L 363.83 65.53
  A 0.57 0.57 0.0 0 1 363.25 66.09
  L 361.29 66.07
  Z"
/>
<path d="
  M 363.89 72.95
  Q 363.57 73.71 363.06 73.52
  Q 362.72 73.39 362.66 73.38
  Q 356.76 72.36 350.23 71.57
  Q 350.35 70.15 352.62 68.88
  A 1.22 1.18 -54.6 0 1 353.38 68.74
  L 363.18 70.06
  A 0.82 0.80 -2.0 0 1 363.86 70.68
  Q 364.10 71.75 363.89 72.95
  Z"
/>
<path d="
  M 296.41 92.34
  Q 296.65 92.35 296.84 92.39
  A 0.68 0.66 -85.3 0 1 297.38 93.04
  L 297.44 112.16
  Q 293.68 110.65 290.25 108.25
  Q 288.53 107.05 283.57 105.71
  Q 282.98 105.00 283.02 104.31
  Q 284.48 103.33 285.54 101.90
  L 296.41 92.34
  Z"
/>
<path d="
  M 319.00 147.41
  Q 319.10 147.49 319.19 147.57
  Q 312.55 148.98 308.31 152.50
  L 305.17 158.35
  A 2.16 2.14 61.4 0 0 304.91 159.25
  L 303.41 185.25
  Q 303.11 185.92 301.77 186.57
  Q 301.09 186.62 301.07 186.00
  Q 300.82 177.64 301.99 167.92
  Q 302.03 167.53 301.95 167.10
  Q 301.87 166.69 301.82 166.28
  L 301.53 165.83
  Q 302.33 165.71 301.73 163.61
  Q 301.98 158.95 302.94 157.72
  Q 307.13 152.33 307.15 152.30
  A 0.61 0.61 0.0 0 0 307.05 151.49
  Q 305.06 149.78 303.49 146.67
  A 3.40 3.08 11.2 0 0 302.86 145.82
  L 300.55 143.57
  A 1.83 1.76 -76.4 0 1 300.07 142.75
  Q 299.68 141.37 299.90 140.50
  Q 302.54 142.42 306.97 143.22
  A 1.71 1.34 52.0 0 1 307.21 143.28
  L 319.00 147.41
  Z"
/>
<path d="
  M 302.90 213.73
  Q 299.86 209.40 298.01 203.12
  Q 297.27 200.62 295.13 199.15
  Q 294.91 198.54 295.44 196.02
  L 303.37 198.77
  A 0.69 0.69 0.0 0 1 303.83 199.46
  L 302.90 213.73
  Z"
/>
<path d="
  M 338.09 204.33
  L 338.25 220.62
  A 0.52 0.52 0.0 0 1 337.40 221.03
  L 319.13 206.31
  L 334.22 205.81
  A 0.44 0.44 0.0 0 0 334.58 205.13
  L 334.21 204.53
  Q 335.34 203.93 338.09 204.33
  Z"
/>
<path d="
  M 303.43 219.31
  L 316.37 224.74
  L 316.17 240.37
  Q 316.36 241.37 315.53 242.06
  L 314.14 241.32
  Q 310.03 232.02 304.80 223.71
  Q 303.48 221.61 303.43 219.31
  Z"
/>
<path d="
  M 313.99 262.81
  Q 321.61 266.38 329.11 268.38
  Q 331.69 269.07 339.27 272.65
  L 338.37 273.28
  Q 337.15 272.91 336.05 273.56
  Q 328.40 278.08 313.17 287.43
  Q 313.04 287.51 310.34 288.99
  Q 307.33 290.63 305.09 293.43
  Q 303.29 294.63 303.18 293.33
  L 311.31 263.69
  A 0.85 0.85 0.0 0 0 310.26 262.64
  L 291.83 267.65
  A 1.17 1.17 0.0 0 0 291.07 269.26
  L 301.51 292.54
  Q 296.77 292.99 293.17 290.00
  Q 291.60 288.54 289.83 287.66
  Q 279.23 282.34 268.75 276.76
  A 0.77 0.77 0.0 0 1 268.82 275.37
  L 273.66 273.39
  L 290.01 268.03
  A 0.52 0.51 -22.1 0 0 290.32 267.32
  Q 287.46 261.14 285.07 252.54
  Q 284.83 251.69 284.75 250.70
  L 313.99 262.81
  Z"
/>
<path d="
  M 298.28 314.33
  Q 298.34 314.77 299.12 314.93
  L 298.60 328.54
  L 277.71 317.33
  L 278.61 304.33
  L 298.28 314.33
  Z"
/>
</g>
<g fill="#233c54">
<path d="
  M 391.92 70.07
  L 391.50 101.45
  L 379.79 91.28
  L 379.89 75.47
  L 391.92 70.07
  Z"
/>
<path d="
  M 350.23 71.57
  Q 356.76 72.36 362.66 73.38
  Q 362.72 73.39 363.06 73.52
  Q 363.57 73.71 363.89 72.95
  Q 364.09 73.53 364.51 73.41
  Q 365.09 73.25 365.11 73.24
  A 1.31 1.31 0.0 0 1 367.31 74.17
  L 367.49 84.35
  A 1.19 1.19 0.0 0 1 366.54 85.54
  L 356.03 87.65
  A 0.57 0.57 0.0 0 1 355.34 87.08
  C 355.44 82.77 354.99 79.65 352.78 75.86
  Q 351.58 73.80 350.23 71.57
  Z"
/>
<path d="
  M 305.24 72.57
  Q 306.53 78.48 306.17 84.44
  A 1.58 1.56 -16.2 0 1 305.50 85.64
  Q 301.65 88.34 297.26 87.55
  L 297.05 76.01
  Q 300.76 73.56 305.24 72.57
  Z"
/>
<path d="
  M 379.28 91.77
  Q 379.34 91.88 379.40 91.98
  C 379.40 98.62 380.15 104.92 379.47 111.59
  A 0.84 0.82 -7.4 0 1 378.92 112.29
  L 364.50 117.45
  A 5.58 5.34 33.9 0 1 362.65 117.77
  L 339.27 117.77
  A 1.00 1.00 0.0 0 0 338.27 118.80
  L 338.57 128.59
  A 0.69 0.68 -0.8 0 1 337.88 129.29
  L 317.49 129.12
  L 312.40 118.55
  A 0.58 0.58 0.0 0 1 312.92 117.71
  L 337.87 117.71
  A 1.18 1.18 0.0 0 0 338.90 117.11
  L 351.53 95.02
  Q 356.63 105.31 364.14 115.05
  A 0.40 0.40 0.0 0 0 364.86 114.82
  Q 365.10 108.98 365.02 100.04
  Q 365.00 97.72 366.38 95.89
  A 0.35 0.34 24.1 0 0 366.17 95.35
  L 364.46 94.97
  Q 364.61 94.94 364.82 94.65
  L 379.28 91.77
  Z"
/>
<path d="
  M 297.44 112.16
  L 310.83 116.77
  Q 310.91 117.00 311.22 117.25
  Q 311.40 118.52 310.23 119.25
  Q 306.88 121.37 303.47 124.32
  Q 302.71 124.29 301.02 123.31
  Q 294.44 114.65 285.51 109.09
  Q 284.06 108.00 283.57 105.71
  Q 288.53 107.05 290.25 108.25
  Q 293.68 110.65 297.44 112.16
  Z"
/>
<path d="
  M 379.21 136.64
  Q 377.27 136.58 377.49 141.51
  Q 377.91 151.14 378.61 160.75
  Q 378.68 161.63 379.35 162.09
  Q 378.16 163.06 377.98 163.59
  Q 377.71 164.33 379.00 164.53
  Q 380.07 178.56 381.30 192.53
  Q 381.34 193.02 381.67 193.13
  Q 382.02 193.24 382.46 193.07
  L 360.00 201.48
  L 358.84 173.66
  A 0.77 0.77 0.0 0 0 357.69 173.03
  L 349.20 177.94
  A 2.89 2.84 -88.3 0 0 348.17 178.93
  Q 345.67 183.05 346.09 180.43
  L 345.72 171.73
  Q 355.43 173.18 364.48 169.57
  A 0.78 0.77 -10.0 0 1 365.54 170.31
  Q 365.37 178.37 366.67 186.63
  Q 366.11 188.08 366.40 189.81
  A 0.50 0.50 0.0 0 0 367.07 190.20
  L 376.02 186.89
  L 373.89 181.41
  A 12.15 12.02 31.7 0 1 373.16 178.40
  Q 372.65 173.63 372.58 166.88
  Q 372.52 161.38 370.15 152.54
  A 1.47 1.46 -29.9 0 1 370.54 151.12
  L 376.92 144.90
  A 0.93 0.91 69.2 0 0 377.20 144.26
  L 377.37 137.15
  A 0.63 0.58 69.4 0 1 377.53 136.76
  Q 378.15 136.10 379.21 136.64
  Z"
/>
<path d="
  M 355.04 146.57
  Q 351.18 150.00 345.19 153.92
  Q 341.98 156.01 339.60 159.63
  L 337.96 158.71
  L 338.69 149.05
  A 0.93 0.92 -87.7 0 0 337.77 148.05
  L 322.20 148.05
  A 0.70 0.69 -88.2 0 0 321.51 148.71
  L 320.41 168.99
  A 1.16 1.16 0.0 0 0 321.66 170.22
  L 330.50 169.57
  A 0.72 0.71 2.0 0 0 331.16 168.96
  Q 331.62 165.97 333.65 164.36
  L 334.17 190.62
  Q 333.54 192.52 332.02 193.53
  Q 331.42 193.33 331.40 192.79
  Q 331.06 184.03 331.48 175.26
  Q 331.53 174.33 331.15 173.71
  L 331.18 172.89
  A 0.75 0.74 1.1 0 0 330.43 172.12
  L 320.07 172.12
  A 3.71 3.69 54.1 0 1 318.90 171.93
  L 312.02 169.63
  Q 312.45 168.92 312.55 167.64
  L 318.27 169.46
  A 0.38 0.38 0.0 0 0 318.76 169.11
  L 319.19 147.57
  Q 319.10 147.49 319.00 147.41
  L 318.99 143.31
  Q 321.37 143.33 323.84 142.92
  A 1.14 0.99 -14.9 0 1 324.00 142.91
  L 353.40 143.13
  A 1.44 1.43 -2.4 0 1 354.82 144.43
  L 355.04 146.57
  Z"
/>
<path d="
  M 357.89 147.30
  A 0.67 0.67 0.0 0 1 358.84 146.67
  L 367.99 150.93
  A 1.40 1.39 26.8 0 1 368.63 152.86
  Q 365.07 159.38 365.38 166.55
  A 1.45 1.45 0.0 0 1 364.31 168.01
  L 359.81 169.24
  A 1.03 1.02 81.5 0 1 358.52 168.28
  L 357.89 147.30
  Z"
/>
<path d="
  M 357.94 205.72
  L 358.95 221.50
  A 0.92 0.91 88.3 0 1 358.03 222.48
  L 339.64 222.38
  C 345.34 216.04 351.56 211.18 357.94 205.72
  Z"
/>
<path d="
  M 383.09 215.77
  L 383.79 220.48
  Q 383.28 218.10 381.76 218.59
  C 373.63 221.20 366.91 223.62 361.67 226.73
  A 0.48 0.47 -17.5 0 0 361.44 227.17
  L 362.42 240.57
  A 1.23 1.23 0.0 0 1 361.19 241.89
  L 349.03 241.90
  L 348.96 227.32
  A 0.70 0.70 0.0 0 1 349.66 226.62
  L 359.27 226.62
  A 0.76 0.75 24.3 0 0 359.76 226.44
  Q 360.78 225.57 360.25 224.80
  L 383.09 215.77
  Z"
/>
<path d="
  M 315.53 242.06
  Q 316.36 241.37 316.17 240.37
  C 321.88 237.50 327.23 232.73 333.12 228.03
  A 6.25 6.22 24.1 0 1 336.65 226.69
  Q 337.29 226.65 343.75 226.59
  Q 344.87 226.57 344.44 225.09
  Q 345.09 225.16 345.20 225.87
  C 345.76 229.25 344.89 233.16 345.24 236.06
  Q 345.47 237.89 345.46 241.67
  A 0.57 0.57 0.0 0 1 344.89 242.23
  L 315.53 242.06
  Z"
/>
<path d="
  M 392.03 251.47
  L 405.72 274.08
  Q 395.96 271.90 386.73 268.41
  A 0.86 0.86 0.0 0 1 386.23 267.31
  L 392.03 251.47
  Z"
/>
<path d="
  M 363.36 262.79
  L 339.09 271.88
  A 0.71 0.70 80.9 0 1 338.14 271.19
  L 338.45 262.56
  L 363.36 262.79
  Z"
/>
<path d="
  M 374.59 293.62
  L 365.29 262.68
  Q 375.46 264.02 385.13 269.13
  A 1.16 1.15 -61.6 0 1 385.60 270.72
  Q 379.53 281.71 374.59 293.62
  Z"
/>
<path d="
  M 371.72 293.85
  Q 370.39 295.30 368.48 295.87
  Q 354.69 299.97 340.93 304.15
  A 0.90 0.90 0.0 0 0 340.32 304.80
  Q 340.06 305.88 340.96 306.29
  L 302.43 306.15
  Q 302.82 305.09 302.44 304.24
  L 303.40 294.91
  Q 313.68 294.94 323.80 294.95
  C 339.32 294.97 355.73 294.04 371.72 293.85
  Z"
/>
<path d="
  M 376.88 314.91
  L 377.72 315.06
  Q 378.58 321.57 377.77 327.82
  A 0.59 0.58 -86.1 0 1 377.19 328.33
  L 338.01 328.62
  Q 339.68 321.93 338.01 314.91
  L 376.88 314.91
  Z"
/>
</g>
<g fill="#7f6c51">
<path d="
  M 355.56 57.46
  L 360.15 57.57
  Q 361.36 58.72 361.00 61.36
  A 0.85 0.84 3.9 0 1 360.16 62.09
  L 356.60 62.09
  A 0.69 0.68 87.3 0 0 355.92 62.84
  Q 355.94 63.02 355.89 63.10
  A 0.24 0.24 0.0 0 1 355.45 63.03
  Q 354.78 60.07 355.56 57.46
  Z"
/>
<path d="
  M 377.79 90.73
  L 370.44 87.91
  L 370.65 82.97
  Q 374.56 86.64 378.41 89.84
  Q 378.81 90.17 378.46 90.54
  Q 378.24 90.78 377.79 90.73
  Z"
/>
<path d="
  M 358.77 90.19
  L 364.82 94.65
  Q 364.61 94.94 364.46 94.97
  L 355.86 95.35
  A 0.78 0.78 0.0 0 1 355.05 94.60
  L 354.95 91.26
  A 0.78 0.78 0.0 0 1 355.67 90.46
  L 358.77 90.19
  Z"
/>
<path d="
  M 359.19 138.78
  L 359.27 132.97
  L 382.35 124.90
  A 1.08 1.08 0.0 0 1 383.79 125.92
  L 383.79 128.10
  A 2.40 2.40 0.0 0 1 382.22 130.35
  L 359.19 138.78
  Z"
/>
<path d="
  M 376.02 186.89
  L 367.07 190.20
  A 0.50 0.50 0.0 0 1 366.40 189.81
  Q 366.11 188.08 366.67 186.63
  L 371.78 184.80
  A 1.31 1.28 -45.7 0 1 372.58 184.78
  Q 374.22 185.27 376.02 186.89
  Z"
/>
<path d="
  M 300.25 220.01
  Q 298.42 222.21 296.11 224.04
  A 6.24 6.18 0.3 0 0 295.12 225.01
  L 292.44 228.31
  L 293.22 218.30
  A 0.43 0.43 0.0 0 1 293.78 217.92
  L 300.25 220.01
  Z"
/>
<path d="
  M 391.19 233.33
  Q 391.58 236.83 393.99 237.16
  L 391.79 238.46
  L 364.97 249.80
  L 362.35 245.68
  L 391.19 233.33
  Z"
/>
<path d="
  M 377.72 315.06
  L 376.88 314.91
  Q 376.81 311.35 374.57 310.33
  Q 375.62 310.41 376.14 310.13
  Q 386.12 304.67 398.08 298.91
  C 402.92 296.57 407.99 293.33 413.05 291.51
  A 1.08 1.04 49.9 0 1 413.98 291.61
  Q 415.05 292.27 415.81 293.73
  A 1.64 1.63 62.7 0 1 415.11 295.94
  L 377.72 315.06
  Z"
/>
</g>
<g fill="#385563">
<path d="
  M 338.00 57.98
  L 348.20 57.89
  L 348.13 71.46
  A 0.27 0.27 0.0 0 1 347.86 71.73
  L 339.21 72.00
  A 0.39 0.39 0.0 0 1 338.81 71.62
  L 338.46 60.23
  A 0.78 0.69 34.6 0 0 338.38 59.90
  Q 337.78 58.66 336.45 58.08
  L 338.00 57.98
  Z"
/>
<path d="
  M 392.69 106.15
  A 0.26 0.25 83.9 0 1 393.08 106.47
  L 386.11 118.54
  A 4.37 4.37 0.0 0 1 383.81 120.46
  L 375.17 123.55
  A 0.50 0.50 0.0 0 1 374.66 122.72
  L 392.69 106.15
  Z"
/>
<path d="
  M 301.02 123.31
  L 292.52 119.52
  A 1.77 1.70 -3.8 0 1 291.76 118.88
  L 285.51 109.09
  Q 294.44 114.65 301.02 123.31
  Z"
/>
<path d="
  M 318.99 143.31
  L 319.00 147.41
  L 307.21 143.28
  A 1.71 1.34 52.0 0 0 306.97 143.22
  Q 302.54 142.42 299.90 140.50
  L 299.94 136.57
  Q 307.47 139.16 315.04 141.47
  Q 316.38 141.88 318.99 143.31
  Z"
/>
<path d="
  M 355.04 146.57
  L 356.04 169.27
  A 0.65 0.64 80.9 0 1 355.58 169.92
  Q 353.90 170.40 353.00 170.26
  Q 349.38 169.70 345.74 169.96
  Q 346.20 167.76 345.71 165.59
  A 2.13 2.10 17.1 0 0 345.18 164.61
  L 341.47 160.75
  A 0.68 0.65 -12.4 0 0 341.21 160.59
  Q 340.87 160.50 340.74 161.03
  L 339.60 159.63
  Q 341.98 156.01 345.19 153.92
  Q 351.18 150.00 355.04 146.57
  Z"
/>
<path d="
  M 345.10 193.71
  L 345.81 194.13
  L 359.52 201.91
  Q 352.23 202.14 345.05 202.19
  Q 342.41 202.20 339.88 201.50
  A 1.04 1.04 0.0 0 1 339.21 200.90
  Q 337.41 196.28 336.89 199.52
  L 336.52 194.00
  L 345.10 193.71
  Z"
/>
<path d="
  M 357.94 205.72
  C 351.56 211.18 345.34 216.04 339.64 222.38
  Q 328.97 223.20 318.00 222.42
  L 319.13 206.31
  L 337.40 221.03
  A 0.52 0.52 0.0 0 0 338.25 220.62
  L 338.09 204.33
  Q 347.00 204.19 357.25 204.32
  Q 358.10 204.33 357.94 205.72
  Z"
/>
<path d="
  M 395.36 236.71
  L 395.59 243.17
  A 2.03 2.01 -17.6 0 1 394.65 244.96
  L 393.53 245.66
  A 0.90 0.90 0.0 0 1 392.15 244.95
  L 391.79 238.46
  L 393.99 237.16
  L 395.36 236.71
  Z"
/>
<path d="
  M 364.78 249.92
  Q 364.85 250.08 364.97 250.22
  A 0.73 0.69 -65.3 0 1 365.12 250.66
  L 365.12 257.42
  A 0.62 0.62 0.0 0 1 364.50 258.04
  L 311.99 258.02
  L 312.07 249.94
  L 364.78 249.92
  Z"
/>
<path d="
  M 338.45 262.56
  L 338.14 271.19
  A 0.71 0.70 80.9 0 0 339.09 271.88
  L 363.36 262.79
  L 365.29 262.68
  L 374.59 293.62
  L 374.77 305.01
  A 0.95 0.95 0.0 0 1 373.83 305.97
  L 340.96 306.29
  Q 340.06 305.88 340.32 304.80
  A 0.90 0.90 0.0 0 1 340.93 304.15
  Q 354.69 299.97 368.48 295.87
  Q 370.39 295.30 371.72 293.85
  Q 372.43 293.89 372.75 293.75
  A 0.35 0.35 0.0 0 0 372.79 293.13
  L 339.27 272.65
  Q 331.69 269.07 329.11 268.38
  Q 321.61 266.38 313.99 262.81
  Q 326.34 261.82 338.45 262.56
  Z"
/>
<path d="
  M 338.37 273.28
  L 338.39 292.79
  A 0.55 0.54 90.0 0 1 337.85 293.34
  L 305.09 293.43
  Q 307.33 290.63 310.34 288.99
  Q 313.04 287.51 313.17 287.43
  Q 328.40 278.08 336.05 273.56
  Q 337.15 272.91 338.37 273.28
  Z"
/>
<path d="
  M 262.43 295.94
  L 278.61 304.33
  L 277.71 317.33
  L 263.07 309.22
  L 262.43 295.94
  Z"
/>
<path d="
  M 337.78 314.91
  Q 338.01 315.19 338.01 314.91
  Q 339.68 321.93 338.01 328.62
  L 298.60 328.54
  L 299.12 314.93
  L 337.78 314.91
  Z"
/>
</g>
<g fill="#bda470">
<path d="
  M 348.20 57.89
  L 338.00 57.98
  Q 339.46 58.07 339.36 55.03
  L 349.98 55.02
  A 0.37 0.36 11.2 0 1 350.32 55.52
  Q 349.72 56.94 348.20 57.89
  Z"
/>
<path d="
  M 380.16 62.69
  Q 373.80 61.49 367.59 58.42
  L 375.67 57.33
  A 3.90 3.81 -40.2 0 1 377.20 57.44
  L 390.82 61.38
  A 0.35 0.35 0.0 0 1 390.74 62.07
  L 380.16 62.69
  Z"
/>
<path d="
  M 394.26 69.01
  Q 393.57 69.75 391.92 70.07
  L 379.89 75.47
  Q 379.74 75.20 379.15 75.16
  Q 379.97 75.07 380.01 75.02
  A 0.91 0.91 0.0 0 0 379.58 73.57
  Q 376.65 72.67 374.99 70.25
  L 380.10 68.19
  A 3.98 3.92 36.1 0 1 381.91 67.92
  L 394.26 69.01
  Z"
/>
<path d="
  M 297.05 76.01
  L 297.26 87.55
  L 297.24 90.20
  Q 297.03 91.49 296.41 92.34
  L 285.54 101.90
  L 285.63 72.17
  A 0.41 0.41 0.0 0 1 286.18 71.79
  L 297.05 76.01
  Z"
/>
<path d="
  M 370.44 87.91
  L 377.79 90.73
  Q 379.31 91.34 379.28 91.77
  L 364.82 94.65
  L 358.77 90.19
  L 370.44 87.91
  Z"
/>
<path d="
  M 318.07 133.08
  L 317.17 138.63
  L 297.00 131.09
  Q 297.09 130.07 296.60 128.97
  Q 296.19 128.08 296.98 125.71
  L 318.07 133.08
  Z"
/>
<path d="
  M 299.94 136.57
  L 299.90 140.50
  Q 299.68 141.37 300.07 142.75
  A 1.83 1.76 -76.4 0 0 300.55 143.57
  L 302.86 145.82
  A 3.40 3.08 11.2 0 1 303.49 146.67
  Q 305.06 149.78 307.05 151.49
  A 0.61 0.61 0.0 0 1 307.15 152.30
  Q 307.13 152.33 302.94 157.72
  Q 301.98 158.95 301.73 163.61
  L 297.74 162.18
  Q 299.80 149.02 299.78 142.99
  Q 299.77 141.05 297.11 138.65
  L 297.44 136.43
  A 0.47 0.46 -77.9 0 1 298.02 136.05
  L 299.94 136.57
  Z"
/>
<path d="
  M 360.25 224.80
  Q 360.78 225.57 359.76 226.44
  A 0.76 0.75 24.3 0 1 359.27 226.62
  L 349.66 226.62
  A 0.70 0.70 0.0 0 0 348.96 227.32
  L 349.03 241.90
  L 348.19 241.91
  A 0.51 0.50 88.8 0 1 347.69 241.42
  L 347.21 225.46
  A 0.72 0.71 -0.7 0 1 347.94 224.72
  L 360.25 224.80
  Z"
/>
<path d="
  M 395.36 236.71
  L 393.99 237.16
  Q 391.58 236.83 391.19 233.33
  Q 391.36 232.68 391.65 232.26
  A 0.46 0.46 0.0 0 1 392.35 232.19
  Q 394.28 234.06 395.36 236.71
  Z"
/>
<path d="
  M 281.76 236.79
  Q 284.21 237.29 285.37 238.24
  Q 284.10 241.64 284.06 245.73
  Q 280.09 245.45 281.76 236.79
  Z"
/>
<path d="
  M 362.35 245.68
  L 364.97 249.80
  L 364.78 249.92
  L 312.07 249.94
  Q 312.14 249.68 311.47 249.40
  Q 313.45 248.12 314.17 245.54
  L 362.35 245.68
  Z"
/>
<path d="
  M 284.75 250.70
  Q 284.83 251.69 285.07 252.54
  Q 287.46 261.14 290.32 267.32
  A 0.52 0.51 -22.1 0 1 290.01 268.03
  L 273.66 273.39
  C 272.65 270.27 275.11 268.23 277.49 265.59
  A 3.90 3.80 -12.3 0 0 278.15 264.59
  L 283.47 253.15
  A 1.75 0.36 -38.9 0 1 284.08 252.41
  Q 284.72 251.79 284.52 250.52
  Q 284.66 250.68 284.75 250.70
  Z"
/>
<path d="
  M 337.96 310.32
  Q 338.25 312.63 337.78 314.91
  L 299.12 314.93
  Q 298.34 314.77 298.28 314.33
  Q 300.32 312.70 300.98 310.35
  L 337.96 310.32
  Z"
/>
</g>
</svg>
