<?xml version="1.0" encoding="UTF-8" standalone="no"?>
<!DOCTYPE svg PUBLIC "-//W3C//DTD SVG 1.1//EN" "http://www.w3.org/Graphics/SVG/1.1/DTD/svg11.dtd">
<svg xmlns="http://www.w3.org/2000/svg" version="1.1" viewBox="0.00 0.00 677.00 369.00">
<g fill="#29475f">
<path d="
  M 325.86 65.72
  Q 326.51 65.41 326.69 66.30
  Q 326.91 67.37 326.77 68.25
  A 0.92 0.92 0.0 0 1 325.52 68.96
  L 321.11 67.20
  L 325.86 65.72
  Z"
/>
<path d="
  M 362.66 127.70
  Q 362.03 132.11 360.84 132.68
  Q 357.56 140.11 357.01 147.18
  A 4.25 4.24 -16.5 0 1 355.36 150.21
  C 352.39 152.49 348.71 154.36 345.73 156.99
  Q 345.09 157.56 342.22 160.09
  A 2.02 2.02 0.0 0 1 340.35 160.52
  Q 338.61 160.03 336.49 159.35
  Q 334.86 158.82 334.50 158.36
  L 333.87 149.38
  A 0.91 0.89 63.6 0 0 332.30 148.83
  Q 331.71 149.53 331.98 152.44
  A 0.95 0.94 86.2 0 1 331.08 153.47
  Q 329.04 153.56 329.07 151.32
  L 328.86 142.80
  A 0.26 0.26 0.0 0 0 328.60 142.55
  L 328.27 142.55
  A 0.33 0.33 0.0 0 0 327.94 142.87
  L 327.58 155.89
  Q 320.56 154.20 313.74 151.91
  Q 311.78 151.25 310.15 150.89
  Q 307.49 150.32 306.47 150.18
  Q 304.27 149.89 300.68 148.42
  Q 296.90 146.88 293.28 144.74
  A 0.89 0.88 16.0 0 1 292.86 143.99
  Q 292.89 142.65 293.45 141.70
  L 307.82 140.67
  A 0.90 0.90 0.0 0 1 308.79 141.53
  C 308.90 143.98 308.46 148.73 309.83 150.59
  A 0.70 0.70 0.0 0 0 311.08 150.31
  L 312.42 143.57
  Q 316.11 142.28 318.25 138.62
  L 324.15 140.37
  A 0.88 0.87 -82.1 0 1 324.78 141.21
  L 324.78 142.63
  A 0.37 0.36 -0.0 0 0 325.15 142.99
  L 325.45 142.99
  A 0.23 0.23 0.0 0 0 325.68 142.77
  L 325.97 137.67
  A 2.04 2.03 73.1 0 1 326.78 136.15
  L 330.82 133.11
  A 1.47 1.44 -56.0 0 1 332.05 132.86
  L 340.35 134.94
  A 0.46 0.45 7.0 0 0 340.92 134.50
  L 340.92 128.53
  A 0.51 0.51 0.0 0 1 341.55 128.04
  L 346.96 129.40
  A 0.88 0.87 86.7 0 1 347.57 129.95
  C 348.31 132.04 350.10 133.49 352.36 132.03
  A 2.31 2.00 -26.8 0 0 353.38 129.56
  Q 352.22 126.18 348.84 127.16
  A 0.47 0.42 -66.7 0 0 348.69 127.23
  L 347.94 127.80
  A 0.34 0.34 0.0 0 1 347.65 127.86
  L 340.16 125.98
  A 0.61 0.61 0.0 0 0 339.40 126.57
  L 339.40 132.47
  A 0.38 0.38 0.0 0 1 338.93 132.84
  L 331.98 131.10
  A 1.19 1.19 0.0 0 0 331.03 131.26
  C 328.29 133.02 324.79 135.08 324.49 138.28
  A 0.50 0.50 0.0 0 1 323.86 138.72
  L 318.61 137.22
  Q 319.47 133.50 320.26 131.75
  Q 322.68 126.35 324.47 122.63
  A 3.44 3.43 48.1 0 0 324.61 119.99
  Q 323.61 117.19 323.40 114.04
  Q 323.26 111.94 322.11 108.09
  Q 319.93 100.75 320.25 92.97
  Q 331.03 101.70 341.31 110.20
  Q 343.08 111.67 352.28 118.59
  Q 358.10 122.97 362.66 127.70
  Z
  M 336.6867 116.0203
  A 0.96 0.96 0.0 0 0 336.0662 114.8128
  L 330.2391 112.9420
  A 0.96 0.96 0.0 0 0 329.0316 113.5625
  L 329.0133 113.6197
  A 0.96 0.96 0.0 0 0 329.6338 114.8272
  L 335.4609 116.6980
  A 0.96 0.96 0.0 0 0 336.6684 116.0775
  L 336.6867 116.0203
  Z
  M 336.9330 120.4486
  A 0.89 0.89 0.0 0 0 336.3499 119.3332
  L 327.6663 116.6119
  A 0.89 0.89 0.0 0 0 326.5509 117.1950
  L 326.5270 117.2714
  A 0.89 0.89 0.0 0 0 327.1101 118.3868
  L 335.7937 121.1081
  A 0.89 0.89 0.0 0 0 336.9091 120.5250
  L 336.9330 120.4486
  Z
  M 333.22 126.28
  L 335.52 127.55
  A 0.29 0.29 0.0 0 0 335.91 127.43
  L 336.00 127.27
  A 1.58 1.48 -61.0 0 0 335.47 125.17
  L 335.26 125.05
  A 1.58 1.48 -61.0 0 0 333.20 125.72
  L 333.11 125.88
  A 0.29 0.29 0.0 0 0 333.22 126.28
  Z
  M 341.34 143.84
  C 343.52 144.49 346.36 144.92 347.01 146.72
  C 348.52 150.92 354.80 148.13 351.74 143.58
  A 2.55 2.39 57.1 0 0 348.41 142.75
  Q 347.84 143.10 347.47 143.29
  A 1.69 1.69 0.0 0 1 346.56 143.47
  Q 342.30 143.11 340.55 141.12
  C 338.64 138.96 336.56 138.48 335.29 141.28
  A 2.53 2.12 -59.7 0 0 335.78 144.14
  Q 338.11 145.97 340.38 144.04
  A 1.07 1.06 -56.5 0 1 341.34 143.84
  Z"
/>
<path d="
  M 271.46 99.93
  L 272.66 100.45
  L 272.86 100.99
  L 284.51 139.39
  L 287.34 145.02
  Q 276.10 150.44 271.17 153.41
  Q 268.54 154.99 266.95 153.27
  A 2.05 1.99 14.8 0 1 266.51 152.54
  C 264.47 146.58 261.62 141.06 259.53 135.55
  Q 255.41 124.63 252.99 117.76
  A 1.44 1.44 0.0 0 1 253.51 116.11
  Q 259.81 111.52 265.51 104.73
  Q 266.39 103.38 269.68 101.79
  A 1.21 1.20 87.6 0 0 270.29 101.12
  Q 270.84 99.71 271.46 99.93
  Z
  M 273.0278 119.0025
  A 0.65 0.65 0.0 0 0 272.5962 118.1909
  L 260.4129 114.4661
  A 0.65 0.65 0.0 0 0 259.6012 114.8977
  L 259.3322 115.7775
  A 0.65 0.65 0.0 0 0 259.7638 116.5891
  L 271.9471 120.3139
  A 0.65 0.65 0.0 0 0 272.7588 119.8823
  L 273.0278 119.0025
  Z
  M 259.4900 119.9363
  A 1.62 1.29 -130.4 0 0 259.5576 122.0061
  A 1.62 1.29 -130.4 0 0 261.5900 122.4037
  A 1.62 1.29 -130.4 0 0 261.5224 120.3339
  A 1.62 1.29 -130.4 0 0 259.4900 119.9363
  Z
  M 264.42 121.04
  L 263.52 123.37
  A 0.12 0.12 0.0 0 0 263.59 123.52
  L 263.72 123.57
  A 7.42 0.61 21.2 0 0 270.86 125.69
  L 271.40 124.27
  A 7.42 0.61 21.2 0 0 264.71 121.02
  L 264.58 120.97
  A 0.12 0.12 0.0 0 0 264.42 121.04
  Z
  M 276.9309 131.9966
  A 1.07 1.07 0.0 0 0 276.2229 130.6593
  L 266.9899 127.8189
  A 1.07 1.07 0.0 0 0 265.6526 128.5269
  L 265.6291 128.6034
  A 1.07 1.07 0.0 0 0 266.3371 129.9407
  L 275.5701 132.7811
  A 1.07 1.07 0.0 0 0 276.9074 132.0731
  L 276.9309 131.9966
  Z
  M 263.06 132.64
  Q 262.85 133.34 263.33 134.42
  A 1.24 1.11 43.6 0 0 265.55 134.49
  Q 265.70 133.96 265.30 132.92
  A 1.29 1.08 47.0 0 0 263.06 132.64
  Z
  M 267.99 133.89
  L 267.36 135.77
  A 0.21 0.21 0.0 0 0 267.49 136.03
  L 277.94 139.55
  A 2.83 0.33 18.6 0 0 280.73 140.14
  L 281.28 138.49
  A 2.83 0.33 18.6 0 0 278.70 137.27
  L 268.26 133.76
  A 0.21 0.21 0.0 0 0 267.99 133.89
  Z"
/>
<path d="
  M 351.15 131.09
  A 0.42 0.42 0.0 0 1 350.58 131.25
  L 350.35 131.13
  A 2.22 1.09 28.8 0 1 348.93 129.10
  L 348.99 129.00
  A 2.22 1.09 28.8 0 1 351.46 129.11
  L 351.69 129.24
  A 0.42 0.42 0.0 0 1 351.85 129.81
  L 351.15 131.09
  Z"
/>
<path d="
  M 244.62 147.01
  Q 253.44 152.71 264.51 157.00
  Q 265.01 159.12 262.88 161.39
  Q 259.85 164.61 254.88 171.43
  L 250.24 178.47
  L 243.68 166.64
  A 3.18 3.03 7.4 0 0 243.01 165.81
  L 239.81 163.00
  Q 239.75 159.27 241.62 155.89
  Q 243.51 152.47 244.33 149.98
  A 0.42 0.42 0.0 0 0 243.56 149.65
  L 239.91 156.43
  A 0.32 0.32 0.0 0 1 239.31 156.30
  L 239.27 155.37
  L 239.23 143.96
  L 239.28 141.18
  A 0.57 0.57 0.0 0 1 240.22 140.75
  Q 242.88 142.94 244.62 147.01
  Z
  M 251.3884 156.0205
  A 0.82 0.82 0.0 0 0 250.5389 155.2311
  L 250.4589 155.2341
  A 0.82 0.82 0.0 0 0 249.6695 156.0835
  L 249.8916 162.1395
  A 0.82 0.82 0.0 0 0 250.7411 162.9289
  L 250.8211 162.9259
  A 0.82 0.82 0.0 0 0 251.6105 162.0765
  L 251.3884 156.0205
  Z
  M 255.6150 157.6107
  A 0.86 0.86 0.0 0 0 254.7461 156.7598
  L 254.6661 156.7606
  A 0.86 0.86 0.0 0 0 253.8151 157.6296
  L 253.8650 162.3893
  A 0.86 0.86 0.0 0 0 254.7339 163.2402
  L 254.8139 163.2394
  A 0.86 0.86 0.0 0 0 255.6649 162.3704
  L 255.6150 157.6107
  Z
  M 247.1180 157.8005
  A 0.87 0.87 0.0 0 0 246.2389 156.9396
  L 246.1389 156.9407
  A 0.87 0.87 0.0 0 0 245.2781 157.8197
  L 245.3220 162.0195
  A 0.87 0.87 0.0 0 0 246.2011 162.8804
  L 246.3011 162.8793
  A 0.87 0.87 0.0 0 0 247.1619 162.0003
  L 247.1180 157.8005
  Z"
/>
<path d="
  M 423.20 142.18
  Q 423.91 145.07 424.57 144.88
  L 428.32 144.91
  Q 431.67 148.05 436.10 149.11
  Q 436.31 148.12 437.12 148.72
  Q 437.32 149.80 436.92 150.33
  A 0.59 0.56 10.3 0 1 436.60 150.54
  Q 435.06 150.94 433.94 152.70
  Q 428.98 160.50 424.04 168.90
  L 417.70 165.67
  A 0.95 0.91 -67.8 0 1 417.26 164.56
  Q 417.32 164.38 417.69 163.99
  A 1.68 1.63 -22.4 0 0 418.15 162.93
  L 419.12 143.21
  L 423.20 142.18
  Z"
/>
<path d="
  M 405.74 146.66
  Q 406.03 146.86 405.96 147.06
  L 405.94 164.69
  L 404.61 171.35
  A 0.64 0.64 0.0 0 1 403.94 171.86
  C 397.83 171.52 391.16 168.05 383.06 167.22
  L 378.30 164.28
  Q 381.04 163.77 382.91 161.63
  A 1.07 0.80 -79.8 0 1 383.06 161.49
  L 389.85 156.64
  A 0.64 0.54 -68.2 0 1 390.02 156.55
  Q 394.44 154.66 398.63 150.91
  Q 399.73 157.68 398.67 164.52
  A 0.66 0.66 0.0 0 0 399.07 165.23
  Q 400.78 165.95 401.46 164.07
  Q 401.98 162.62 401.13 162.42
  A 1.77 1.74 -82.3 0 1 399.79 160.63
  Q 400.08 154.36 399.76 149.42
  Q 402.02 150.29 403.63 149.08
  Q 404.20 148.65 404.50 148.50
  Q 405.21 148.14 405.00 147.47
  A 0.62 0.61 -14.7 0 1 405.47 146.68
  Q 405.60 146.65 405.74 146.66
  Z"
/>
<path d="
  M 286.04 168.19
  Q 284.57 168.33 284.04 168.73
  A 0.40 0.40 0.0 0 0 284.09 169.41
  C 286.32 170.60 288.65 171.58 290.70 172.82
  Q 296.20 176.16 302.20 178.23
  L 304.05 184.28
  L 295.17 181.12
  A 0.80 0.74 20.9 0 0 294.19 181.52
  L 294.18 181.55
  A 0.79 0.75 -67.1 0 0 294.56 182.57
  L 301.00 185.30
  Q 294.58 188.42 288.82 183.93
  Q 282.92 179.34 280.74 177.12
  Q 282.94 176.80 284.36 178.51
  A 0.82 0.82 0.0 0 0 285.74 177.66
  C 284.53 174.90 283.37 175.84 281.32 174.97
  Q 275.30 172.41 269.05 171.48
  L 268.00 161.11
  L 286.04 168.19
  Z
  M 288.03 179.15
  L 290.44 180.46
  A 0.29 0.29 0.0 0 0 290.84 180.34
  L 290.98 180.07
  A 1.64 1.50 -61.6 0 0 290.44 177.91
  L 290.16 177.76
  A 1.64 1.50 -61.6 0 0 288.06 178.49
  L 287.92 178.76
  A 0.29 0.29 0.0 0 0 288.03 179.15
  Z"
/>
<path d="
  M 305.38 210.19
  L 294.75 213.56
  C 294.83 210.89 297.27 208.47 297.96 206.57
  A 1.24 1.21 -3.3 0 1 298.60 205.87
  C 301.77 204.42 305.66 203.92 308.02 206.71
  A 0.85 0.84 -49.8 0 1 308.10 207.69
  Q 306.91 209.69 305.38 210.19
  Z"
/>
<path d="
  M 323.62 211.51
  C 327.30 212.17 330.63 212.45 333.58 214.18
  Q 331.64 213.79 330.34 215.34
  Q 322.54 224.62 321.96 225.47
  C 319.21 229.61 319.46 233.81 318.27 237.36
  A 3.99 3.99 0.0 0 1 316.29 239.65
  L 312.52 241.56
  A 0.75 0.75 0.0 0 1 311.48 240.64
  Q 314.33 232.73 317.93 225.70
  C 318.52 224.56 318.91 223.03 319.29 221.53
  A 0.53 0.52 -81.2 0 0 318.82 220.88
  Q 317.15 220.75 316.82 222.48
  Q 316.89 220.27 316.61 219.85
  Q 313.76 214.86 312.19 211.23
  Q 311.72 210.16 311.94 209.22
  A 0.33 0.33 0.0 0 1 312.56 209.14
  L 317.48 218.84
  A 0.59 0.59 0.0 0 0 318.60 218.61
  L 318.64 217.88
  A 1.15 1.12 66.2 0 1 318.88 217.24
  L 323.62 211.51
  Z"
/>
<path d="
  M 338.84 214.46
  L 339.06 234.23
  L 338.92 242.74
  Q 335.05 244.08 335.13 248.92
  Q 335.28 257.25 335.31 257.56
  C 335.69 262.82 334.60 267.89 335.33 273.29
  A 0.54 0.53 14.4 0 1 334.48 273.79
  Q 330.63 270.97 326.74 269.72
  L 327.15 263.36
  A 0.59 0.57 6.0 0 1 327.82 262.83
  L 329.26 263.04
  A 2.25 2.25 0.0 0 0 331.82 260.62
  C 331.19 253.34 331.74 246.80 331.40 240.10
  Q 331.27 237.62 331.17 229.39
  Q 331.16 228.27 331.37 226.63
  Q 331.55 225.20 331.59 223.86
  Q 334.17 217.18 338.84 214.46
  Z"
/>
<path d="
  M 354.03 219.97
  L 353.86 230.53
  A 1.98 1.96 66.8 0 1 353.35 231.83
  C 351.22 234.19 350.19 238.76 354.46 238.95
  A 1.77 1.77 0.0 0 0 355.54 238.65
  Q 358.65 236.60 357.72 232.64
  A 1.90 1.85 -76.8 0 0 357.11 231.63
  L 356.03 230.72
  A 1.13 1.13 0.0 0 1 355.62 229.85
  L 355.64 218.96
  L 360.23 220.82
  L 360.07 244.48
  Q 357.87 245.84 356.22 248.12
  A 0.53 0.52 -53.8 0 0 356.33 248.86
  L 359.24 250.99
  L 359.44 261.86
  L 352.03 256.79
  C 352.30 253.65 348.64 252.43 346.76 250.88
  A 1.17 1.15 20.7 0 1 346.35 250.00
  L 346.35 228.34
  A 1.03 1.03 0.0 0 1 346.77 227.51
  L 350.24 224.91
  L 350.04 217.85
  A 0.48 0.48 0.0 0 1 350.29 217.41
  L 353.63 215.72
  A 0.20 0.19 75.6 0 1 353.91 215.89
  L 354.03 219.97
  Z"
/>
<path d="
  M 343.53 286.92
  L 360.31 287.26
  Q 361.43 288.82 361.03 292.87
  Q 343.73 293.75 333.25 293.08
  Q 325.51 292.59 317.27 293.20
  A 6.59 6.58 58.4 0 1 313.35 292.26
  Q 305.98 287.78 298.01 284.53
  Q 296.10 283.75 293.01 281.08
  L 292.70 274.53
  A 0.38 0.38 0.0 0 1 293.26 274.18
  L 315.12 285.93
  A 9.20 9.14 -30.9 0 0 319.48 287.01
  L 343.53 286.92
  Z"
/>
<path d="
  M 286.78 275.07
  Q 286.77 279.80 286.16 281.42
  Q 285.55 283.04 282.08 287.32
  L 282.47 279.62
  A 3.38 3.35 -15.9 0 1 283.92 277.04
  L 286.78 275.07
  Z"
/>
<path d="
  M 395.33 288.08
  C 392.62 284.59 389.65 280.46 390.96 275.81
  Q 392.85 276.24 394.05 277.39
  A 1.42 1.37 -72.0 0 1 394.49 278.29
  L 395.33 288.08
  Z"
/>
<path d="
  M 309.14 313.44
  L 280.19 297.47
  L 292.65 288.34
  A 1.29 1.28 -36.6 0 1 294.44 288.60
  Q 297.35 292.50 299.88 296.88
  Q 300.24 297.51 304.85 304.96
  Q 307.18 308.75 309.14 313.44
  Z"
/>
<path d="
  M 400.04 300.28
  Q 401.18 305.82 399.64 311.21
  A 1.00 1.00 0.0 0 1 397.68 310.96
  L 397.38 301.27
  Q 398.40 301.27 400.04 300.28
  Z"
/>
<path d="
  M 279.83 301.52
  L 308.28 316.48
  A 1.96 1.94 -30.7 0 0 309.20 316.71
  L 367.97 316.95
  Q 368.78 316.93 368.91 316.58
  L 369.00 327.00
  A 1.27 1.26 90.0 0 1 367.73 328.28
  Q 320.44 328.11 313.35 328.12
  Q 312.46 328.13 311.17 328.27
  C 308.62 328.55 307.01 326.94 304.84 326.01
  Q 297.44 322.85 296.52 322.23
  Q 288.59 316.93 280.10 313.13
  L 279.83 301.52
  Z"
/>
</g>
<g fill="#5cb7cb">
<ellipse cx="0.00" cy="0.00" transform="translate(338.25,91.64) rotate(-176.0)" rx="1.14" ry="0.63"/>
<path d="
  M 258.65 94.48
  Q 258.98 95.63 259.16 95.68
  Q 257.36 102.82 253.82 108.58
  Q 252.71 110.39 253.55 112.45
  L 245.62 117.68
  A 0.19 0.18 -0.4 0 1 245.36 117.43
  C 247.93 113.56 249.33 109.74 251.89 105.49
  Q 254.82 100.63 257.54 95.27
  Q 257.82 94.72 258.65 94.48
  Z"
/>
<path d="
  M 384.95 107.56
  L 371.01 118.57
  A 0.09 0.03 -16.8 0 1 370.98 118.59
  L 365.80 123.37
  A 0.60 0.59 78.6 0 1 364.84 122.73
  L 369.45 109.88
  Q 371.16 108.84 374.08 107.41
  A 1.00 1.00 0.0 0 0 374.25 105.72
  Q 373.30 105.00 371.80 105.75
  Q 371.28 104.72 370.02 104.13
  Q 371.15 103.55 370.29 102.53
  Q 370.57 102.42 370.81 102.24
  Q 371.01 102.09 371.13 101.77
  Q 371.84 99.92 373.06 98.22
  L 384.95 107.56
  Z"
/>
<path d="
  M 386.88 110.81
  L 405.74 146.66
  Q 405.60 146.65 405.47 146.68
  A 0.62 0.61 -14.7 0 0 405.00 147.47
  Q 405.21 148.14 404.50 148.50
  Q 404.20 148.65 403.63 149.08
  Q 402.02 150.29 399.76 149.42
  L 394.34 138.46
  A 0.95 0.94 -9.1 0 0 393.63 137.95
  L 389.77 137.38
  A 2.00 1.97 -8.9 0 1 388.28 136.31
  Q 384.04 127.81 380.91 120.10
  A 0.84 0.78 48.3 0 0 379.44 119.96
  Q 379.24 120.37 379.52 120.94
  Q 382.03 126.16 384.98 133.18
  Q 375.19 130.99 366.51 127.31
  A 1.24 1.23 0.8 0 1 365.86 126.65
  L 365.12 124.93
  A 0.70 0.70 0.0 0 1 365.39 124.06
  L 386.88 110.81
  Z
  M 389.10 123.99
  A 1.17 1.17 0.0 0 0 387.93 122.82
  A 1.17 1.17 0.0 0 0 386.76 123.99
  A 1.17 1.17 0.0 0 0 387.93 125.16
  A 1.17 1.17 0.0 0 0 389.10 123.99
  Z"
/>
<path d="
  M 368.56 213.16
  L 361.62 217.37
  L 361.05 217.19
  A 0.56 0.55 17.4 0 1 360.69 216.51
  Q 360.90 215.83 361.33 215.54
  Q 364.43 213.46 365.86 211.84
  A 2.46 2.42 67.9 0 0 366.47 210.36
  Q 366.95 201.95 366.01 192.51
  Q 365.98 192.24 365.73 192.12
  A 0.87 0.37 23.6 0 1 365.15 191.51
  Q 365.21 191.14 365.72 190.87
  L 368.37 190.77
  A 0.78 0.78 0.0 0 1 369.18 191.57
  L 368.56 213.16
  Z"
/>
<path d="
  M 355.64 218.96
  L 355.62 229.85
  A 1.13 1.13 0.0 0 0 356.03 230.72
  L 357.11 231.63
  A 1.90 1.85 -76.8 0 1 357.72 232.64
  Q 358.65 236.60 355.54 238.65
  A 1.77 1.77 0.0 0 1 354.46 238.95
  C 350.19 238.76 351.22 234.19 353.35 231.83
  A 1.98 1.96 66.8 0 0 353.86 230.53
  L 354.03 219.97
  L 353.85 209.46
  A 0.51 0.51 0.0 0 0 353.21 208.97
  Q 351.55 209.39 350.59 211.19
  Q 350.13 212.06 349.88 215.02
  Q 349.71 217.08 349.86 219.00
  Q 350.09 221.98 350.24 224.91
  L 346.77 227.51
  A 1.03 1.03 0.0 0 0 346.35 228.34
  L 346.35 250.00
  A 1.17 1.15 20.7 0 0 346.76 250.88
  C 348.64 252.43 352.30 253.65 352.03 256.79
  Q 351.79 262.14 352.09 267.25
  Q 352.15 268.19 351.44 268.80
  Q 350.60 269.51 350.24 268.79
  L 350.26 256.83
  A 2.10 2.10 0.0 0 0 349.52 255.23
  L 345.31 251.69
  A 0.73 0.63 14.2 0 1 345.17 251.49
  Q 344.73 250.45 344.70 249.20
  L 344.74 228.03
  A 2.00 1.99 -18.7 0 1 345.53 226.44
  L 348.08 224.53
  A 1.38 1.37 71.8 0 0 348.63 223.43
  L 348.63 212.63
  A 0.73 0.73 0.0 0 0 347.61 211.96
  L 343.67 213.65
  A 1.07 1.05 -10.2 0 0 343.03 214.55
  L 341.97 233.80
  A 1.12 1.11 -77.4 0 1 340.44 234.78
  L 339.06 234.23
  L 338.84 214.46
  Q 349.05 209.91 358.88 205.39
  Q 359.46 205.12 360.46 204.03
  Q 361.33 206.40 360.46 209.52
  Q 359.94 211.37 358.44 210.94
  A 1.11 1.10 0.5 0 1 357.66 210.15
  L 357.31 208.81
  A 0.61 0.60 39.1 0 0 356.12 208.93
  L 355.64 218.96
  Z
  M 356.5133 235.6450
  A 1.34 1.34 0.0 0 0 356.4406 233.7513
  L 356.0444 233.3844
  A 1.34 1.34 0.0 0 0 354.1507 233.4572
  L 353.2267 234.4550
  A 1.34 1.34 0.0 0 0 353.2994 236.3487
  L 353.6956 236.7156
  A 1.34 1.34 0.0 0 0 355.5893 236.6428
  L 356.5133 235.6450
  Z"
/>
</g>
<g fill="#907c63">
<path d="
  M 408.68 146.19
  L 408.26 171.17
  A 2.81 2.77 -24.9 0 1 407.60 172.94
  L 397.44 184.99
  A 1.06 1.05 -71.9 0 1 396.70 185.37
  Q 388.41 185.93 378.54 186.11
  Q 378.52 186.11 370.49 186.76
  Q 366.44 187.08 362.44 186.50
  Q 364.15 184.74 367.80 185.05
  A 0.21 0.19 -65.4 0 0 367.97 184.98
  L 368.35 184.53
  A 0.37 0.32 -69.2 0 1 368.59 184.40
  L 395.56 183.08
  A 1.42 1.41 -71.3 0 0 396.58 182.57
  L 405.36 172.14
  A 2.12 2.12 0.0 0 0 405.86 170.80
  L 405.94 164.69
  L 405.96 147.06
  Q 407.24 148.23 408.68 146.19
  Z"
/>
<path d="
  M 437.86 150.08
  Q 436.22 152.50 431.39 161.89
  Q 430.25 164.09 425.43 170.74
  A 2.55 2.53 -85.9 0 1 424.55 171.51
  Q 419.01 174.49 414.22 177.19
  C 412.50 178.15 410.35 178.80 408.65 179.40
  A 0.37 0.37 0.0 0 1 408.21 178.87
  Q 409.35 176.80 411.25 175.46
  A 2.34 2.26 17.0 0 1 411.86 175.15
  Q 416.98 173.42 421.73 169.96
  Q 423.24 170.02 424.04 168.90
  Q 428.98 160.50 433.94 152.70
  Q 435.06 150.94 436.60 150.54
  A 0.59 0.56 10.3 0 0 436.92 150.33
  Q 437.32 149.80 437.12 148.72
  Q 437.19 148.57 437.25 148.42
  L 437.86 150.08
  Z"
/>
<path d="
  M 400.04 300.28
  Q 398.40 301.27 397.38 301.27
  L 368.91 316.58
  Q 368.78 316.93 367.97 316.95
  Q 368.50 313.82 366.31 313.65
  Q 366.22 313.62 366.12 313.59
  L 368.65 312.94
  L 396.98 297.27
  A 1.11 1.10 43.1 0 1 398.00 297.24
  Q 400.12 298.23 400.04 300.28
  Z"
/>
</g>
<g fill="#ecebc8">
<path d="
  M 356.83 62.51
  Q 362.73 63.72 368.24 65.99
  C 372.64 67.80 376.65 68.51 380.46 70.58
  A 0.16 0.16 0.0 0 1 380.37 70.88
  L 374.31 70.22
  L 363.35 66.73
  A 0.25 0.25 0.0 0 0 363.06 67.09
  L 365.24 70.86
  Q 364.86 72.50 364.31 73.25
  Q 347.67 68.89 330.72 66.27
  Q 330.34 65.93 330.33 65.50
  Q 330.32 64.92 330.61 65.13
  C 336.72 63.43 343.37 66.43 349.43 67.32
  Q 359.00 68.72 360.81 69.26
  Q 361.49 69.46 362.57 69.87
  A 0.28 0.28 0.0 0 0 362.84 69.38
  Q 358.57 66.13 356.83 62.51
  Z"
/>
<path d="
  M 334.63 78.45
  Q 323.34 75.27 312.04 73.13
  Q 311.26 72.98 309.55 73.05
  L 309.12 72.79
  A 1.34 1.33 56.6 0 0 308.26 72.61
  Q 297.74 74.11 287.22 75.61
  Q 286.73 75.68 285.76 76.26
  Q 285.14 75.40 285.89 74.28
  L 309.52 69.41
  A 3.69 3.60 45.7 0 1 311.12 69.45
  L 337.29 75.99
  A 0.35 0.35 0.0 0 1 337.45 76.57
  Q 336.12 77.88 334.63 78.45
  Z"
/>
<path d="
  M 420.77 101.56
  Q 415.46 95.89 409.43 91.46
  A 7.99 7.76 -0.8 0 1 408.02 90.13
  Q 405.40 86.94 402.24 84.44
  Q 399.88 81.61 396.92 79.93
  Q 394.57 78.59 390.28 77.89
  C 383.09 76.73 373.53 74.84 372.61 75.32
  A 0.32 0.32 0.0 0 0 372.56 75.86
  Q 380.40 82.07 387.31 89.16
  C 389.64 91.55 392.84 93.25 394.96 95.83
  Q 395.68 96.70 397.78 98.48
  Q 399.34 99.79 400.50 101.38
  Q 399.37 102.39 398.54 103.98
  Q 392.17 96.55 384.67 90.80
  A 7.34 7.14 86.9 0 1 383.76 89.96
  Q 377.78 83.39 370.88 78.21
  A 0.96 0.37 20.8 0 1 370.79 78.13
  L 367.52 74.77
  Q 367.07 74.12 368.27 73.68
  Q 368.94 73.44 369.82 73.48
  Q 385.68 74.11 392.09 74.98
  C 398.28 75.82 403.54 81.71 408.75 87.02
  Q 411.05 89.37 415.82 93.74
  Q 419.61 97.21 423.42 101.50
  A 0.24 0.23 72.5 0 1 423.22 101.89
  L 420.77 101.56
  Z"
/>
<path d="
  M 387.66 106.51
  L 384.95 107.56
  L 373.06 98.22
  L 356.26 84.14
  L 339.14 79.16
  L 342.10 77.64
  A 0.44 0.42 -51.1 0 1 342.41 77.60
  L 356.39 81.10
  A 5.56 5.56 0.0 0 1 358.61 82.23
  L 384.21 103.80
  A 0.66 0.55 77.1 0 0 384.34 103.90
  Q 386.19 104.98 387.66 106.51
  Z"
/>
<ellipse cx="0.00" cy="0.00" transform="translate(387.40,82.82) rotate(-139.3)" rx="2.93" ry="0.85"/>
<path d="
  M 394.36 84.93
  Q 392.44 84.66 391.36 83.70
  Q 390.23 82.69 390.28 82.47
  A 1.97 1.87 30.4 0 1 393.57 81.71
  Q 394.08 82.25 394.83 84.37
  A 0.43 0.43 0.0 0 1 394.36 84.93
  Z"
/>
<path d="
  M 391.94 86.36
  Q 391.96 86.12 392.65 86.05
  A 0.45 0.37 0.8 0 1 393.15 86.47
  Q 393.10 86.68 392.60 86.88
  A 0.49 0.49 0.0 0 1 391.94 86.36
  Z"
/>
<path d="
  M 403.30 88.65
  Q 404.56 88.68 405.12 89.38
  A 0.29 0.29 0.0 0 1 404.90 89.85
  L 396.54 90.31
  L 394.57 90.05
  A 0.47 0.47 0.0 0 1 394.60 89.11
  L 403.30 88.65
  Z"
/>
<path d="
  M 377.73 163.26
  Q 377.73 163.96 377.28 164.07
  L 362.66 127.70
  Q 358.10 122.97 352.28 118.59
  Q 343.08 111.67 341.31 110.20
  Q 331.03 101.70 320.25 92.97
  Q 319.72 92.71 319.76 91.78
  Q 325.51 96.10 330.90 100.14
  Q 332.35 101.23 333.67 102.47
  A 5.11 4.90 81.8 0 0 334.40 103.04
  C 338.28 105.52 341.71 107.55 345.02 110.57
  Q 350.05 115.15 354.70 117.58
  Q 354.74 117.61 354.78 117.64
  L 364.30 125.40
  A 0.58 0.53 12.5 0 1 364.47 125.64
  L 377.73 163.26
  Z"
/>
<path d="
  M 397.05 91.97
  L 406.67 91.77
  A 0.12 0.12 0.0 0 1 406.78 91.85
  L 407.05 92.52
  A 0.21 0.21 0.0 0 1 406.85 92.81
  L 400.01 92.92
  Q 397.89 93.50 396.73 92.54
  A 0.28 0.28 0.0 0 1 396.73 92.12
  Q 396.85 92.03 397.05 91.97
  Z"
/>
<rect x="-6.35" y="-0.91" transform="translate(343.57,95.29) rotate(-24.4)" width="12.70" height="1.82" rx="0.88"/>
<rect x="-6.82" y="-1.05" transform="translate(353.44,95.83) rotate(-24.7)" width="13.64" height="2.10" rx="1.03"/>
<path d="
  M 401.80 96.06
  Q 399.03 95.75 400.27 94.50
  L 406.28 95.16
  A 0.98 0.84 18.1 0 0 407.17 94.79
  Q 407.23 94.71 407.30 94.52
  A 0.23 0.23 0.0 0 1 407.67 94.45
  L 408.63 95.41
  A 0.33 0.33 0.0 0 1 408.27 95.94
  L 407.74 95.71
  A 2.27 2.26 52.8 0 0 406.60 95.55
  L 401.80 96.06
  Z"
/>
<path d="
  M 343.79 99.34
  L 345.03 99.96
  A 0.59 0.59 0.0 0 1 344.80 101.08
  Q 342.60 101.21 342.92 99.75
  A 0.61 0.61 0.0 0 1 343.79 99.34
  Z"
/>
<path d="
  M 352.41 100.83
  Q 352.99 100.68 353.15 101.27
  Q 353.42 102.25 352.50 102.51
  A 0.98 0.80 12.0 0 1 351.40 101.14
  Q 351.44 101.10 352.41 100.83
  Z"
/>
<rect x="-6.97" y="-0.93" transform="translate(356.25,104.45) rotate(-23.5)" width="13.94" height="1.86" rx="0.27"/>
<ellipse cx="0.00" cy="0.00" transform="translate(348.43,103.33) rotate(-4.4)" rx="1.24" ry="0.81"/>
<path d="
  M 370.29 102.53
  Q 371.15 103.55 370.02 104.13
  L 362.37 107.66
  A 1.31 1.29 -37.0 0 1 360.98 107.47
  L 360.56 107.12
  A 0.62 0.62 0.0 0 1 360.73 106.07
  L 369.18 102.66
  A 1.35 1.17 28.5 0 1 369.63 102.56
  L 370.29 102.53
  Z"
/>
<path d="
  M 404.32 102.88
  L 426.26 104.98
  A 0.94 0.93 79.7 0 1 427.01 105.50
  Q 430.90 113.44 433.94 121.59
  Q 435.22 125.01 439.61 133.32
  A 5.68 5.66 36.1 0 1 440.18 136.93
  L 437.86 150.08
  L 437.25 148.42
  Q 436.74 142.71 438.20 137.57
  A 3.66 3.64 -54.2 0 0 437.72 134.54
  Q 435.02 130.55 433.43 126.46
  C 430.73 119.57 428.44 115.85 425.13 108.68
  A 1.60 1.58 83.1 0 0 424.01 107.79
  L 403.20 103.53
  A 0.29 0.29 0.0 0 1 403.15 102.97
  Q 403.53 102.83 404.32 102.88
  Z"
/>
<path d="
  M 369.45 109.88
  Q 367.18 110.99 366.29 110.11
  A 0.76 0.76 0.0 0 1 366.44 108.92
  L 371.80 105.75
  Q 373.30 105.00 374.25 105.72
  A 1.00 1.00 0.0 0 1 374.08 107.41
  Q 371.16 108.84 369.45 109.88
  Z"
/>
<rect x="-2.24" y="-0.88" transform="translate(356.67,109.59) rotate(-27.4)" width="4.48" height="1.76" rx="0.75"/>
<path d="
  M 389.39 109.34
  L 408.68 146.19
  Q 407.24 148.23 405.96 147.06
  Q 406.03 146.86 405.74 146.66
  L 386.88 110.81
  Q 387.67 109.61 389.39 109.34
  Z"
/>
<path d="
  M 424.57 144.88
  Q 423.91 145.07 423.20 142.18
  Q 419.96 136.21 418.43 129.73
  A 2.19 2.14 -39.1 0 1 418.60 128.24
  Q 420.72 123.99 418.33 119.42
  Q 416.30 115.56 414.12 110.69
  A 0.51 0.50 -24.5 0 1 414.37 110.03
  L 414.39 110.02
  A 0.53 0.53 0.0 0 1 415.08 110.25
  Q 418.58 116.79 420.28 121.89
  Q 421.00 124.04 420.87 124.69
  C 420.23 127.84 418.51 128.68 420.14 132.26
  Q 422.54 137.54 424.85 142.66
  Q 425.32 143.69 424.57 144.88
  Z"
/>
<rect x="-3.59" y="-0.99" transform="translate(361.29,112.65) rotate(-25.6)" width="7.18" height="1.98" rx="0.96"/>
<ellipse cx="0.00" cy="0.00" transform="translate(412.29,113.43) rotate(-134.6)" rx="1.19" ry="0.58"/>
<ellipse cx="0.00" cy="0.00" transform="translate(423.25,113.95) rotate(-127.6)" rx="0.99" ry="0.47"/>
<path d="
  M 425.27 124.53
  Q 425.24 124.96 425.01 125.27
  L 421.44 117.26
  A 0.24 0.24 0.0 0 1 421.66 116.92
  L 422.32 116.92
  A 0.24 0.24 0.0 0 1 422.54 117.07
  L 425.27 124.53
  Z"
/>
<path d="
  M 424.29 117.64
  A 0.36 0.36 0.0 0 1 424.92 117.29
  Q 427.41 120.85 429.45 126.69
  A 1.85 1.81 44.5 0 1 429.47 127.81
  Q 429.22 128.59 428.91 129.12
  A 2.83 2.78 22.8 0 0 430.62 133.22
  Q 432.46 133.73 432.30 136.65
  A 1.42 1.37 -85.7 0 1 430.80 137.99
  C 428.45 137.77 427.81 135.95 428.45 133.66
  A 1.37 1.34 -49.4 0 0 428.39 132.73
  L 427.44 130.51
  A 1.29 1.28 47.2 0 1 427.48 129.43
  L 428.31 127.76
  A 0.81 0.79 -44.2 0 0 428.33 127.08
  L 424.29 117.64
  Z
  M 429.6632 134.0380
  A 1.66 1.19 -115.2 0 0 429.2933 136.0467
  A 1.66 1.19 -115.2 0 0 431.0768 137.0420
  A 1.66 1.19 -115.2 0 0 431.4467 135.0333
  A 1.66 1.19 -115.2 0 0 429.6632 134.0380
  Z"
/>
<path d="
  M 399.76 149.42
  Q 400.08 154.36 399.79 160.63
  A 1.77 1.74 -82.3 0 0 401.13 162.42
  Q 401.98 162.62 401.46 164.07
  Q 400.78 165.95 399.07 165.23
  A 0.66 0.66 0.0 0 1 398.67 164.52
  Q 399.73 157.68 398.63 150.91
  L 393.67 139.86
  A 1.08 1.07 82.2 0 0 392.86 139.24
  L 388.59 138.62
  A 1.33 1.32 -10.3 0 1 387.60 137.94
  L 384.98 133.18
  Q 382.03 126.16 379.52 120.94
  Q 379.24 120.37 379.44 119.96
  A 0.84 0.78 48.3 0 1 380.91 120.10
  Q 384.04 127.81 388.28 136.31
  A 2.00 1.97 -8.9 0 0 389.77 137.38
  L 393.63 137.95
  A 0.95 0.94 -9.1 0 1 394.34 138.46
  L 399.76 149.42
  Z"
/>
<circle cx="387.93" cy="123.99" r="1.17"/>
<path d="
  M 376.88 134.75
  Q 376.07 135.26 375.51 134.37
  Q 374.49 132.75 375.31 132.24
  Q 376.12 131.73 377.14 133.34
  Q 377.70 134.24 376.88 134.75
  Z"
/>
<path d="
  M 379.24 136.50
  A 0.48 0.47 -23.6 0 1 379.49 135.88
  L 379.73 135.78
  A 0.57 0.56 -23.0 0 1 380.48 136.08
  L 383.86 143.97
  A 1.67 1.66 79.8 0 0 385.31 144.98
  L 387.59 145.11
  A 0.89 0.89 0.0 0 1 388.40 145.78
  Q 388.91 147.79 390.71 148.70
  C 392.84 149.78 393.21 150.70 392.70 152.61
  Q 392.47 153.45 391.28 153.80
  C 388.51 154.63 386.25 152.53 387.84 149.68
  A 1.89 1.87 24.2 0 0 386.80 146.99
  Q 385.40 146.51 383.76 146.19
  A 0.76 0.75 83.5 0 1 383.19 145.73
  L 379.24 136.50
  Z
  M 391.1491 150.8397
  A 1.05 1.05 0.0 0 0 390.0182 149.8773
  L 389.8388 149.8917
  A 1.05 1.05 0.0 0 0 388.8764 151.0225
  L 388.9309 151.7003
  A 1.05 1.05 0.0 0 0 390.0618 152.6627
  L 390.2412 152.6483
  A 1.05 1.05 0.0 0 0 391.2036 151.5175
  L 391.1491 150.8397
  Z"
/>
<path d="
  M 340.94 166.52
  Q 344.35 177.72 349.59 187.06
  A 0.24 0.24 0.0 0 1 349.46 187.40
  Q 349.30 187.45 348.93 187.24
  A 0.02 0.02 0.0 0 1 348.91 187.22
  L 336.54 167.32
  Q 319.12 161.48 313.36 158.93
  Q 305.02 155.23 299.94 153.49
  Q 298.35 152.95 295.49 151.32
  Q 292.81 149.80 289.91 149.69
  Q 288.49 148.64 289.41 148.01
  Q 298.51 151.03 308.06 153.82
  C 318.70 156.92 327.75 160.16 337.54 163.55
  A 2.88 2.84 76.7 0 1 338.58 164.20
  L 340.94 166.52
  Z"
/>
</g>
<path fill="#0d243b" d="
  M 387.86 200.84
  Q 388.70 198.42 390.29 197.54
  Q 392.49 196.32 394.32 195.51
  Q 401.91 193.42 408.43 189.90
  A 1.88 1.86 1.7 0 0 409.16 189.22
  L 413.68 182.11
  A 0.32 0.32 0.0 0 0 413.28 181.64
  L 411.23 182.52
  L 404.77 184.44
  A 1.66 1.66 0.0 0 0 404.10 184.82
  L 400.03 188.45
  A 1.72 1.72 0.0 0 1 399.22 188.85
  C 396.61 189.37 394.84 189.85 392.44 189.85
  C 387.37 189.86 383.46 190.22 377.85 190.05
  Q 371.57 189.85 365.52 190.33
  Q 365.16 190.36 365.02 190.67
  L 360.46 204.03
  Q 359.46 205.12 358.88 205.39
  Q 349.05 209.91 338.84 214.46
  Q 334.17 217.18 331.59 223.86
  Q 330.48 224.63 329.68 225.96
  Q 327.52 227.41 326.41 229.69
  Q 324.50 233.63 323.75 237.03
  C 322.34 240.27 322.90 243.60 322.87 247.88
  A 1.55 1.53 73.0 0 1 322.22 249.12
  L 319.37 251.08
  A 1.01 1.00 72.4 0 0 318.95 251.90
  L 319.11 266.04
  L 324.91 267.96
  Q 325.16 269.28 326.74 269.72
  Q 330.63 270.97 334.48 273.79
  A 0.54 0.53 14.4 0 0 335.33 273.29
  C 334.60 267.89 335.69 262.82 335.31 257.56
  Q 335.28 257.25 335.13 248.92
  Q 335.05 244.08 338.92 242.74
  Q 339.14 251.88 339.11 260.95
  C 339.10 265.27 339.77 269.67 339.04 274.03
  A 0.37 0.37 0.0 0 0 339.59 274.41
  L 343.22 272.29
  L 350.24 268.79
  Q 350.60 269.51 351.44 268.80
  Q 352.15 268.19 352.09 267.25
  Q 351.79 262.14 352.03 256.79
  L 359.44 261.86
  Q 359.13 262.86 359.35 263.83
  A 0.53 0.53 0.0 0 0 359.97 264.24
  Q 363.47 263.55 366.09 261.56
  Q 367.37 261.42 368.25 260.88
  A 1.09 1.07 -16.1 0 0 368.77 259.96
  L 368.77 252.31
  A 2.22 2.20 -69.8 0 0 368.00 250.63
  L 360.93 244.56
  L 360.07 244.48
  L 360.23 220.82
  Q 360.04 218.60 361.62 217.37
  L 368.56 213.16
  Q 369.00 213.60 372.06 212.92
  Q 370.02 215.46 365.97 218.48
  Q 364.35 219.68 364.18 222.49
  Q 363.70 230.08 363.97 237.77
  C 364.06 240.33 363.44 242.27 366.30 243.62
  C 369.33 245.05 372.54 247.44 375.01 248.68
  Q 381.33 251.83 387.41 254.93
  A 2.45 2.44 9.2 0 1 388.72 256.74
  L 390.54 268.65
  A 1.61 1.58 11.6 0 0 391.30 269.78
  C 397.25 273.39 400.20 274.45 401.17 280.89
  C 402.63 290.65 404.14 299.13 403.96 308.50
  Q 403.89 312.55 401.22 314.15
  Q 396.25 317.13 377.03 327.05
  Q 374.52 328.34 370.98 330.99
  Q 369.73 331.92 364.79 331.91
  Q 338.42 331.88 311.59 331.94
  A 8.05 8.03 -37.2 0 1 309.45 331.65
  Q 305.65 330.61 301.45 328.31
  Q 295.33 324.96 291.69 322.74
  C 287.19 320.01 281.37 317.51 275.66 314.39
  Q 273.82 313.39 273.45 312.44
  C 271.96 308.65 272.75 302.65 273.39 298.06
  C 274.59 289.40 274.83 285.52 276.21 277.80
  A 3.98 3.86 -24.9 0 1 276.70 276.52
  Q 279.20 272.49 284.92 270.45
  A 2.57 2.57 0.0 0 0 286.60 268.47
  Q 288.33 258.61 288.45 258.12
  Q 289.05 255.57 291.42 254.20
  C 294.27 252.56 295.40 249.68 299.34 249.55
  A 1.82 1.77 26.7 0 0 300.32 249.24
  Q 302.09 248.05 303.17 246.20
  Q 303.65 245.37 302.77 244.43
  Q 302.12 243.74 302.12 242.71
  A 1.50 1.49 29.5 0 0 301.90 241.93
  L 299.94 238.74
  A 4.51 4.51 0.0 0 1 299.52 234.90
  Q 302.13 227.39 301.68 218.64
  A 1.03 1.02 -15.6 0 0 300.17 217.79
  Q 298.40 218.75 296.93 219.11
  Q 290.84 220.62 284.13 218.94
  Q 273.97 216.40 266.76 210.61
  Q 263.79 208.23 260.18 204.96
  C 257.44 202.49 255.88 199.28 255.10 195.06
  Q 254.39 191.20 253.02 187.97
  Q 251.96 185.50 249.68 184.78
  A 1.92 1.83 70.3 0 1 249.14 184.51
  Q 244.75 181.57 241.94 176.82
  C 240.56 174.49 238.32 173.51 237.49 171.03
  Q 237.06 169.75 235.78 168.11
  Q 232.79 164.29 232.63 159.20
  A 3.20 3.14 -56.5 0 0 232.45 158.27
  Q 231.35 155.34 231.92 152.98
  Q 232.56 150.30 232.41 147.73
  C 232.09 142.45 232.89 137.09 234.63 132.49
  A 4.77 4.75 74.2 0 1 235.27 131.34
  Q 237.17 128.82 237.61 126.28
  A 2.17 2.17 0.0 0 1 238.09 125.25
  L 239.80 123.22
  A 3.39 3.34 70.5 0 0 240.53 121.66
  C 241.61 115.55 245.29 109.63 249.44 101.91
  C 251.23 98.59 253.78 95.34 255.44 92.83
  C 257.97 88.98 261.24 87.64 266.37 84.14
  C 272.13 80.21 278.91 73.96 283.82 71.06
  Q 284.54 70.63 288.52 69.14
  A 7.63 7.44 32.7 0 1 290.91 68.65
  Q 296.35 68.43 303.39 66.14
  A 4.05 3.99 16.0 0 0 304.66 65.45
  Q 306.73 63.77 308.45 63.67
  Q 312.64 63.42 314.59 62.12
  A 0.98 0.78 14.6 0 1 314.86 62.00
  L 324.51 59.65
  A 6.61 6.51 -53.6 0 1 325.46 59.50
  L 341.19 58.22
  A 6.72 6.49 -42.4 0 1 342.64 58.26
  Q 346.80 58.83 348.76 58.56
  Q 350.93 58.26 353.00 58.49
  Q 361.61 59.46 369.64 62.61
  Q 382.68 67.71 394.21 72.52
  Q 396.46 73.46 404.18 78.43
  Q 408.03 80.91 413.11 85.95
  C 421.80 94.56 427.65 100.54 432.23 108.79
  Q 432.90 110.01 434.75 115.49
  A 5.97 5.96 -70.0 0 0 435.34 116.76
  Q 438.52 122.11 441.11 128.79
  A 3.29 3.28 30.9 0 1 441.33 129.66
  Q 441.67 132.73 443.04 135.97
  A 2.23 2.18 -61.1 0 1 443.22 136.62
  Q 444.06 143.02 443.49 145.04
  Q 442.67 147.89 442.37 150.12
  A 3.25 3.03 65.3 0 1 441.99 151.27
  Q 436.09 161.81 430.07 170.07
  Q 427.95 172.99 424.77 174.99
  A 0.41 0.34 5.7 0 0 424.65 175.07
  L 419.47 179.62
  A 2.86 2.71 86.0 0 0 418.87 180.35
  Q 415.96 185.37 412.94 189.45
  Q 408.90 194.91 404.15 196.18
  Q 399.59 197.40 397.07 198.19
  Q 392.74 199.55 387.86 200.84
  Z
  M 321.11 67.20
  L 325.52 68.96
  A 0.92 0.92 0.0 0 0 326.77 68.25
  Q 326.91 67.37 326.69 66.30
  Q 326.51 65.41 325.86 65.72
  Q 327.68 64.94 328.08 62.59
  A 0.57 0.56 -4.4 0 0 327.34 61.96
  L 315.07 66.19
  A 0.35 0.34 -44.4 0 0 315.06 66.84
  Q 317.88 67.86 321.11 67.20
  Z
  M 330.61 65.13
  Q 330.32 64.92 330.33 65.50
  Q 330.34 65.93 330.72 66.27
  Q 329.40 68.18 330.23 69.58
  Q 330.89 70.67 333.22 71.18
  Q 344.97 73.78 358.71 78.33
  Q 359.36 78.55 362.23 79.77
  A 0.45 0.45 0.0 0 0 362.84 79.46
  L 364.31 73.25
  Q 364.86 72.50 365.24 70.86
  Q 365.27 70.25 366.50 70.42
  Q 370.46 70.97 374.31 70.22
  L 380.37 70.88
  A 0.16 0.16 0.0 0 0 380.46 70.58
  C 376.65 68.51 372.64 67.80 368.24 65.99
  Q 362.73 63.72 356.83 62.51
  Q 344.70 62.13 330.93 63.21
  A 0.52 0.52 0.0 0 0 330.45 63.79
  L 330.61 65.13
  Z
  M 285.89 74.28
  L 267.36 88.34
  A 0.24 0.23 17.1 0 0 267.58 88.75
  L 275.93 86.03
  Q 287.70 83.14 291.33 81.37
  Q 297.23 78.49 302.69 75.10
  A 0.60 0.60 0.0 0 1 303.59 75.71
  Q 303.44 76.56 302.06 77.27
  Q 296.85 79.96 293.54 84.05
  Q 292.27 84.69 293.53 86.26
  Q 294.61 95.27 298.02 103.71
  Q 300.45 109.72 301.94 115.83
  A 3.93 3.91 -41.7 0 1 301.80 118.15
  Q 298.28 127.47 295.42 134.57
  C 294.57 136.68 294.21 139.30 293.45 141.70
  Q 292.89 142.65 292.86 143.99
  A 0.89 0.88 16.0 0 0 293.28 144.74
  Q 296.90 146.88 300.68 148.42
  Q 304.27 149.89 306.47 150.18
  Q 307.49 150.32 310.15 150.89
  Q 311.78 151.25 313.74 151.91
  Q 320.56 154.20 327.58 155.89
  Q 328.31 156.30 329.23 156.38
  L 334.50 158.36
  Q 334.86 158.82 336.49 159.35
  Q 338.61 160.03 340.35 160.52
  A 2.02 2.02 0.0 0 0 342.22 160.09
  Q 345.09 157.56 345.73 156.99
  C 348.71 154.36 352.39 152.49 355.36 150.21
  A 4.25 4.24 -16.5 0 0 357.01 147.18
  Q 357.56 140.11 360.84 132.68
  L 358.45 148.25
  A 1.39 1.39 0.0 0 0 358.84 149.45
  C 362.38 152.99 366.48 154.83 370.32 159.03
  A 4.68 4.59 -3.3 0 0 371.20 159.80
  Q 373.87 161.65 375.31 164.06
  Q 371.95 162.23 369.28 159.53
  A 2.45 1.99 0.5 0 0 368.87 159.19
  L 357.55 152.00
  A 0.89 0.89 0.0 0 0 356.56 152.02
  L 342.74 161.57
  A 0.90 0.89 -30.4 0 0 342.44 162.70
  Q 342.84 163.51 343.95 164.50
  A 2.21 2.16 11.2 0 1 344.56 165.39
  Q 345.99 169.22 349.71 172.54
  Q 356.78 178.86 362.44 186.50
  Q 366.44 187.08 370.49 186.76
  Q 378.52 186.11 378.54 186.11
  Q 388.41 185.93 396.70 185.37
  A 1.06 1.05 -71.9 0 0 397.44 184.99
  L 407.60 172.94
  A 2.81 2.77 -24.9 0 0 408.26 171.17
  L 408.68 146.19
  L 389.39 109.34
  Q 388.69 107.56 387.66 106.51
  Q 386.19 104.98 384.34 103.90
  A 0.66 0.55 77.1 0 1 384.21 103.80
  L 358.61 82.23
  A 5.56 5.56 0.0 0 0 356.39 81.10
  L 342.41 77.60
  A 0.44 0.42 -51.1 0 0 342.10 77.64
  L 339.14 79.16
  Q 330.94 83.42 321.96 89.86
  Q 320.67 89.50 319.76 91.78
  Q 319.72 92.71 320.25 92.97
  Q 319.93 100.75 322.11 108.09
  Q 323.26 111.94 323.40 114.04
  Q 323.61 117.19 324.61 119.99
  A 3.44 3.43 48.1 0 1 324.47 122.63
  Q 322.68 126.35 320.26 131.75
  Q 319.47 133.50 318.61 137.22
  Q 318.05 137.57 318.25 138.62
  Q 316.11 142.28 312.42 143.57
  L 315.14 134.86
  L 320.88 121.37
  A 2.55 2.42 -39.4 0 0 321.05 119.98
  L 316.27 91.36
  C 320.93 86.72 326.50 83.68 334.63 78.45
  Q 336.12 77.88 337.45 76.57
  A 0.35 0.35 0.0 0 0 337.29 75.99
  L 311.12 69.45
  A 3.69 3.60 45.7 0 0 309.52 69.41
  L 285.89 74.28
  Z
  M 367.52 74.77
  Q 366.08 75.68 365.77 77.73
  Q 365.57 79.13 365.09 80.07
  Q 364.38 81.47 365.94 83.01
  Q 371.91 88.92 374.41 90.98
  A 5.40 4.85 -7.4 0 0 375.21 91.53
  Q 380.88 94.74 383.78 98.76
  A 1.94 1.81 4.4 0 0 384.11 99.12
  L 388.29 102.78
  A 0.45 0.38 76.3 0 0 388.40 102.86
  C 392.63 105.38 393.73 108.63 395.13 113.10
  A 3.07 2.67 -73.1 0 0 395.43 113.77
  L 399.90 121.22
  A 1.05 1.05 0.0 0 0 401.82 120.94
  L 402.43 118.47
  A 4.91 4.86 41.7 0 0 402.24 115.50
  C 400.57 111.27 399.70 109.69 399.16 106.83
  Q 398.86 105.24 398.54 103.98
  Q 399.37 102.39 400.50 101.38
  Q 400.80 101.68 401.31 100.58
  L 420.77 101.56
  L 423.22 101.89
  A 0.24 0.23 72.5 0 0 423.42 101.50
  Q 419.61 97.21 415.82 93.74
  Q 411.05 89.37 408.75 87.02
  C 403.54 81.71 398.28 75.82 392.09 74.98
  Q 385.68 74.11 369.82 73.48
  Q 368.94 73.44 368.27 73.68
  Q 367.07 74.12 367.52 74.77
  Z
  M 288.12 85.70
  L 258.65 94.48
  Q 257.82 94.72 257.54 95.27
  Q 254.82 100.63 251.89 105.49
  C 249.33 109.74 247.93 113.56 245.36 117.43
  A 0.19 0.18 -0.4 0 0 245.62 117.68
  L 253.55 112.45
  Q 258.82 108.20 265.51 104.73
  Q 259.81 111.52 253.51 116.11
  A 1.44 1.44 0.0 0 0 252.99 117.76
  Q 255.41 124.63 259.53 135.55
  C 261.62 141.06 264.47 146.58 266.51 152.54
  A 2.05 1.99 14.8 0 0 266.95 153.27
  Q 268.54 154.99 271.17 153.41
  Q 276.10 150.44 287.34 145.02
  Q 293.11 134.54 296.29 121.55
  Q 297.39 120.30 297.44 118.63
  Q 298.89 116.71 297.81 113.96
  Q 296.29 110.10 294.71 103.97
  C 292.91 97.01 291.10 92.41 289.25 85.93
  A 0.86 0.86 0.0 0 0 288.84 85.42
  Q 288.23 85.09 288.12 85.70
  Z
  M 401.16 103.60
  Q 400.32 103.93 399.73 104.59
  A 0.93 0.91 56.2 0 0 399.56 105.50
  C 401.97 112.45 404.41 116.42 407.05 122.92
  C 409.65 129.35 412.55 135.64 415.37 141.93
  L 414.89 163.73
  A 2.38 2.37 -71.4 0 0 415.87 165.71
  L 421.73 169.96
  Q 416.98 173.42 411.86 175.15
  A 2.34 2.26 17.0 0 0 411.25 175.46
  Q 409.35 176.80 408.21 178.87
  A 0.37 0.37 0.0 0 0 408.65 179.40
  C 410.35 178.80 412.50 178.15 414.22 177.19
  Q 419.01 174.49 424.55 171.51
  A 2.55 2.53 -85.9 0 0 425.43 170.74
  Q 430.25 164.09 431.39 161.89
  Q 436.22 152.50 437.86 150.08
  L 440.18 136.93
  A 5.68 5.66 36.1 0 0 439.61 133.32
  Q 435.22 125.01 433.94 121.59
  Q 430.90 113.44 427.01 105.50
  A 0.94 0.93 79.7 0 0 426.26 104.98
  L 404.32 102.88
  Q 400.55 101.54 401.16 103.60
  Z
  M 248.68 120.10
  Q 245.59 120.99 244.65 122.91
  Q 241.20 129.99 236.68 136.39
  A 0.74 0.74 0.0 0 0 236.55 136.81
  L 236.55 161.60
  A 4.63 4.62 24.4 0 0 237.70 164.65
  Q 242.18 169.78 245.69 176.03
  Q 246.88 178.17 249.37 179.92
  Q 250.19 179.78 250.67 180.68
  Q 257.84 182.86 264.86 184.71
  Q 273.67 187.03 282.54 189.53
  C 285.97 190.49 289.69 190.51 292.47 192.05
  C 298.94 195.64 304.36 199.97 310.78 203.45
  A 8.15 7.99 66.4 0 0 312.54 204.16
  Q 316.77 205.29 333.78 210.01
  Q 337.33 210.99 340.41 209.43
  Q 348.72 205.25 356.49 202.25
  Q 357.31 201.93 357.51 200.97
  L 360.28 191.04
  A 1.35 1.34 -57.7 0 0 360.01 189.81
  C 357.70 187.14 356.14 184.24 353.63 181.35
  Q 347.44 174.23 340.94 166.52
  L 338.58 164.20
  A 2.88 2.84 76.7 0 0 337.54 163.55
  C 327.75 160.16 318.70 156.92 308.06 153.82
  Q 298.51 151.03 289.41 148.01
  L 270.17 157.04
  A 0.59 0.58 43.6 0 0 270.20 158.11
  L 303.38 171.72
  L 324.56 180.41
  L 326.48 182.09
  L 328.90 186.29
  L 333.84 195.25
  Q 334.51 196.15 335.41 196.39
  Q 343.08 198.44 351.37 199.99
  Q 352.56 200.21 353.32 201.15
  Q 353.57 201.46 352.79 201.95
  C 350.29 202.42 347.98 202.79 345.60 203.77
  Q 341.51 205.43 337.06 207.41
  Q 335.35 204.65 334.34 202.31
  Q 333.05 199.31 332.13 196.68
  Q 330.80 193.24 329.08 192.40
  L 324.06 185.25
  A 3.95 3.84 -0.8 0 0 322.94 184.19
  Q 319.81 182.24 315.66 180.60
  Q 303.28 175.72 286.04 168.19
  L 268.00 161.11
  Q 262.93 166.20 258.09 171.05
  Q 256.48 172.66 254.88 171.43
  Q 259.85 164.61 262.88 161.39
  Q 265.01 159.12 264.51 157.00
  Q 263.94 153.69 262.78 153.06
  L 250.28 119.35
  A 0.38 0.38 0.0 0 0 250.08 119.15
  Q 249.37 118.85 248.68 120.10
  Z
  M 305.38 210.19
  Q 306.91 209.69 308.10 207.69
  A 0.85 0.84 -49.8 0 0 308.02 206.71
  C 305.66 203.92 301.77 204.42 298.60 205.87
  A 1.24 1.21 -3.3 0 0 297.96 206.57
  C 297.27 208.47 294.83 210.89 294.75 213.56
  Q 293.27 215.22 291.31 215.05
  Q 293.92 210.79 294.10 205.89
  Q 292.77 206.08 293.24 204.78
  A 0.71 0.68 -2.7 0 1 293.60 204.40
  L 299.76 201.77
  A 0.32 0.32 0.0 0 0 299.80 201.20
  C 295.20 198.39 292.12 196.46 287.00 194.61
  Q 273.36 189.67 258.99 187.70
  Q 257.90 186.78 256.74 186.62
  A 0.45 0.45 0.0 0 0 256.24 187.18
  L 259.53 199.73
  A 3.08 3.04 -80.5 0 0 260.79 201.52
  Q 267.45 206.01 272.61 211.66
  A 7.14 7.10 -14.8 0 0 276.31 213.80
  L 289.85 216.81
  A 1.87 1.85 42.8 0 0 290.76 216.78
  Q 298.41 214.66 301.84 213.14
  Q 303.29 212.50 305.38 210.19
  Z
  M 306.67 214.82
  Q 304.37 215.68 304.94 217.53
  Q 305.69 219.93 306.37 224.02
  L 302.86 236.45
  A 1.67 1.67 0.0 0 0 303.40 238.18
  L 309.58 243.40
  A 0.65 0.65 0.0 0 0 310.45 243.36
  Q 311.32 242.49 312.26 242.62
  A 0.77 0.71 36.3 0 0 312.64 242.58
  L 315.74 241.45
  A 4.21 4.19 0.9 0 0 318.19 239.09
  C 320.58 233.20 322.88 228.13 326.95 222.72
  Q 330.15 218.46 333.58 214.18
  C 330.63 212.45 327.30 212.17 323.62 211.51
  Q 318.67 209.35 312.42 208.48
  A 0.92 0.92 0.0 0 0 311.60 208.81
  L 306.67 214.82
  Z
  M 310.12 260.00
  L 311.06 257.07
  A 1.50 1.49 -13.9 0 1 311.43 256.46
  Q 313.01 254.92 314.98 253.31
  Q 316.12 252.37 315.83 250.80
  A 0.53 0.53 0.0 0 0 314.92 250.54
  L 313.25 252.41
  A 1.79 1.56 -82.6 0 1 312.99 252.64
  L 308.74 255.48
  A 1.44 1.43 71.4 0 0 308.10 256.78
  L 308.35 259.79
  A 0.91 0.91 0.0 0 0 310.12 260.00
  Z
  M 293.01 281.08
  Q 296.10 283.75 298.01 284.53
  Q 305.98 287.78 313.35 292.26
  A 6.59 6.58 58.4 0 0 317.27 293.20
  Q 325.51 292.59 333.25 293.08
  Q 343.73 293.75 361.03 292.87
  L 383.70 281.13
  Q 386.86 280.35 386.89 277.75
  Q 386.92 275.60 386.69 273.48
  L 385.38 258.72
  A 1.37 1.36 15.4 0 0 384.80 257.71
  Q 379.32 253.87 372.82 251.89
  A 0.59 0.58 16.1 0 0 372.09 252.29
  Q 371.88 253.07 372.20 253.85
  L 371.98 261.90
  A 1.80 1.79 78.3 0 1 370.95 263.48
  L 338.17 279.17
  Q 323.86 273.62 309.10 264.65
  Q 307.11 263.45 305.40 261.82
  A 1.12 1.10 22.5 0 1 305.05 260.99
  L 305.23 253.02
  Q 304.22 251.08 300.60 253.05
  C 297.79 254.58 295.16 255.82 293.16 257.33
  A 3.11 3.10 -14.4 0 0 291.98 259.32
  Q 291.21 264.23 290.25 274.25
  Q 290.14 275.38 290.33 279.05
  A 1.21 1.20 -70.7 0 0 290.74 279.91
  Q 291.63 280.71 293.01 281.08
  Z
  M 390.96 275.81
  C 389.65 280.46 392.62 284.59 395.33 288.08
  L 399.25 292.60
  A 0.08 0.08 0.0 0 0 399.39 292.54
  L 397.28 278.79
  A 3.24 3.23 11.9 0 0 395.81 276.54
  L 391.19 273.60
  A 0.55 0.54 -83.9 0 0 390.39 274.25
  L 390.96 275.81
  Z
  M 282.08 287.32
  Q 285.55 283.04 286.16 281.42
  Q 286.77 279.80 286.78 275.07
  Q 286.93 274.31 286.81 274.00
  A 0.60 0.60 0.0 0 0 285.96 273.72
  L 281.34 276.40
  A 3.09 3.07 79.4 0 0 279.84 278.61
  L 277.81 292.60
  A 0.16 0.16 0.0 0 0 278.08 292.73
  Q 280.33 290.19 282.08 287.32
  Z
  M 396.17 295.09
  L 388.29 284.61
  A 1.20 1.20 0.0 0 0 386.76 284.27
  C 385.04 285.19 379.52 290.05 383.73 291.60
  Q 391.60 294.50 395.50 295.98
  A 0.58 0.58 0.0 0 0 396.17 295.09
  Z
  M 279.51 296.90
  Q 277.59 298.26 276.62 300.18
  L 276.72 310.51
  A 1.43 1.40 -66.9 0 0 277.08 311.43
  Q 278.13 312.58 280.10 313.13
  Q 288.59 316.93 296.52 322.23
  Q 297.44 322.85 304.84 326.01
  C 307.01 326.94 308.62 328.55 311.17 328.27
  Q 312.46 328.13 313.35 328.12
  Q 320.44 328.11 367.73 328.28
  A 1.27 1.26 90.0 0 0 369.00 327.00
  L 368.91 316.58
  L 397.38 301.27
  L 397.68 310.96
  A 1.00 1.00 0.0 0 0 399.64 311.21
  Q 401.18 305.82 400.04 300.28
  Q 400.12 298.23 398.00 297.24
  A 1.11 1.10 43.1 0 0 396.98 297.27
  L 368.65 312.94
  C 372.85 305.21 378.61 297.35 380.60 289.09
  A 0.61 0.60 84.9 0 0 379.77 288.39
  C 373.91 290.98 366.32 293.70 363.32 299.41
  A 0.60 0.59 28.3 0 1 362.51 299.65
  Q 358.09 297.26 354.52 297.56
  Q 344.28 297.24 329.00 297.22
  Q 324.62 297.22 320.93 298.05
  L 315.83 297.56
  L 289.95 284.44
  A 0.67 0.66 -57.4 0 0 289.13 284.63
  L 279.51 296.90
  Z"
/>
<g fill="#447688">
<path d="
  M 356.26 84.14
  L 373.06 98.22
  Q 371.84 99.92 371.13 101.77
  Q 371.01 102.09 370.81 102.24
  Q 370.57 102.42 370.29 102.53
  L 369.63 102.56
  A 1.35 1.17 28.5 0 0 369.18 102.66
  L 360.73 106.07
  A 0.62 0.62 0.0 0 0 360.56 107.12
  L 360.98 107.47
  A 1.31 1.29 -37.0 0 0 362.37 107.66
  L 370.02 104.13
  Q 371.28 104.72 371.80 105.75
  L 366.44 108.92
  A 0.76 0.76 0.0 0 0 366.29 110.11
  Q 367.18 110.99 369.45 109.88
  L 364.84 122.73
  A 0.60 0.59 78.6 0 0 365.80 123.37
  L 370.98 118.59
  A 0.09 0.03 -16.8 0 0 371.01 118.57
  L 384.95 107.56
  L 387.66 106.51
  Q 388.69 107.56 389.39 109.34
  Q 387.67 109.61 386.88 110.81
  L 365.39 124.06
  A 0.70 0.70 0.0 0 0 365.12 124.93
  L 365.86 126.65
  A 1.24 1.23 0.8 0 0 366.51 127.31
  Q 375.19 130.99 384.98 133.18
  L 387.60 137.94
  A 1.33 1.32 -10.3 0 0 388.59 138.62
  L 392.86 139.24
  A 1.08 1.07 82.2 0 1 393.67 139.86
  L 398.63 150.91
  Q 394.44 154.66 390.02 156.55
  A 0.64 0.54 -68.2 0 0 389.85 156.64
  L 383.06 161.49
  A 1.07 0.80 -79.8 0 0 382.91 161.63
  Q 381.04 163.77 378.30 164.28
  Q 378.30 163.84 377.73 163.26
  L 364.47 125.64
  A 0.58 0.53 12.5 0 0 364.30 125.40
  L 354.78 117.64
  Q 354.74 117.61 354.70 117.58
  Q 350.05 115.15 345.02 110.57
  C 341.71 107.55 338.28 105.52 334.40 103.04
  A 5.11 4.90 81.8 0 1 333.67 102.47
  Q 332.35 101.23 330.90 100.14
  Q 325.51 96.10 319.76 91.78
  Q 320.67 89.50 321.96 89.86
  Q 339.20 88.15 356.26 84.14
  Z
  M 337.1128 91.5605
  A 1.14 0.63 -176.0 0 0 338.2061 92.2685
  A 1.14 0.63 -176.0 0 0 339.3872 91.7195
  A 1.14 0.63 -176.0 0 0 338.2939 91.0115
  A 1.14 0.63 -176.0 0 0 337.1128 91.5605
  Z
  M 349.3404 92.6395
  A 0.88 0.88 0.0 0 0 348.1755 92.2016
  L 338.2126 96.7210
  A 0.88 0.88 0.0 0 0 337.7748 97.8859
  L 337.7996 97.9405
  A 0.88 0.88 0.0 0 0 338.9645 98.3784
  L 348.9274 93.8590
  A 0.88 0.88 0.0 0 0 349.3652 92.6941
  L 349.3404 92.6395
  Z
  M 359.6277 92.9620
  A 1.03 1.03 0.0 0 0 358.2615 92.4566
  L 347.7410 97.2955
  A 1.03 1.03 0.0 0 0 347.2356 98.6617
  L 347.2523 98.6980
  A 1.03 1.03 0.0 0 0 348.6185 99.2034
  L 359.1390 94.3645
  A 1.03 1.03 0.0 0 0 359.6444 92.9983
  L 359.6277 92.9620
  Z
  M 343.79 99.34
  A 0.61 0.61 0.0 0 0 342.92 99.75
  Q 342.60 101.21 344.80 101.08
  A 0.59 0.59 0.0 0 0 345.03 99.96
  L 343.79 99.34
  Z
  M 352.41 100.83
  Q 351.44 101.10 351.40 101.14
  A 0.98 0.80 12.0 0 0 352.50 102.51
  Q 353.42 102.25 353.15 101.27
  Q 352.99 100.68 352.41 100.83
  Z
  M 362.3787 101.0655
  A 0.27 0.27 0.0 0 0 362.0235 100.9255
  L 349.7349 106.2688
  A 0.27 0.27 0.0 0 0 349.5949 106.6240
  L 350.1213 107.8345
  A 0.27 0.27 0.0 0 0 350.4765 107.9745
  L 362.7651 102.6312
  A 0.27 0.27 0.0 0 0 362.9051 102.2760
  L 362.3787 101.0655
  Z
  M 349.6663 103.2349
  A 1.24 0.81 -4.4 0 0 348.3679 102.5224
  A 1.24 0.81 -4.4 0 0 347.1937 103.4251
  A 1.24 0.81 -4.4 0 0 348.4921 104.1376
  A 1.24 0.81 -4.4 0 0 349.6663 103.2349
  Z
  M 358.5989 108.4437
  A 0.75 0.75 0.0 0 0 357.5879 108.1230
  L 354.9422 109.4944
  A 0.75 0.75 0.0 0 0 354.6215 110.5054
  L 354.7411 110.7363
  A 0.75 0.75 0.0 0 0 355.7521 111.0570
  L 358.3978 109.6856
  A 0.75 0.75 0.0 0 0 358.7185 108.6746
  L 358.5989 108.4437
  Z
  M 364.5146 111.0718
  A 0.96 0.96 0.0 0 0 363.2341 110.6208
  L 358.4904 112.8936
  A 0.96 0.96 0.0 0 0 358.0395 114.1741
  L 358.0654 114.2282
  A 0.96 0.96 0.0 0 0 359.3459 114.6792
  L 364.0896 112.4064
  A 0.96 0.96 0.0 0 0 364.5405 111.1259
  L 364.5146 111.0718
  Z
  M 376.88 134.75
  Q 377.70 134.24 377.14 133.34
  Q 376.12 131.73 375.31 132.24
  Q 374.49 132.75 375.51 134.37
  Q 376.07 135.26 376.88 134.75
  Z
  M 379.24 136.50
  L 383.19 145.73
  A 0.76 0.75 83.5 0 0 383.76 146.19
  Q 385.40 146.51 386.80 146.99
  A 1.89 1.87 24.2 0 1 387.84 149.68
  C 386.25 152.53 388.51 154.63 391.28 153.80
  Q 392.47 153.45 392.70 152.61
  C 393.21 150.70 392.84 149.78 390.71 148.70
  Q 388.91 147.79 388.40 145.78
  A 0.89 0.89 0.0 0 0 387.59 145.11
  L 385.31 144.98
  A 1.67 1.66 79.8 0 1 383.86 143.97
  L 380.48 136.08
  A 0.57 0.56 -23.0 0 0 379.73 135.78
  L 379.49 135.88
  A 0.48 0.47 -23.6 0 0 379.24 136.50
  Z"
/>
<path d="
  M 402.24 84.44
  Q 405.40 86.94 408.02 90.13
  A 7.99 7.76 -0.8 0 0 409.43 91.46
  Q 415.46 95.89 420.77 101.56
  L 401.31 100.58
  L 401.80 96.06
  L 406.60 95.55
  A 2.27 2.26 52.8 0 1 407.74 95.71
  L 408.27 95.94
  A 0.33 0.33 0.0 0 0 408.63 95.41
  L 407.67 94.45
  A 0.23 0.23 0.0 0 0 407.30 94.52
  Q 407.23 94.71 407.17 94.79
  A 0.98 0.84 18.1 0 1 406.28 95.16
  L 400.27 94.50
  L 400.01 92.92
  L 406.85 92.81
  A 0.21 0.21 0.0 0 0 407.05 92.52
  L 406.78 91.85
  A 0.12 0.12 0.0 0 0 406.67 91.77
  L 397.05 91.97
  L 396.54 90.31
  L 404.90 89.85
  A 0.29 0.29 0.0 0 0 405.12 89.38
  Q 404.56 88.68 403.30 88.65
  L 402.24 84.44
  Z"
/>
<path d="
  M 271.46 99.93
  Q 270.84 99.71 270.29 101.12
  A 1.21 1.20 87.6 0 1 269.68 101.79
  Q 266.39 103.38 265.51 104.73
  Q 258.82 108.20 253.55 112.45
  Q 252.71 110.39 253.82 108.58
  Q 257.36 102.82 259.16 95.68
  Q 264.57 97.00 269.82 98.89
  Q 270.24 99.04 271.46 99.93
  Z"
/>
<path d="
  M 404.32 102.88
  Q 403.53 102.83 403.15 102.97
  A 0.29 0.29 0.0 0 0 403.20 103.53
  L 424.01 107.79
  A 1.60 1.58 83.1 0 1 425.13 108.68
  C 428.44 115.85 430.73 119.57 433.43 126.46
  Q 435.02 130.55 437.72 134.54
  A 3.66 3.64 -54.2 0 1 438.20 137.57
  Q 436.74 142.71 437.25 148.42
  Q 437.19 148.57 437.12 148.72
  Q 436.31 148.12 436.10 149.11
  Q 433.15 145.23 428.32 144.91
  L 424.57 144.88
  Q 425.32 143.69 424.85 142.66
  Q 422.54 137.54 420.14 132.26
  C 418.51 128.68 420.23 127.84 420.87 124.69
  Q 421.00 124.04 420.28 121.89
  Q 418.58 116.79 415.08 110.25
  A 0.53 0.53 0.0 0 0 414.39 110.02
  L 414.37 110.03
  A 0.51 0.50 -24.5 0 0 414.12 110.69
  Q 416.30 115.56 418.33 119.42
  Q 420.72 123.99 418.60 128.24
  A 2.19 2.14 -39.1 0 0 418.43 129.73
  Q 419.96 136.21 423.20 142.18
  L 419.12 143.21
  Q 419.15 142.28 418.62 141.20
  Q 410.63 124.76 402.71 103.82
  Q 402.41 103.04 401.16 103.60
  Q 400.55 101.54 404.32 102.88
  Z
  M 411.4544 112.5827
  A 1.19 0.58 -134.6 0 0 411.8770 113.8372
  A 1.19 0.58 -134.6 0 0 413.1256 114.2773
  A 1.19 0.58 -134.6 0 0 412.7030 113.0228
  A 1.19 0.58 -134.6 0 0 411.4544 112.5827
  Z
  M 422.6460 113.1656
  A 0.99 0.47 -127.6 0 0 422.8776 114.2368
  A 0.99 0.47 -127.6 0 0 423.8540 114.7344
  A 0.99 0.47 -127.6 0 0 423.6224 113.6632
  A 0.99 0.47 -127.6 0 0 422.6460 113.1656
  Z
  M 425.01 125.27
  Q 425.17 125.58 425.23 125.98
  A 1.20 1.18 61.3 0 1 424.96 126.93
  Q 422.59 129.75 424.33 132.65
  A 0.46 0.46 0.0 0 0 425.16 132.29
  C 424.71 130.65 424.40 130.12 425.23 128.33
  Q 426.08 126.49 425.27 124.53
  L 422.54 117.07
  A 0.24 0.24 0.0 0 0 422.32 116.92
  L 421.66 116.92
  A 0.24 0.24 0.0 0 0 421.44 117.26
  L 425.01 125.27
  Z
  M 424.29 117.64
  L 428.33 127.08
  A 0.81 0.79 -44.2 0 1 428.31 127.76
  L 427.48 129.43
  A 1.29 1.28 47.2 0 0 427.44 130.51
  L 428.39 132.73
  A 1.37 1.34 -49.4 0 1 428.45 133.66
  C 427.81 135.95 428.45 137.77 430.80 137.99
  A 1.42 1.37 -85.7 0 0 432.30 136.65
  Q 432.46 133.73 430.62 133.22
  A 2.83 2.78 22.8 0 1 428.91 129.12
  Q 429.22 128.59 429.47 127.81
  A 1.85 1.81 44.5 0 0 429.45 126.69
  Q 427.41 120.85 424.92 117.29
  A 0.36 0.36 0.0 0 0 424.29 117.64
  Z"
/>
<path d="
  M 247.62 125.73
  L 244.62 147.01
  Q 242.88 142.94 240.22 140.75
  A 0.57 0.57 0.0 0 0 239.28 141.18
  L 239.23 143.96
  C 238.86 139.83 238.43 137.32 240.80 134.05
  Q 244.07 129.54 247.23 125.07
  A 0.24 0.24 0.0 0 1 247.62 125.08
  Q 247.90 125.48 247.62 125.73
  Z"
/>
<path d="
  M 334.50 158.36
  L 329.23 156.38
  L 329.07 151.32
  Q 329.04 153.56 331.08 153.47
  A 0.95 0.94 86.2 0 0 331.98 152.44
  Q 331.71 149.53 332.30 148.83
  A 0.91 0.89 63.6 0 1 333.87 149.38
  L 334.50 158.36
  Z"
/>
<path d="
  M 344.70 249.20
  L 344.36 244.35
  A 0.44 0.43 87.9 0 0 343.93 243.94
  L 343.62 243.94
  A 0.72 0.72 0.0 0 0 342.90 244.66
  L 342.90 259.61
  A 0.44 0.44 0.0 0 0 343.57 259.99
  L 343.79 259.85
  Q 343.10 261.80 344.19 262.95
  Q 343.43 262.71 342.95 263.06
  A 0.50 0.47 71.3 0 0 342.76 263.47
  L 343.22 272.29
  L 339.59 274.41
  A 0.37 0.37 0.0 0 1 339.04 274.03
  C 339.77 269.67 339.10 265.27 339.11 260.95
  Q 339.14 251.88 338.92 242.74
  L 339.06 234.23
  L 340.44 234.78
  A 1.12 1.11 -77.4 0 0 341.97 233.80
  L 343.03 214.55
  A 1.07 1.05 -10.2 0 1 343.67 213.65
  L 347.61 211.96
  A 0.73 0.73 0.0 0 1 348.63 212.63
  L 348.63 223.43
  A 1.38 1.37 71.8 0 1 348.08 224.53
  L 345.53 226.44
  A 2.00 1.99 -18.7 0 0 344.74 228.03
  L 344.70 249.20
  Z"
/>
<path d="
  M 350.19 283.12
  Q 344.97 280.35 338.17 279.17
  L 370.95 263.48
  A 1.80 1.79 78.3 0 0 371.98 261.90
  L 372.20 253.85
  L 381.38 258.40
  A 1.30 1.30 0.0 0 1 382.09 259.49
  L 382.63 270.51
  A 1.12 1.12 0.0 0 1 382.02 271.57
  L 360.04 282.72
  A 2.44 2.38 30.1 0 1 358.97 282.99
  L 350.19 283.12
  Z"
/>
<path d="
  M 279.83 301.52
  L 280.10 313.13
  Q 278.13 312.58 277.08 311.43
  A 1.43 1.40 -66.9 0 1 276.72 310.51
  L 276.62 300.18
  L 279.83 301.52
  Z"
/>
</g>
<g fill="#af9058">
<path d="
  M 288.12 85.70
  L 273.20 99.05
  A 1.06 1.06 0.0 0 0 272.89 99.56
  L 272.66 100.45
  L 271.46 99.93
  Q 270.24 99.04 269.82 98.89
  Q 264.57 97.00 259.16 95.68
  Q 258.98 95.63 258.65 94.48
  L 288.12 85.70
  Z"
/>
<path d="
  M 262.78 153.06
  Q 263.94 153.69 264.51 157.00
  Q 253.44 152.71 244.62 147.01
  L 247.62 125.73
  L 248.51 124.51
  L 262.78 153.06
  Z"
/>
<path d="
  M 324.56 180.41
  L 303.38 171.72
  Q 303.45 171.52 303.51 171.32
  Q 304.57 171.15 303.97 168.76
  Q 302.83 164.27 301.78 158.42
  A 0.29 0.29 0.0 0 1 302.14 158.09
  L 311.35 160.40
  A 1.30 1.30 0.0 0 1 312.12 160.94
  L 314.58 164.61
  A 2.85 2.13 36.5 0 0 314.82 164.92
  L 317.29 167.63
  A 0.69 0.57 -84.7 0 1 317.42 167.82
  L 324.56 180.41
  Z"
/>
<path d="
  M 357.51 200.97
  Q 356.56 201.07 356.04 200.73
  Q 354.15 194.09 349.64 188.86
  C 344.31 187.66 338.94 184.94 333.50 184.88
  Q 332.16 184.86 328.90 186.29
  L 326.48 182.09
  L 331.79 174.60
  A 5.44 5.20 -17.1 0 0 332.37 173.56
  Q 333.83 170.08 336.54 167.32
  L 348.91 187.22
  A 0.02 0.02 0.0 0 0 348.93 187.24
  Q 349.30 187.45 349.46 187.40
  A 0.24 0.24 0.0 0 0 349.59 187.06
  Q 344.35 177.72 340.94 166.52
  Q 347.44 174.23 353.63 181.35
  C 356.14 184.24 357.70 187.14 360.01 189.81
  A 1.35 1.34 -57.7 0 1 360.28 191.04
  L 357.51 200.97
  Z"
/>
</g>
<g fill="#82a091">
<path d="
  M 356.83 62.51
  Q 358.57 66.13 362.84 69.38
  A 0.28 0.28 0.0 0 1 362.57 69.87
  Q 361.49 69.46 360.81 69.26
  Q 359.00 68.72 349.43 67.32
  C 343.37 66.43 336.72 63.43 330.61 65.13
  L 330.45 63.79
  A 0.52 0.52 0.0 0 1 330.93 63.21
  Q 344.70 62.13 356.83 62.51
  Z"
/>
<path d="
  M 374.31 70.22
  Q 370.46 70.97 366.50 70.42
  Q 365.27 70.25 365.24 70.86
  L 363.06 67.09
  A 0.25 0.25 0.0 0 1 363.35 66.73
  L 374.31 70.22
  Z"
/>
<path d="
  M 329.07 151.32
  L 329.23 156.38
  Q 328.31 156.30 327.58 155.89
  L 327.94 142.87
  A 0.33 0.33 0.0 0 1 328.27 142.55
  L 328.60 142.55
  A 0.26 0.26 0.0 0 1 328.86 142.80
  L 329.07 151.32
  Z"
/>
<path d="
  M 346.60 167.15
  A 0.39 0.39 0.0 0 1 346.08 166.98
  L 345.89 166.59
  A 0.79 0.79 0.0 0 1 346.23 165.53
  Q 348.92 164.15 352.22 161.96
  C 354.60 160.39 355.76 161.42 357.98 162.18
  Q 359.27 162.61 368.11 165.24
  A 0.56 0.55 -74.8 0 1 368.49 165.91
  L 368.38 166.37
  A 0.42 0.42 0.0 0 1 367.87 166.68
  L 355.38 163.55
  A 3.18 3.13 -51.1 0 0 353.20 163.80
  L 346.60 167.15
  Z"
/>
<path d="
  M 394.32 195.51
  Q 395.15 193.27 397.16 191.60
  A 1.99 1.96 21.1 0 1 398.20 191.15
  Q 403.05 190.50 406.82 189.36
  A 1.81 1.65 -11.1 0 0 408.10 187.63
  C 407.96 185.78 410.36 184.14 411.23 182.52
  L 413.28 181.64
  A 0.32 0.32 0.0 0 1 413.68 182.11
  L 409.16 189.22
  A 1.88 1.86 1.7 0 1 408.43 189.90
  Q 401.91 193.42 394.32 195.51
  Z"
/>
<path d="
  M 360.07 244.48
  L 360.93 244.56
  Q 359.81 246.67 361.24 248.60
  A 2.08 1.89 3.6 0 0 361.59 248.96
  L 365.92 252.21
  L 359.24 250.99
  L 356.33 248.86
  A 0.53 0.52 -53.8 0 1 356.22 248.12
  Q 357.87 245.84 360.07 244.48
  Z"
/>
<path d="
  M 395.33 288.08
  L 394.49 278.29
  A 1.42 1.37 -72.0 0 0 394.05 277.39
  Q 392.85 276.24 390.96 275.81
  L 390.39 274.25
  A 0.55 0.54 -83.9 0 1 391.19 273.60
  L 395.81 276.54
  A 3.24 3.23 11.9 0 1 397.28 278.79
  L 399.39 292.54
  A 0.08 0.08 0.0 0 1 399.25 292.60
  L 395.33 288.08
  Z"
/>
<path d="
  M 315.83 297.56
  L 310.81 313.43
  L 337.97 313.54
  L 309.14 313.44
  Q 307.18 308.75 304.85 304.96
  Q 300.24 297.51 299.88 296.88
  Q 297.35 292.50 294.44 288.60
  A 1.29 1.28 -36.6 0 0 292.65 288.34
  L 280.19 297.47
  Q 279.86 297.09 279.51 296.90
  L 289.13 284.63
  A 0.67 0.66 -57.4 0 1 289.95 284.44
  L 315.83 297.56
  Z"
/>
</g>
<g fill="#335870">
<path d="
  M 309.55 73.05
  L 316.08 90.76
  L 293.54 84.05
  Q 296.85 79.96 302.06 77.27
  Q 303.44 76.56 303.59 75.71
  A 0.60 0.60 0.0 0 0 302.69 75.10
  Q 297.23 78.49 291.33 81.37
  Q 287.70 83.14 275.93 86.03
  L 285.76 76.26
  Q 286.73 75.68 287.22 75.61
  Q 297.74 74.11 308.26 72.61
  A 1.34 1.33 56.6 0 1 309.12 72.79
  L 309.55 73.05
  Z"
/>
<path d="
  M 398.54 103.98
  Q 398.86 105.24 399.16 106.83
  C 399.70 109.69 400.57 111.27 402.24 115.50
  A 4.91 4.86 41.7 0 1 402.43 118.47
  L 401.82 120.94
  A 1.05 1.05 0.0 0 1 399.90 121.22
  L 395.43 113.77
  A 3.07 2.67 -73.1 0 1 395.13 113.10
  C 393.73 108.63 392.63 105.38 388.40 102.86
  A 0.45 0.38 76.3 0 1 388.29 102.78
  L 384.11 99.12
  A 1.94 1.81 4.4 0 1 383.78 98.76
  Q 380.88 94.74 375.21 91.53
  A 5.40 4.85 -7.4 0 1 374.41 90.98
  Q 371.91 88.92 365.94 83.01
  Q 364.38 81.47 365.09 80.07
  Q 365.57 79.13 365.77 77.73
  Q 366.08 75.68 367.52 74.77
  L 370.79 78.13
  A 0.96 0.37 20.8 0 0 370.88 78.21
  Q 377.78 83.39 383.76 89.96
  A 7.34 7.14 86.9 0 0 384.67 90.80
  Q 392.17 96.55 398.54 103.98
  Z"
/>
<path d="
  M 314.38 94.37
  L 303.96 115.03
  A 0.90 0.89 20.2 0 0 304.55 116.30
  L 315.96 119.16
  A 0.55 0.55 0.0 0 0 316.64 118.60
  L 316.62 118.15
  A 0.02 0.02 0.0 0 1 316.65 118.14
  L 316.87 118.34
  A 0.21 0.21 0.0 0 0 317.21 118.19
  L 317.23 117.79
  Q 318.15 120.03 317.29 121.78
  Q 312.83 130.84 310.28 137.73
  Q 310.03 138.40 310.12 138.98
  A 0.28 0.27 59.1 0 0 310.61 139.11
  Q 312.45 136.69 315.14 134.86
  L 312.42 143.57
  L 311.08 150.31
  A 0.70 0.70 0.0 0 1 309.83 150.59
  C 308.46 148.73 308.90 143.98 308.79 141.53
  A 0.90 0.90 0.0 0 0 307.82 140.67
  L 293.45 141.70
  C 294.21 139.30 294.57 136.68 295.42 134.57
  Q 298.28 127.47 301.80 118.15
  A 3.93 3.91 -41.7 0 0 301.94 115.83
  Q 300.45 109.72 298.02 103.71
  Q 294.61 95.27 293.53 86.26
  L 314.29 91.97
  A 0.75 0.73 -83.7 0 1 314.83 92.66
  Q 314.85 93.37 314.38 94.37
  Z"
/>
<path d="
  M 377.28 164.07
  Q 376.75 165.69 374.86 166.68
  A 0.39 0.39 0.0 0 0 374.80 167.33
  Q 375.22 167.69 375.77 167.55
  C 373.62 169.34 371.50 170.95 369.52 172.96
  Q 367.10 175.45 363.20 177.96
  A 0.24 0.24 0.0 0 1 362.91 177.58
  L 367.09 173.76
  A 1.67 1.48 86.5 0 0 367.38 173.39
  Q 370.43 168.05 375.31 164.06
  Q 373.87 161.65 371.20 159.80
  A 4.68 4.59 -3.3 0 1 370.32 159.03
  C 366.48 154.83 362.38 152.99 358.84 149.45
  A 1.39 1.39 0.0 0 1 358.45 148.25
  L 360.84 132.68
  Q 362.03 132.11 362.66 127.70
  L 377.28 164.07
  Z"
/>
<path d="
  M 329.08 192.40
  Q 330.80 193.24 332.13 196.68
  L 316.06 199.06
  A 2.51 2.46 -57.0 0 0 315.57 199.17
  Q 313.83 199.75 312.05 199.79
  A 1.18 1.17 -20.1 0 1 311.12 199.36
  Q 308.95 196.68 308.38 195.33
  Q 306.22 190.18 303.76 186.62
  L 305.62 186.62
  A 1.03 1.02 71.7 0 1 306.41 187.02
  L 307.74 188.80
  A 0.87 0.87 0.0 0 0 309.30 188.14
  L 309.05 186.52
  A 1.29 1.28 -80.7 0 0 308.38 185.58
  Q 306.33 184.52 304.05 184.28
  L 302.20 178.23
  L 317.00 183.92
  A 10.97 1.92 41.7 0 1 321.57 186.75
  L 329.08 192.40
  Z"
/>
</g>
<g fill="#d3c591">
<path d="
  M 293.54 84.05
  L 316.08 90.76
  L 316.27 91.36
  L 321.05 119.98
  A 2.55 2.42 -39.4 0 1 320.88 121.37
  L 315.14 134.86
  Q 312.45 136.69 310.61 139.11
  A 0.28 0.27 59.1 0 1 310.12 138.98
  Q 310.03 138.40 310.28 137.73
  Q 312.83 130.84 317.29 121.78
  Q 318.15 120.03 317.23 117.79
  L 314.38 94.37
  Q 314.85 93.37 314.83 92.66
  A 0.75 0.73 -83.7 0 0 314.29 91.97
  L 293.53 86.26
  Q 292.27 84.69 293.54 84.05
  Z"
/>
<path d="
  M 436.10 149.11
  Q 431.67 148.05 428.32 144.91
  Q 433.15 145.23 436.10 149.11
  Z"
/>
<path d="
  M 386.69 273.48
  L 384.03 274.64
  L 360.31 287.26
  L 343.53 286.92
  L 343.32 285.53
  A 0.93 0.91 69.1 0 1 343.71 284.64
  Q 344.17 284.32 344.37 283.87
  A 0.82 0.81 -81.1 0 1 345.03 283.38
  L 348.47 282.98
  L 350.19 283.12
  L 358.97 282.99
  A 2.44 2.38 30.1 0 0 360.04 282.72
  L 382.02 271.57
  A 1.12 1.12 0.0 0 0 382.63 270.51
  L 382.09 259.49
  A 1.30 1.30 0.0 0 0 381.38 258.40
  L 372.20 253.85
  Q 371.88 253.07 372.09 252.29
  A 0.59 0.58 16.1 0 1 372.82 251.89
  Q 379.32 253.87 384.80 257.71
  A 1.37 1.36 15.4 0 1 385.38 258.72
  L 386.69 273.48
  Z"
/>
<path d="
  M 279.51 296.90
  Q 279.86 297.09 280.19 297.47
  L 309.14 313.44
  L 337.97 313.54
  L 366.31 313.65
  Q 368.50 313.82 367.97 316.95
  L 309.20 316.71
  A 1.96 1.94 -30.7 0 1 308.28 316.48
  L 279.83 301.52
  L 276.62 300.18
  Q 277.59 298.26 279.51 296.90
  Z"
/>
</g>
<g fill="#876643">
<path d="
  M 296.29 121.55
  Q 293.11 134.54 287.34 145.02
  L 284.51 139.39
  L 285.20 135.96
  A 1.62 1.48 -22.8 0 1 285.48 135.35
  L 296.29 121.55
  Z"
/>
<path d="
  M 289.41 148.01
  Q 288.49 148.64 289.91 149.69
  L 303.51 171.32
  Q 303.45 171.52 303.38 171.72
  L 270.20 158.11
  A 0.59 0.58 43.6 0 1 270.17 157.04
  L 289.41 148.01
  Z"
/>
<path d="
  M 349.64 188.86
  L 333.84 195.25
  L 328.90 186.29
  Q 332.16 184.86 333.50 184.88
  C 338.94 184.94 344.31 187.66 349.64 188.86
  Z"
/>
</g>
<g fill="#d0ac63">
<path d="
  M 297.44 118.63
  Q 297.39 120.30 296.29 121.55
  L 285.48 135.35
  A 1.62 1.48 -22.8 0 0 285.20 135.96
  L 284.51 139.39
  L 272.86 100.99
  Q 276.72 102.53 280.26 104.76
  Q 286.87 108.90 293.51 112.99
  Q 296.85 115.05 297.44 118.63
  Z"
/>
<path d="
  M 336.54 167.32
  Q 333.83 170.08 332.37 173.56
  A 5.44 5.20 -17.1 0 1 331.79 174.60
  L 326.48 182.09
  L 324.56 180.41
  L 317.42 167.82
  A 0.69 0.57 -84.7 0 0 317.29 167.63
  L 314.82 164.92
  A 2.85 2.13 36.5 0 1 314.58 164.61
  L 312.12 160.94
  A 1.30 1.30 0.0 0 0 311.35 160.40
  L 302.14 158.09
  A 0.29 0.29 0.0 0 0 301.78 158.42
  Q 302.83 164.27 303.97 168.76
  Q 304.57 171.15 303.51 171.32
  L 289.91 149.69
  Q 292.81 149.80 295.49 151.32
  Q 298.35 152.95 299.94 153.49
  Q 305.02 155.23 313.36 158.93
  Q 319.12 161.48 336.54 167.32
  Z"
/>
</g>
<g fill="#1e324c">
<ellipse cx="0.00" cy="0.00" transform="translate(337.88,142.22) rotate(-132.3)" rx="1.32" ry="1.18"/>
<path d="
  M 375.31 164.06
  Q 370.43 168.05 367.38 173.39
  A 1.67 1.48 86.5 0 1 367.09 173.76
  L 362.91 177.58
  A 0.24 0.24 0.0 0 0 363.20 177.96
  Q 367.10 175.45 369.52 172.96
  C 371.50 170.95 373.62 169.34 375.77 167.55
  Q 377.59 165.50 380.12 167.38
  Q 386.66 172.24 393.55 176.56
  A 0.22 0.21 32.1 0 0 393.84 176.50
  L 393.85 176.49
  A 0.23 0.22 39.2 0 0 393.81 176.19
  L 383.06 167.22
  C 391.16 168.05 397.83 171.52 403.94 171.86
  A 0.64 0.64 0.0 0 0 404.61 171.35
  L 405.94 164.69
  L 405.86 170.80
  A 2.12 2.12 0.0 0 1 405.36 172.14
  L 396.58 182.57
  A 1.42 1.41 -71.3 0 1 395.56 183.08
  L 368.59 184.40
  A 0.37 0.32 -69.2 0 0 368.35 184.53
  L 367.97 184.98
  A 0.21 0.19 -65.4 0 1 367.80 185.05
  Q 364.15 184.74 362.44 186.50
  Q 356.78 178.86 349.71 172.54
  Q 345.99 169.22 344.56 165.39
  A 2.21 2.16 11.2 0 0 343.95 164.50
  Q 342.84 163.51 342.44 162.70
  A 0.90 0.89 -30.4 0 1 342.74 161.57
  L 356.56 152.02
  A 0.89 0.89 0.0 0 1 357.55 152.00
  L 368.87 159.19
  A 2.45 1.99 0.5 0 1 369.28 159.53
  Q 371.95 162.23 375.31 164.06
  Z
  M 346.60 167.15
  L 353.20 163.80
  A 3.18 3.13 -51.1 0 1 355.38 163.55
  L 367.87 166.68
  A 0.42 0.42 0.0 0 0 368.38 166.37
  L 368.49 165.91
  A 0.56 0.55 -74.8 0 0 368.11 165.24
  Q 359.27 162.61 357.98 162.18
  C 355.76 161.42 354.60 160.39 352.22 161.96
  Q 348.92 164.15 346.23 165.53
  A 0.79 0.79 0.0 0 0 345.89 166.59
  L 346.08 166.98
  A 0.39 0.39 0.0 0 0 346.60 167.15
  Z"
/>
<path d="
  M 268.00 161.11
  L 269.05 171.48
  Q 266.74 170.61 264.72 170.58
  A 0.36 0.35 59.5 0 0 264.55 171.25
  C 269.48 173.93 275.35 175.36 280.74 177.12
  Q 282.92 179.34 288.82 183.93
  Q 294.58 188.42 301.00 185.30
  Q 303.07 185.94 303.76 186.62
  Q 306.22 190.18 308.38 195.33
  Q 308.95 196.68 311.12 199.36
  A 1.18 1.17 -20.1 0 0 312.05 199.79
  Q 313.83 199.75 315.57 199.17
  A 2.51 2.46 -57.0 0 1 316.06 199.06
  L 332.13 196.68
  Q 333.05 199.31 334.34 202.31
  Q 335.35 204.65 337.06 207.41
  L 311.03 200.34
  A 2.66 2.56 69.3 0 1 310.23 199.96
  Q 300.77 193.33 298.06 191.75
  Q 293.27 188.95 291.93 188.57
  Q 278.07 184.69 267.08 181.76
  Q 264.60 181.10 262.34 180.36
  Q 257.79 178.87 252.99 178.87
  A 1.59 1.54 -60.9 0 0 252.07 179.15
  Q 251.12 179.79 250.67 180.68
  Q 250.19 179.78 249.37 179.92
  Q 249.90 179.80 250.24 178.47
  L 254.88 171.43
  Q 256.48 172.66 258.09 171.05
  Q 262.93 166.20 268.00 161.11
  Z
  M 278.1710 179.3562
  A 0.75 0.75 0.0 0 0 277.6390 178.4386
  L 267.4341 175.7233
  A 0.75 0.75 0.0 0 0 266.5165 176.2552
  L 266.4290 176.5838
  A 0.75 0.75 0.0 0 0 266.9610 177.5014
  L 277.1659 180.2167
  A 0.75 0.75 0.0 0 0 278.0835 179.6848
  L 278.1710 179.3562
  Z"
/>
<path d="
  M 294.10 205.89
  L 279.35 211.81
  Q 278.82 211.79 278.19 211.55
  Q 278.11 210.86 278.62 210.62
  Q 282.29 208.88 286.55 206.52
  A 1.57 1.56 23.3 0 1 286.93 206.37
  L 292.76 204.84
  A 0.36 0.36 0.0 0 0 292.82 204.16
  Q 288.60 202.17 285.72 198.53
  Q 284.97 197.58 282.96 197.26
  Q 280.52 196.13 279.19 195.77
  Q 272.41 193.93 260.73 191.36
  Q 259.15 191.01 258.99 187.70
  Q 273.36 189.67 287.00 194.61
  C 292.12 196.46 295.20 198.39 299.80 201.20
  A 0.32 0.32 0.0 0 1 299.76 201.77
  L 293.60 204.40
  A 0.71 0.68 -2.7 0 0 293.24 204.78
  Q 292.77 206.08 294.10 205.89
  Z"
/>
<path d="
  M 323.62 211.51
  L 318.88 217.24
  A 1.15 1.12 66.2 0 0 318.64 217.88
  L 318.60 218.61
  A 0.59 0.59 0.0 0 1 317.48 218.84
  L 312.56 209.14
  A 0.33 0.33 0.0 0 0 311.94 209.22
  Q 311.72 210.16 312.19 211.23
  Q 313.76 214.86 316.61 219.85
  Q 314.99 222.53 309.11 223.84
  A 0.61 0.60 -17.2 0 1 308.42 223.48
  Q 308.00 222.45 308.13 221.30
  L 306.67 214.82
  L 311.60 208.81
  A 0.92 0.92 0.0 0 1 312.42 208.48
  Q 318.67 209.35 323.62 211.51
  Z"
/>
<path d="
  M 329.68 225.96
  L 329.72 255.44
  A 0.69 0.68 -88.1 0 1 328.99 256.13
  L 326.79 256.01
  A 1.92 1.91 1.3 0 0 324.77 257.94
  L 324.91 267.96
  L 319.11 266.04
  Q 320.75 266.38 320.69 265.48
  Q 320.22 258.75 320.38 252.94
  A 0.97 0.96 83.7 0 1 321.10 252.03
  Q 323.15 251.51 324.26 250.07
  A 1.55 1.52 62.5 0 0 324.58 249.02
  L 323.75 237.03
  Q 324.50 233.63 326.41 229.69
  Q 327.52 227.41 329.68 225.96
  Z"
/>
<path d="
  M 344.70 249.20
  Q 344.73 250.45 345.17 251.49
  A 0.73 0.63 14.2 0 0 345.31 251.69
  L 349.52 255.23
  A 2.10 2.10 0.0 0 1 350.26 256.83
  L 350.24 268.79
  L 343.22 272.29
  L 342.76 263.47
  A 0.50 0.47 71.3 0 1 342.95 263.06
  Q 343.43 262.71 344.19 262.95
  L 346.12 264.79
  A 0.43 0.43 0.0 0 0 346.85 264.49
  Q 346.90 263.08 346.78 261.81
  A 2.71 2.53 86.3 0 0 344.15 259.34
  Q 343.94 259.35 343.79 259.85
  L 343.57 259.99
  A 0.44 0.44 0.0 0 1 342.90 259.61
  L 342.90 244.66
  A 0.72 0.72 0.0 0 1 343.62 243.94
  L 343.93 243.94
  A 0.44 0.43 87.9 0 1 344.36 244.35
  L 344.70 249.20
  Z"
/>
<path d="
  M 305.23 253.02
  L 305.05 260.99
  A 1.12 1.10 22.5 0 0 305.40 261.82
  Q 307.11 263.45 309.10 264.65
  Q 323.86 273.62 338.17 279.17
  Q 344.97 280.35 350.19 283.12
  L 348.47 282.98
  L 319.91 282.91
  A 9.08 9.08 0.0 0 1 315.91 281.96
  L 295.13 271.54
  A 1.19 1.18 -75.8 0 1 294.48 270.43
  Q 294.66 267.01 294.70 260.06
  Q 294.72 258.33 296.99 257.51
  Q 301.04 256.05 305.23 253.02
  Z"
/>
<path d="
  M 384.03 274.64
  L 383.70 281.13
  L 361.03 292.87
  Q 361.43 288.82 360.31 287.26
  L 384.03 274.64
  Z"
/>
<path d="
  M 368.65 312.94
  L 366.12 313.59
  L 339.63 301.80
  A 0.43 0.43 0.0 0 1 339.79 300.98
  Q 347.28 300.87 354.52 297.56
  Q 358.09 297.26 362.51 299.65
  A 0.60 0.59 28.3 0 0 363.32 299.41
  C 366.32 293.70 373.91 290.98 379.77 288.39
  A 0.61 0.60 84.9 0 1 380.60 289.09
  C 378.61 297.35 372.85 305.21 368.65 312.94
  Z"
/>
</g>
<g fill="#56a1b9">
<path d="
  M 334.63 78.45
  C 326.50 83.68 320.93 86.72 316.27 91.36
  L 316.08 90.76
  L 309.55 73.05
  Q 311.26 72.98 312.04 73.13
  Q 323.34 75.27 334.63 78.45
  Z"
/>
<path d="
  M 285.89 74.28
  Q 285.14 75.40 285.76 76.26
  L 275.93 86.03
  L 267.58 88.75
  A 0.24 0.23 17.1 0 1 267.36 88.34
  L 285.89 74.28
  Z"
/>
<path d="
  M 402.24 84.44
  L 403.30 88.65
  L 394.60 89.11
  A 0.47 0.47 0.0 0 0 394.57 90.05
  L 396.54 90.31
  L 397.05 91.97
  Q 396.85 92.03 396.73 92.12
  A 0.28 0.28 0.0 0 0 396.73 92.54
  Q 397.89 93.50 400.01 92.92
  L 400.27 94.50
  Q 399.03 95.75 401.80 96.06
  L 401.31 100.58
  Q 400.80 101.68 400.50 101.38
  Q 399.34 99.79 397.78 98.48
  Q 395.68 96.70 394.96 95.83
  C 392.84 93.25 389.64 91.55 387.31 89.16
  Q 380.40 82.07 372.56 75.86
  A 0.32 0.32 0.0 0 1 372.61 75.32
  C 373.53 74.84 383.09 76.73 390.28 77.89
  Q 394.57 78.59 396.92 79.93
  Q 399.88 81.61 402.24 84.44
  Z
  M 385.1787 80.9094
  A 2.93 0.85 -139.3 0 0 386.8457 83.4644
  A 2.93 0.85 -139.3 0 0 389.6213 84.7306
  A 2.93 0.85 -139.3 0 0 387.9543 82.1756
  A 2.93 0.85 -139.3 0 0 385.1787 80.9094
  Z
  M 394.83 84.37
  Q 394.08 82.25 393.57 81.71
  A 1.97 1.87 30.4 0 0 390.28 82.47
  Q 390.23 82.69 391.36 83.70
  Q 392.44 84.66 394.36 84.93
  A 0.43 0.43 0.0 0 0 394.83 84.37
  Z
  M 391.94 86.36
  A 0.49 0.49 0.0 0 0 392.60 86.88
  Q 393.10 86.68 393.15 86.47
  A 0.45 0.37 0.8 0 0 392.65 86.05
  Q 391.96 86.12 391.94 86.36
  Z"
/>
<path d="
  M 339.14 79.16
  L 356.26 84.14
  Q 339.20 88.15 321.96 89.86
  Q 330.94 83.42 339.14 79.16
  Z"
/>
<path d="
  M 314.38 94.37
  L 317.23 117.79
  L 317.21 118.19
  A 0.21 0.21 0.0 0 1 316.87 118.34
  L 316.65 118.14
  A 0.02 0.02 0.0 0 0 316.62 118.15
  L 316.64 118.60
  A 0.55 0.55 0.0 0 1 315.96 119.16
  L 304.55 116.30
  A 0.90 0.89 20.2 0 1 303.96 115.03
  L 314.38 94.37
  Z"
/>
<path d="
  M 248.68 120.10
  L 248.51 124.51
  L 247.62 125.73
  Q 247.90 125.48 247.62 125.08
  A 0.24 0.24 0.0 0 0 247.23 125.07
  Q 244.07 129.54 240.80 134.05
  C 238.43 137.32 238.86 139.83 239.23 143.96
  L 239.27 155.37
  Q 237.37 161.24 239.81 163.00
  L 243.01 165.81
  A 3.18 3.03 7.4 0 1 243.68 166.64
  L 250.24 178.47
  Q 249.90 179.80 249.37 179.92
  Q 246.88 178.17 245.69 176.03
  Q 242.18 169.78 237.70 164.65
  A 4.63 4.62 24.4 0 1 236.55 161.60
  L 236.55 136.81
  A 0.74 0.74 0.0 0 1 236.68 136.39
  Q 241.20 129.99 244.65 122.91
  Q 245.59 120.99 248.68 120.10
  Z"
/>
<path d="
  M 286.04 168.19
  Q 303.28 175.72 315.66 180.60
  Q 319.81 182.24 322.94 184.19
  A 3.95 3.84 -0.8 0 1 324.06 185.25
  L 329.08 192.40
  L 321.57 186.75
  A 10.97 1.92 41.7 0 0 317.00 183.92
  L 302.20 178.23
  Q 296.20 176.16 290.70 172.82
  C 288.65 171.58 286.32 170.60 284.09 169.41
  A 0.40 0.40 0.0 0 1 284.04 168.73
  Q 284.57 168.33 286.04 168.19
  Z"
/>
<path d="
  M 310.12 260.00
  A 0.91 0.91 0.0 0 1 308.35 259.79
  L 308.10 256.78
  A 1.44 1.43 71.4 0 1 308.74 255.48
  L 312.99 252.64
  A 1.79 1.56 -82.6 0 0 313.25 252.41
  L 314.92 250.54
  A 0.53 0.53 0.0 0 1 315.83 250.80
  Q 316.12 252.37 314.98 253.31
  Q 313.01 254.92 311.43 256.46
  A 1.50 1.49 -13.9 0 0 311.06 257.07
  L 310.12 260.00
  Z"
/>
</g>
<g fill="#638482">
<path d="
  M 425.01 125.27
  Q 425.24 124.96 425.27 124.53
  Q 426.08 126.49 425.23 128.33
  C 424.40 130.12 424.71 130.65 425.16 132.29
  A 0.46 0.46 0.0 0 1 424.33 132.65
  Q 422.59 129.75 424.96 126.93
  A 1.20 1.18 61.3 0 0 425.23 125.98
  Q 425.17 125.58 425.01 125.27
  Z"
/>
<path d="
  M 291.31 215.05
  L 279.35 211.81
  L 294.10 205.89
  Q 293.92 210.79 291.31 215.05
  Z"
/>
<path d="
  M 286.78 275.07
  L 283.92 277.04
  A 3.38 3.35 -15.9 0 0 282.47 279.62
  L 282.08 287.32
  Q 280.33 290.19 278.08 292.73
  A 0.16 0.16 0.0 0 1 277.81 292.60
  L 279.84 278.61
  A 3.09 3.07 79.4 0 1 281.34 276.40
  L 285.96 273.72
  A 0.60 0.60 0.0 0 1 286.81 274.00
  Q 286.93 274.31 286.78 275.07
  Z"
/>
<path d="
  M 315.83 297.56
  L 320.93 298.05
  L 336.85 301.56
  A 0.17 0.17 0.0 0 1 336.88 301.89
  L 310.81 313.43
  L 315.83 297.56
  Z"
/>
</g>
<g fill="#786a5c">
<path d="
  M 419.12 143.21
  L 418.15 162.93
  A 1.68 1.63 -22.4 0 1 417.69 163.99
  Q 417.32 164.38 417.26 164.56
  A 0.95 0.91 -67.8 0 0 417.70 165.67
  L 424.04 168.90
  Q 423.24 170.02 421.73 169.96
  L 415.87 165.71
  A 2.38 2.37 -71.4 0 1 414.89 163.73
  L 415.37 141.93
  Q 418.40 142.84 418.62 141.20
  Q 419.15 142.28 419.12 143.21
  Z"
/>
<path d="
  M 337.06 207.41
  Q 341.51 205.43 345.60 203.77
  C 347.98 202.79 350.29 202.42 352.79 201.95
  Q 355.46 202.19 356.04 200.73
  Q 356.56 201.07 357.51 200.97
  Q 357.31 201.93 356.49 202.25
  Q 348.72 205.25 340.41 209.43
  Q 337.33 210.99 333.78 210.01
  Q 316.77 205.29 312.54 204.16
  A 8.15 7.99 66.4 0 1 310.78 203.45
  C 304.36 199.97 298.94 195.64 292.47 192.05
  C 289.69 190.51 285.97 190.49 282.54 189.53
  Q 273.67 187.03 264.86 184.71
  Q 257.84 182.86 250.67 180.68
  Q 251.12 179.79 252.07 179.15
  A 1.59 1.54 -60.9 0 1 252.99 178.87
  Q 257.79 178.87 262.34 180.36
  Q 264.60 181.10 267.08 181.76
  Q 278.07 184.69 291.93 188.57
  Q 293.27 188.95 298.06 191.75
  Q 300.77 193.33 310.23 199.96
  A 2.66 2.56 69.3 0 0 311.03 200.34
  L 337.06 207.41
  Z"
/>
<path d="
  M 306.67 214.82
  L 308.13 221.30
  Q 307.54 223.41 308.32 224.11
  Q 306.97 223.72 306.37 224.02
  Q 305.69 219.93 304.94 217.53
  Q 304.37 215.68 306.67 214.82
  Z"
/>
<path d="
  M 331.59 223.86
  Q 331.55 225.20 331.37 226.63
  Q 331.16 228.27 331.17 229.39
  Q 331.27 237.62 331.40 240.10
  C 331.74 246.80 331.19 253.34 331.82 260.62
  A 2.25 2.25 0.0 0 1 329.26 263.04
  L 327.82 262.83
  A 0.59 0.57 6.0 0 0 327.15 263.36
  L 326.74 269.72
  Q 325.16 269.28 324.91 267.96
  L 324.77 257.94
  A 1.92 1.91 1.3 0 1 326.79 256.01
  L 328.99 256.13
  A 0.69 0.68 -88.1 0 0 329.72 255.44
  L 329.68 225.96
  Q 330.48 224.63 331.59 223.86
  Z"
/>
<path d="
  M 319.11 266.04
  L 318.95 251.90
  A 1.01 1.00 72.4 0 1 319.37 251.08
  L 322.22 249.12
  A 1.55 1.53 73.0 0 0 322.87 247.88
  C 322.90 243.60 322.34 240.27 323.75 237.03
  L 324.58 249.02
  A 1.55 1.52 62.5 0 1 324.26 250.07
  Q 323.15 251.51 321.10 252.03
  A 0.97 0.96 83.7 0 0 320.38 252.94
  Q 320.22 258.75 320.69 265.48
  Q 320.75 266.38 319.11 266.04
  Z"
/>
</g>
<g fill="#968c78">
<path d="
  M 418.62 141.20
  Q 418.40 142.84 415.37 141.93
  C 412.55 135.64 409.65 129.35 407.05 122.92
  C 404.41 116.42 401.97 112.45 399.56 105.50
  A 0.93 0.91 56.2 0 1 399.73 104.59
  Q 400.32 103.93 401.16 103.60
  Q 402.41 103.04 402.71 103.82
  Q 410.63 124.76 418.62 141.20
  Z"
/>
<rect x="-0.86" y="-3.85" transform="translate(250.64,159.08) rotate(-2.1)" width="1.72" height="7.70" rx="0.82"/>
<rect x="-0.92" y="-2.97" transform="translate(246.22,159.91) rotate(-0.6)" width="1.84" height="5.94" rx="0.87"/>
<path d="
  M 378.30 164.28
  L 383.06 167.22
  L 393.81 176.19
  A 0.23 0.22 39.2 0 1 393.85 176.49
  L 393.84 176.50
  A 0.22 0.21 32.1 0 1 393.55 176.56
  Q 386.66 172.24 380.12 167.38
  Q 377.59 165.50 375.77 167.55
  Q 375.22 167.69 374.80 167.33
  A 0.39 0.39 0.0 0 1 374.86 166.68
  Q 376.75 165.69 377.28 164.07
  Q 377.73 163.96 377.73 163.26
  Q 378.30 163.84 378.30 164.28
  Z"
/>
<path d="
  M 269.05 171.48
  Q 275.30 172.41 281.32 174.97
  C 283.37 175.84 284.53 174.90 285.74 177.66
  A 0.82 0.82 0.0 0 1 284.36 178.51
  Q 282.94 176.80 280.74 177.12
  C 275.35 175.36 269.48 173.93 264.55 171.25
  A 0.36 0.35 59.5 0 1 264.72 170.58
  Q 266.74 170.61 269.05 171.48
  Z"
/>
<rect x="-6.03" y="-0.92" transform="translate(272.30,177.97) rotate(14.9)" width="12.06" height="1.84" rx="0.75"/>
<path d="
  M 288.03 179.15
  A 0.29 0.29 0.0 0 1 287.92 178.76
  L 288.06 178.49
  A 1.64 1.50 -61.6 0 1 290.16 177.76
  L 290.44 177.91
  A 1.64 1.50 -61.6 0 1 290.98 180.07
  L 290.84 180.34
  A 0.29 0.29 0.0 0 1 290.44 180.46
  L 288.03 179.15
  Z"
/>
<path d="
  M 304.05 184.28
  Q 306.33 184.52 308.38 185.58
  A 1.29 1.28 -80.7 0 1 309.05 186.52
  L 309.30 188.14
  A 0.87 0.87 0.0 0 1 307.74 188.80
  L 306.41 187.02
  A 1.03 1.02 71.7 0 0 305.62 186.62
  L 303.76 186.62
  Q 303.07 185.94 301.00 185.30
  L 294.56 182.57
  A 0.79 0.75 -67.1 0 1 294.18 181.55
  L 294.19 181.52
  A 0.80 0.74 20.9 0 1 295.17 181.12
  L 304.05 184.28
  Z"
/>
<path d="
  M 258.99 187.70
  Q 259.15 191.01 260.73 191.36
  Q 272.41 193.93 279.19 195.77
  Q 280.52 196.13 282.96 197.26
  Q 283.21 197.89 282.90 198.29
  Q 282.60 198.67 281.92 198.54
  Q 271.54 196.40 261.58 192.44
  A 0.71 0.71 0.0 0 0 260.62 193.22
  C 261.57 198.60 263.54 199.99 267.76 202.90
  A 5.26 5.13 84.4 0 1 268.64 203.64
  Q 273.33 208.53 277.47 211.50
  Q 277.81 211.73 278.19 211.55
  Q 278.82 211.79 279.35 211.81
  L 291.31 215.05
  Q 293.27 215.22 294.75 213.56
  L 305.38 210.19
  Q 303.29 212.50 301.84 213.14
  Q 298.41 214.66 290.76 216.78
  A 1.87 1.85 42.8 0 1 289.85 216.81
  L 276.31 213.80
  A 7.14 7.10 -14.8 0 1 272.61 211.66
  Q 267.45 206.01 260.79 201.52
  A 3.08 3.04 -80.5 0 1 259.53 199.73
  L 256.24 187.18
  A 0.45 0.45 0.0 0 1 256.74 186.62
  Q 257.90 186.78 258.99 187.70
  Z"
/>
<rect x="-9.79" y="-0.84" transform="translate(273.66,200.18) rotate(13.5)" width="19.58" height="1.68" rx="0.81"/>
<path d="
  M 333.58 214.18
  Q 330.15 218.46 326.95 222.72
  C 322.88 228.13 320.58 233.20 318.19 239.09
  A 4.21 4.19 0.9 0 1 315.74 241.45
  L 312.64 242.58
  A 0.77 0.71 36.3 0 1 312.26 242.62
  Q 311.32 242.49 310.45 243.36
  A 0.65 0.65 0.0 0 1 309.58 243.40
  L 303.40 238.18
  A 1.67 1.67 0.0 0 1 302.86 236.45
  L 306.37 224.02
  Q 306.97 223.72 308.32 224.11
  L 305.98 236.17
  A 2.05 2.04 -64.8 0 0 306.68 238.13
  L 308.67 239.81
  A 0.80 0.80 0.0 0 0 309.93 239.50
  L 316.82 222.48
  Q 317.15 220.75 318.82 220.88
  A 0.53 0.52 -81.2 0 1 319.29 221.53
  C 318.91 223.03 318.52 224.56 317.93 225.70
  Q 314.33 232.73 311.48 240.64
  A 0.75 0.75 0.0 0 0 312.52 241.56
  L 316.29 239.65
  A 3.99 3.99 0.0 0 0 318.27 237.36
  C 319.46 233.81 319.21 229.61 321.96 225.47
  Q 322.54 224.62 330.34 215.34
  Q 331.64 213.79 333.58 214.18
  Z"
/>
<path d="
  M 305.23 253.02
  Q 301.04 256.05 296.99 257.51
  Q 294.72 258.33 294.70 260.06
  Q 294.66 267.01 294.48 270.43
  A 1.19 1.18 -75.8 0 0 295.13 271.54
  L 315.91 281.96
  A 9.08 9.08 0.0 0 0 319.91 282.91
  L 348.47 282.98
  L 345.03 283.38
  A 0.82 0.81 -81.1 0 0 344.37 283.87
  Q 344.17 284.32 343.71 284.64
  A 0.93 0.91 69.1 0 0 343.32 285.53
  L 343.53 286.92
  L 319.48 287.01
  A 9.20 9.14 -30.9 0 1 315.12 285.93
  L 293.26 274.18
  A 0.38 0.38 0.0 0 0 292.70 274.53
  L 293.01 281.08
  Q 291.63 280.71 290.74 279.91
  A 1.21 1.20 -70.7 0 1 290.33 279.05
  Q 290.14 275.38 290.25 274.25
  Q 291.21 264.23 291.98 259.32
  A 3.11 3.10 -14.4 0 1 293.16 257.33
  C 295.16 255.82 297.79 254.58 300.60 253.05
  Q 304.22 251.08 305.23 253.02
  Z"
/>
</g>
<g fill="#fbf1b2">
<path d="
  M 297.44 118.63
  Q 296.85 115.05 293.51 112.99
  Q 286.87 108.90 280.26 104.76
  Q 276.72 102.53 272.86 100.99
  L 272.66 100.45
  L 272.89 99.56
  A 1.06 1.06 0.0 0 1 273.20 99.05
  L 288.12 85.70
  Q 288.23 85.09 288.84 85.42
  A 0.86 0.86 0.0 0 1 289.25 85.93
  C 291.10 92.41 292.91 97.01 294.71 103.97
  Q 296.29 110.10 297.81 113.96
  Q 298.89 116.71 297.44 118.63
  Z"
/>
<path d="
  M 262.78 153.06
  L 248.51 124.51
  L 248.68 120.10
  Q 249.37 118.85 250.08 119.15
  A 0.38 0.38 0.0 0 1 250.28 119.35
  L 262.78 153.06
  Z"
/>
</g>
<g fill="#2a8fcd">
<path d="
  M 365.02 190.67
  L 365.72 190.87
  Q 365.21 191.14 365.15 191.51
  A 0.87 0.37 23.6 0 0 365.73 192.12
  Q 365.98 192.24 366.01 192.51
  Q 366.95 201.95 366.47 210.36
  A 2.46 2.42 67.9 0 1 365.86 211.84
  Q 364.43 213.46 361.33 215.54
  Q 360.90 215.83 360.69 216.51
  A 0.56 0.55 17.4 0 0 361.05 217.19
  L 361.62 217.37
  Q 360.04 218.60 360.23 220.82
  L 355.64 218.96
  L 356.12 208.93
  A 0.61 0.60 39.1 0 1 357.31 208.81
  L 357.66 210.15
  A 1.11 1.10 0.5 0 0 358.44 210.94
  Q 359.94 211.37 360.46 209.52
  Q 361.33 206.40 360.46 204.03
  L 365.02 190.67
  Z"
/>
<path d="
  M 354.03 219.97
  L 353.91 215.89
  A 0.20 0.19 75.6 0 0 353.63 215.72
  L 350.29 217.41
  A 0.48 0.48 0.0 0 0 350.04 217.85
  L 350.24 224.91
  Q 350.09 221.98 349.86 219.00
  Q 349.71 217.08 349.88 215.02
  Q 350.13 212.06 350.59 211.19
  Q 351.55 209.39 353.21 208.97
  A 0.51 0.51 0.0 0 1 353.85 209.46
  L 354.03 219.97
  Z"
/>
</g>
<g fill="#bcaf93">
<path d="
  M 325.86 65.72
  L 321.11 67.20
  Q 317.88 67.86 315.06 66.84
  A 0.35 0.34 -44.4 0 1 315.07 66.19
  L 327.34 61.96
  A 0.57 0.56 -4.4 0 1 328.08 62.59
  Q 327.68 64.94 325.86 65.72
  Z"
/>
<rect x="-4.02" y="-0.99" transform="translate(332.85,114.82) rotate(17.8)" width="8.04" height="1.98" rx="0.96"/>
<rect x="-7.02" y="-1.11" transform="translate(266.18,117.39) rotate(17.0)" width="14.04" height="2.22" rx="0.65"/>
<rect x="-5.44" y="-0.93" transform="translate(331.73,118.86) rotate(17.4)" width="10.88" height="1.86" rx="0.89"/>
<ellipse cx="0.00" cy="0.00" transform="translate(260.54,121.17) rotate(-130.4)" rx="1.62" ry="1.29"/>
<path d="
  M 264.42 121.04
  A 0.12 0.12 0.0 0 1 264.58 120.97
  L 264.71 121.02
  A 7.42 0.61 21.2 0 1 271.40 124.27
  L 270.86 125.69
  A 7.42 0.61 21.2 0 1 263.72 123.57
  L 263.59 123.52
  A 0.12 0.12 0.0 0 1 263.52 123.37
  L 264.42 121.04
  Z"
/>
<path d="
  M 333.22 126.28
  A 0.29 0.29 0.0 0 1 333.11 125.88
  L 333.20 125.72
  A 1.58 1.48 -61.0 0 1 335.26 125.05
  L 335.47 125.17
  A 1.58 1.48 -61.0 0 1 336.00 127.27
  L 335.91 127.43
  A 0.29 0.29 0.0 0 1 335.52 127.55
  L 333.22 126.28
  Z"
/>
<path d="
  M 318.25 138.62
  Q 318.05 137.57 318.61 137.22
  L 323.86 138.72
  A 0.50 0.50 0.0 0 0 324.49 138.28
  C 324.79 135.08 328.29 133.02 331.03 131.26
  A 1.19 1.19 0.0 0 1 331.98 131.10
  L 338.93 132.84
  A 0.38 0.38 0.0 0 0 339.40 132.47
  L 339.40 126.57
  A 0.61 0.61 0.0 0 1 340.16 125.98
  L 347.65 127.86
  A 0.34 0.34 0.0 0 0 347.94 127.80
  L 348.69 127.23
  A 0.47 0.42 -66.7 0 1 348.84 127.16
  Q 352.22 126.18 353.38 129.56
  A 2.31 2.00 -26.8 0 1 352.36 132.03
  C 350.10 133.49 348.31 132.04 347.57 129.95
  A 0.88 0.87 86.7 0 0 346.96 129.40
  L 341.55 128.04
  A 0.51 0.51 0.0 0 0 340.92 128.53
  L 340.92 134.50
  A 0.46 0.45 7.0 0 1 340.35 134.94
  L 332.05 132.86
  A 1.47 1.44 -56.0 0 0 330.82 133.11
  L 326.78 136.15
  A 2.04 2.03 73.1 0 0 325.97 137.67
  L 325.68 142.77
  A 0.23 0.23 0.0 0 1 325.45 142.99
  L 325.15 142.99
  A 0.37 0.36 -0.0 0 1 324.78 142.63
  L 324.78 141.21
  A 0.88 0.87 -82.1 0 0 324.15 140.37
  L 318.25 138.62
  Z
  M 351.15 131.09
  L 351.85 129.81
  A 0.42 0.42 0.0 0 0 351.69 129.24
  L 351.46 129.11
  A 2.22 1.09 28.8 0 0 348.99 129.00
  L 348.93 129.10
  A 2.22 1.09 28.8 0 0 350.35 131.13
  L 350.58 131.25
  A 0.42 0.42 0.0 0 0 351.15 131.09
  Z"
/>
<rect x="-5.90" y="-1.11" transform="translate(271.28,130.30) rotate(17.1)" width="11.80" height="2.22" rx="1.07"/>
<path d="
  M 263.06 132.64
  A 1.29 1.08 47.0 0 1 265.30 132.92
  Q 265.70 133.96 265.55 134.49
  A 1.24 1.11 43.6 0 1 263.33 134.42
  Q 262.85 133.34 263.06 132.64
  Z"
/>
<path d="
  M 267.99 133.89
  A 0.21 0.21 0.0 0 1 268.26 133.76
  L 278.70 137.27
  A 2.83 0.33 18.6 0 1 281.28 138.49
  L 280.73 140.14
  A 2.83 0.33 18.6 0 1 277.94 139.55
  L 267.49 136.03
  A 0.21 0.21 0.0 0 1 267.36 135.77
  L 267.99 133.89
  Z"
/>
<path d="
  M 340.38 144.04
  Q 338.11 145.97 335.78 144.14
  A 2.53 2.12 -59.7 0 1 335.29 141.28
  C 336.56 138.48 338.64 138.96 340.55 141.12
  Q 342.30 143.11 346.56 143.47
  A 1.69 1.69 0.0 0 0 347.47 143.29
  Q 347.84 143.10 348.41 142.75
  A 2.55 2.39 57.1 0 1 351.74 143.58
  C 354.80 148.13 348.52 150.92 347.01 146.72
  C 346.36 144.92 343.52 144.49 341.34 143.84
  A 1.07 1.06 -56.5 0 0 340.38 144.04
  Z
  M 336.9916 141.2437
  A 1.32 1.18 -132.3 0 0 337.0072 143.0142
  A 1.32 1.18 -132.3 0 0 338.7684 143.1963
  A 1.32 1.18 -132.3 0 0 338.7528 141.4258
  A 1.32 1.18 -132.3 0 0 336.9916 141.2437
  Z
  M 350.98 145.60
  A 1.36 1.36 0.0 0 0 349.62 144.24
  A 1.36 1.36 0.0 0 0 348.26 145.60
  A 1.36 1.36 0.0 0 0 349.62 146.96
  A 1.36 1.36 0.0 0 0 350.98 145.60
  Z"
/>
<rect x="-0.90" y="-3.24" transform="translate(254.74,160.00) rotate(-0.6)" width="1.80" height="6.48" rx="0.86"/>
<path d="
  M 360.93 244.56
  L 368.00 250.63
  A 2.22 2.20 -69.8 0 1 368.77 252.31
  L 368.77 259.96
  A 1.09 1.07 -16.1 0 1 368.25 260.88
  Q 367.37 261.42 366.09 261.56
  L 365.92 252.21
  L 361.59 248.96
  A 2.08 1.89 3.6 0 1 361.24 248.60
  Q 359.81 246.67 360.93 244.56
  Z"
/>
<path d="
  M 344.19 262.95
  Q 343.10 261.80 343.79 259.85
  Q 343.94 259.35 344.15 259.34
  A 2.71 2.53 86.3 0 1 346.78 261.81
  Q 346.90 263.08 346.85 264.49
  A 0.43 0.43 0.0 0 1 346.12 264.79
  L 344.19 262.95
  Z"
/>
</g>
<g fill="#71593f">
<path d="
  M 364.31 73.25
  L 362.84 79.46
  A 0.45 0.45 0.0 0 1 362.23 79.77
  Q 359.36 78.55 358.71 78.33
  Q 344.97 73.78 333.22 71.18
  Q 330.89 70.67 330.23 69.58
  Q 329.40 68.18 330.72 66.27
  Q 347.67 68.89 364.31 73.25
  Z"
/>
<ellipse cx="0.00" cy="0.00" transform="translate(430.37,135.54) rotate(-115.2)" rx="1.66" ry="1.19"/>
<circle cx="349.62" cy="145.60" r="1.36"/>
<rect x="-1.14" y="-1.39" transform="translate(390.04,151.27) rotate(-4.6)" width="2.28" height="2.78" rx="1.05"/>
<path d="
  M 349.64 188.86
  Q 354.15 194.09 356.04 200.73
  Q 355.46 202.19 352.79 201.95
  Q 353.57 201.46 353.32 201.15
  Q 352.56 200.21 351.37 199.99
  Q 343.08 198.44 335.41 196.39
  Q 334.51 196.15 333.84 195.25
  L 349.64 188.86
  Z"
/>
<rect x="-1.61" y="-2.02" transform="translate(354.87,235.05) rotate(42.8)" width="3.22" height="4.04" rx="1.34"/>
</g>
<g fill="#375664">
<path d="
  M 282.96 197.26
  Q 284.97 197.58 285.72 198.53
  Q 288.60 202.17 292.82 204.16
  A 0.36 0.36 0.0 0 1 292.76 204.84
  L 286.93 206.37
  A 1.57 1.56 23.3 0 0 286.55 206.52
  Q 282.29 208.88 278.62 210.62
  Q 278.11 210.86 278.19 211.55
  Q 277.81 211.73 277.47 211.50
  Q 273.33 208.53 268.64 203.64
  A 5.26 5.13 84.4 0 0 267.76 202.90
  C 263.54 199.99 261.57 198.60 260.62 193.22
  A 0.71 0.71 0.0 0 1 261.58 192.44
  Q 271.54 196.40 281.92 198.54
  Q 282.60 198.67 282.90 198.29
  Q 283.21 197.89 282.96 197.26
  Z
  M 283.1865 202.4363
  A 0.81 0.81 0.0 0 0 282.5880 201.4595
  L 265.1242 197.2669
  A 0.81 0.81 0.0 0 0 264.1475 197.8654
  L 264.1335 197.9237
  A 0.81 0.81 0.0 0 0 264.7320 198.9005
  L 282.1958 203.0931
  A 0.81 0.81 0.0 0 0 283.1725 202.4946
  L 283.1865 202.4363
  Z"
/>
<path d="
  M 316.82 222.48
  L 309.93 239.50
  A 0.80 0.80 0.0 0 1 308.67 239.81
  L 306.68 238.13
  A 2.05 2.04 -64.8 0 1 305.98 236.17
  L 308.32 224.11
  Q 307.54 223.41 308.13 221.30
  Q 308.00 222.45 308.42 223.48
  A 0.61 0.60 -17.2 0 0 309.11 223.84
  Q 314.99 222.53 316.61 219.85
  Q 316.89 220.27 316.82 222.48
  Z"
/>
<path d="
  M 365.92 252.21
  L 366.09 261.56
  Q 363.47 263.55 359.97 264.24
  A 0.53 0.53 0.0 0 1 359.35 263.83
  Q 359.13 262.86 359.44 261.86
  L 359.24 250.99
  L 365.92 252.21
  Z"
/>
<path d="
  M 386.69 273.48
  Q 386.92 275.60 386.89 277.75
  Q 386.86 280.35 383.70 281.13
  L 384.03 274.64
  L 386.69 273.48
  Z"
/>
<path d="
  M 396.17 295.09
  A 0.58 0.58 0.0 0 1 395.50 295.98
  Q 391.60 294.50 383.73 291.60
  C 379.52 290.05 385.04 285.19 386.76 284.27
  A 1.20 1.20 0.0 0 1 388.29 284.61
  L 396.17 295.09
  Z"
/>
<path d="
  M 354.52 297.56
  Q 347.28 300.87 339.79 300.98
  A 0.43 0.43 0.0 0 0 339.63 301.80
  L 366.12 313.59
  Q 366.22 313.62 366.31 313.65
  L 337.97 313.54
  L 310.81 313.43
  L 336.88 301.89
  A 0.17 0.17 0.0 0 0 336.85 301.56
  L 320.93 298.05
  Q 324.62 297.22 329.00 297.22
  Q 344.28 297.24 354.52 297.56
  Z"
/>
</g>
<g fill="#215e95">
<path d="
  M 239.81 163.00
  Q 237.37 161.24 239.27 155.37
  L 239.31 156.30
  A 0.32 0.32 0.0 0 0 239.91 156.43
  L 243.56 149.65
  A 0.42 0.42 0.0 0 1 244.33 149.98
  Q 243.51 152.47 241.62 155.89
  Q 239.75 159.27 239.81 163.00
  Z"
/>
<path d="
  M 411.23 182.52
  C 410.36 184.14 407.96 185.78 408.10 187.63
  A 1.81 1.65 -11.1 0 1 406.82 189.36
  Q 403.05 190.50 398.20 191.15
  A 1.99 1.96 21.1 0 0 397.16 191.60
  Q 395.15 193.27 394.32 195.51
  Q 392.49 196.32 390.29 197.54
  Q 388.70 198.42 387.86 200.84
  L 374.38 196.94
  A 1.19 1.19 0.0 0 0 372.86 198.02
  L 372.06 212.92
  Q 369.00 213.60 368.56 213.16
  L 369.18 191.57
  A 0.78 0.78 0.0 0 0 368.37 190.77
  L 365.72 190.87
  L 365.02 190.67
  Q 365.16 190.36 365.52 190.33
  Q 371.57 189.85 377.85 190.05
  C 383.46 190.22 387.37 189.86 392.44 189.85
  C 394.84 189.85 396.61 189.37 399.22 188.85
  A 1.72 1.72 0.0 0 0 400.03 188.45
  L 404.10 184.82
  A 1.66 1.66 0.0 0 1 404.77 184.44
  L 411.23 182.52
  Z"
/>
</g>
</svg>
